<svg xmlns="http://www.w3.org/2000/svg" width="149" height="149" viewBox="0 0 149 149">
  <g id="Group_31761" data-name="Group 31761" transform="translate(-898 -280)">
    <circle id="person" cx="74.5" cy="74.5" r="74.5" transform="translate(898 280)" fill="#fff"/>
    <g id="Logo" transform="translate(912.304 332.448)">
      <path id="Path_10" data-name="Path 10" d="M437,226.377h21.342V222.89h-19.82Z" transform="translate(-402.566 -181.532)" fill="#ff4577"/>
      <path id="Path_11" data-name="Path 11" d="M465.287,175.193l-.756-2.056.753,2.056Z" transform="translate(-419.854 -150.261)" fill="none"/>
      <path id="Path_12" data-name="Path 12" d="M382.389,137.333V134.5H366.079v27.9H383.21v-2.831H369.859v-10.5h10.887v-2.831H369.859v-8.9Z" transform="translate(-358.027 -125.978)" fill="#5088ff"/>
      <path id="Path_13" data-name="Path 13" d="M344.434,111.556V156.4h27.977l6.161-14.479-.031,0,2.892-7.293h0l3.877-10.531,3.542,9.629h0l.257.7.756,2.056h0l1.185,3.238,3.052,8.247h3.864l-10.889-28.26h-3.49l-13.53,33.2h-22.13V115.041H460.9v37.872H400.213V156.4h64.181V111.556Z" transform="translate(-344.434 -111.556)" fill="#0a345a"/>
      <path id="Path_14" data-name="Path 14" d="M525.809,162.4h3.738V134.5h-3.369l-10.065,14.932L506.048,134.5H502.68v27.9h3.739v-9.722l-.247-12.184,8.668,12.922h2.588l8.586-12.8-.205,12.06Z" transform="translate(-443.811 -125.978)" fill="#60c094"/>
      <path id="Path_15" data-name="Path 15" d="M607.489,157.844a7.647,7.647,0,0,1-4.642,1.354,13.915,13.915,0,0,1-8.3-2.461l-1.314,2.789a14.565,14.565,0,0,0,4.231,1.969,19.737,19.737,0,0,0,5.381.656,13.638,13.638,0,0,0,5.361-.984,8.065,8.065,0,0,0,3.595-2.831,7.468,7.468,0,0,0,1.274-4.349,6.144,6.144,0,0,0-1.192-3.877,8.291,8.291,0,0,0-2.876-2.379,41.7,41.7,0,0,0-4.437-1.826q-2.26-.82-3.533-1.415a6.671,6.671,0,0,1-2.136-1.538,3.333,3.333,0,0,1-.863-2.338,4.029,4.029,0,0,1,1.6-3.446,6.712,6.712,0,0,1,4.108-1.19,12,12,0,0,1,7.189,2.379l1.315-2.707a14.5,14.5,0,0,0-8.586-2.584,10.782,10.782,0,0,0-6.737,2.01,6.757,6.757,0,0,0-2.629,5.7,6.042,6.042,0,0,0,1.17,3.835,8.113,8.113,0,0,0,2.835,2.318,43.31,43.31,0,0,0,4.417,1.805q2.3.821,3.594,1.415a6.345,6.345,0,0,1,2.157,1.58,3.541,3.541,0,0,1,.862,2.42A4.331,4.331,0,0,1,607.489,157.844Z" transform="translate(-500.678 -125.076)" fill="#f7bc51"/>
    </g>
  </g>
</svg>
