<svg xmlns="http://www.w3.org/2000/svg" width="20.001" height="20" viewBox="0 0 20.001 20">
  <g id="cancel_1_" data-name="cancel (1)" transform="translate(0 -0.011)">
    <path id="Path_7" data-name="Path 7" d="M10,20.011A10,10,0,0,1,2.926,2.936h0A10.006,10.006,0,1,1,10,20.011ZM4.022,4.032a8.456,8.456,0,1,0,11.958,0,8.467,8.467,0,0,0-11.958,0Z" fill="#0a345a"/>
    <g id="Group_6" data-name="Group 6" transform="translate(6.534 6.446)">
      <path id="Path_8" data-name="Path 8" d="M168.046,171.765a.775.775,0,0,1-.548-1.323l5.479-5.479a.775.775,0,0,1,1.1,1.1l-5.479,5.479A.774.774,0,0,1,168.046,171.765Z" transform="translate(-167.27 -164.735)" fill="#0a345a"/>
      <path id="Path_9" data-name="Path 9" d="M173.506,171.765a.773.773,0,0,1-.548-.227l-5.479-5.479a.775.775,0,0,1,1.1-1.1l5.479,5.479a.775.775,0,0,1-.548,1.323Z" transform="translate(-167.251 -164.735)" fill="#0a345a"/>
    </g>
  </g>
</svg>
