<svg xmlns="http://www.w3.org/2000/svg" width="25" height="26.852" viewBox="0 0 25 26.852">
  <g id="file_1_" data-name="file (1)" transform="translate(-40 -24)">
    <path id="Path_2025" data-name="Path 2025" d="M59.444,50.852H41.852A1.852,1.852,0,0,1,40,49V25.852A1.852,1.852,0,0,1,41.852,24H55.741L61.3,29.556V49A1.852,1.852,0,0,1,59.444,50.852Z" fill="#e9eef2"/>
    <g id="Group_816" data-name="Group 816" transform="translate(42.315 24)">
      <path id="Path_2026" data-name="Path 2026" d="M317.556,29.556h-3.7A1.852,1.852,0,0,1,312,27.7V24Z" transform="translate(-298.574 -24)" fill="#e9eef2"/>
      <path id="Path_2027" data-name="Path 2027" d="M171.574,160.926H160.463a.463.463,0,0,1,0-.926h11.111a.463.463,0,1,1,0,.926Z" transform="translate(-155.37 -152.13)" fill="#c3c6c7"/>
      <path id="Path_2028" data-name="Path 2028" d="M89.722,208.926H80.463a.463.463,0,1,1,0-.926h9.259a.463.463,0,1,1,0,.926Z" transform="translate(-80 -197.352)" fill="#c3c6c7"/>
      <path id="Path_2029" data-name="Path 2029" d="M212.167,256.926h-3.7a.463.463,0,1,1,0-.926h3.7a.463.463,0,1,1,0,.926Z" transform="translate(-200.593 -242.574)" fill="#c3c6c7"/>
      <path id="Path_2030" data-name="Path 2030" d="M88.8,304.926H80.463a.463.463,0,0,1,0-.926H88.8a.463.463,0,0,1,0,.926Z" transform="translate(-80 -287.796)" fill="#c3c6c7"/>
      <path id="Path_2031" data-name="Path 2031" d="M83.241,160.926H80.463a.463.463,0,1,1,0-.926h2.778a.463.463,0,1,1,0,.926Z" transform="translate(-80 -152.13)" fill="#c3c6c7"/>
      <path id="Path_2032" data-name="Path 2032" d="M277.093,208.926h-4.63a.463.463,0,0,1,0-.926h4.63a.463.463,0,0,1,0,.926Z" transform="translate(-260.889 -197.352)" fill="#c3c6c7"/>
      <path id="Path_2033" data-name="Path 2033" d="M86.019,256.926H80.463a.463.463,0,1,1,0-.926h5.556a.463.463,0,0,1,0,.926Z" transform="translate(-80 -242.574)" fill="#c3c6c7"/>
      <path id="Path_2034" data-name="Path 2034" d="M178.315,400.926h-1.852a.463.463,0,1,1,0-.926h1.852a.463.463,0,1,1,0,.926Z" transform="translate(-170.444 -378.241)" fill="#c3c6c7"/>
      <path id="Path_2035" data-name="Path 2035" d="M84.167,400.926h-3.7a.463.463,0,1,1,0-.926h3.7a.463.463,0,1,1,0,.926Z" transform="translate(-80 -378.241)" fill="#c3c6c7"/>
      <path id="Path_2036" data-name="Path 2036" d="M83.241,352.926H80.463a.463.463,0,0,1,0-.926h2.778a.463.463,0,0,1,0,.926Z" transform="translate(-80 -333.018)" fill="#c3c6c7"/>
      <path id="Path_2037" data-name="Path 2037" d="M86.019,112.926H80.463a.463.463,0,1,1,0-.926h5.556a.463.463,0,0,1,0,.926Z" transform="translate(-80 -106.907)" fill="#c3c6c7"/>
      <path id="Path_2038" data-name="Path 2038" d="M163.241,352.926h-2.778a.463.463,0,0,1,0-.926h2.778a.463.463,0,0,1,0,.926Z" transform="translate(-155.37 -333.018)" fill="#c3c6c7"/>
    </g>
    <circle id="Ellipse_43" data-name="Ellipse 43" cx="6.019" cy="6.019" r="6.019" transform="translate(52.963 38.815)" fill="#f79539"/>
    <path id="Path_2039" data-name="Path 2039" d="M326.019,330.777h-3.024l-2.176-2.611a.463.463,0,0,0-.711.593l2.315,2.778a.462.462,0,0,0,.356.167h3.241a.463.463,0,0,0,0-.926Z" transform="translate(-263.797 -286.407)" fill="#e9eef2"/>
    <rect id="Rectangle_374" data-name="Rectangle 374" width="6.713" height="6.539" rx="3.27" transform="translate(54.699 24)" fill="#e9eef2"/>
  </g>
</svg>
