<svg xmlns="http://www.w3.org/2000/svg" width="25" height="22.436" viewBox="0 0 25 22.436">
  <g id="form" transform="translate(0 -24)">
    <path id="Path_1997" data-name="Path 1997" d="M24.609,24H.391A.389.389,0,0,0,0,24.387V46.049a.389.389,0,0,0,.391.387H24.609A.389.389,0,0,0,25,46.049V24.387A.389.389,0,0,0,24.609,24Z" fill="#f3f1f1"/>
    <path id="Path_1998" data-name="Path 1998" d="M1.172,46.049V24.387A.389.389,0,0,1,1.563,24H.391A.389.389,0,0,0,0,24.387V46.049a.389.389,0,0,0,.391.387H1.563A.389.389,0,0,1,1.172,46.049Z" fill="#f3f1f1"/>
    <path id="Path_1999" data-name="Path 1999" d="M24.609,24H.391A.389.389,0,0,0,0,24.387v3.095H25V24.387A.389.389,0,0,0,24.609,24Z" fill="#c4a0de"/>
    <path id="Path_2000" data-name="Path 2000" d="M1.563,24H.391A.389.389,0,0,0,0,24.387v3.095H1.172V24.387A.389.389,0,0,1,1.563,24Z" fill="#c4a0de"/>
    <path id="Path_2001" data-name="Path 2001" d="M203.906,376h-2.344a1.547,1.547,0,1,0,0,3.095h2.344a1.547,1.547,0,1,0,0-3.095Z" transform="translate(-190.234 -334.98)" fill="#a89c9a"/>
    <path id="Path_2002" data-name="Path 2002" d="M204.3,388.111h-2.344a1.557,1.557,0,0,1-1.562-1.547,1.534,1.534,0,0,1,.025-.276,1.533,1.533,0,0,0-.416,1.05,1.557,1.557,0,0,0,1.563,1.547h2.344a1.561,1.561,0,0,0,1.537-1.271A1.566,1.566,0,0,1,204.3,388.111Z" transform="translate(-190.234 -344.769)" fill="#a89c9a"/>
    <path id="Path_2003" data-name="Path 2003" d="M132.891,184h-12.5a.389.389,0,0,0-.391.387v7.737a.389.389,0,0,0,.391.387h12.5a.389.389,0,0,0,.391-.387v-7.737A.389.389,0,0,0,132.891,184Z" transform="translate(-114.141 -152.263)" fill="#cdc6c5"/>
    <rect id="Rectangle_373" data-name="Rectangle 373" width="11.719" height="6.963" transform="translate(6.641 32.51)" fill="#dad5d4"/>
    <g id="Group_813" data-name="Group 813" transform="translate(19.434 25.547)">
      <path id="Path_2004" data-name="Path 2004" d="M431.439,56.774h-.049a.387.387,0,1,1,0-.774h.049a.387.387,0,1,1,0,.774Z" transform="translate(-429.389 -56)" fill="#9968bd"/>
      <path id="Path_2005" data-name="Path 2005" d="M463.439,56.774h-.049a.387.387,0,1,1,0-.774h.049a.387.387,0,1,1,0,.774Z" transform="translate(-459.826 -56)" fill="#9968bd"/>
      <path id="Path_2006" data-name="Path 2006" d="M398.439,56.774h-.049a.387.387,0,1,1,0-.774h.049a.387.387,0,1,1,0,.774Z" transform="translate(-398 -56)" fill="#9968bd"/>
    </g>
    <path id="Path_2007" data-name="Path 2007" d="M316.773,275.056l-2.486-2.462,1.381-1.368a.389.389,0,0,0-.173-.647l-6.077-1.641a.392.392,0,0,0-.48.475l1.657,6.018a.4.4,0,0,0,.653.172l1.381-1.368,2.486,2.462a.4.4,0,0,0,.552,0l1.1-1.094A.384.384,0,0,0,316.773,275.056Z" transform="translate(-293.841 -233.082)" fill="#ffc44f"/>
    <path id="Path_2008" data-name="Path 2008" d="M315.7,276.118l-2.486-2.462-1.381,1.368a.4.4,0,0,1-.653-.172l-1.617-5.873-.146-.039a.392.392,0,0,0-.48.475l1.657,6.018a.4.4,0,0,0,.653.172l1.381-1.368,2.486,2.462a.4.4,0,0,0,.552,0l.586-.58A.4.4,0,0,1,315.7,276.118Z" transform="translate(-293.841 -233.083)" fill="#ffb357"/>
    <g id="Group_814" data-name="Group 814" transform="translate(5.859 30.189)">
      <path id="Path_2009" data-name="Path 2009" d="M128.2,152.774h-7.812a.387.387,0,1,1,0-.774H128.2a.387.387,0,1,1,0,.774Z" transform="translate(-120 -152)" fill="#cdc6c5"/>
      <path id="Path_2010" data-name="Path 2010" d="M315.906,152.774h-3.516a.387.387,0,1,1,0-.774h3.516a.387.387,0,1,1,0,.774Z" transform="translate(-302.625 -152)" fill="#cdc6c5"/>
    </g>
  </g>
</svg>
