<svg xmlns="http://www.w3.org/2000/svg" width="25" height="25" viewBox="0 0 25 25">
  <g id="share" transform="translate(-0.004)">
    <path id="Path_1975" data-name="Path 1975" d="M146.535,7.271,139.764.24a.781.781,0,0,0-1.344.542V4.167h-.26A10.168,10.168,0,0,0,128,14.323v1.563a.771.771,0,0,0,.608.747.746.746,0,0,0,.172.021.807.807,0,0,0,.714-.444,8.545,8.545,0,0,1,7.685-4.751h1.237v3.385a.781.781,0,0,0,1.344.542l6.771-7.031A.78.78,0,0,0,146.535,7.271Zm0,0" transform="translate(-121.75 0)" fill="#2196f3"/>
    <path id="Path_1976" data-name="Path 1976" d="M21.879,106.173H3.129A3.129,3.129,0,0,1,0,103.048V88.465A3.129,3.129,0,0,1,3.129,85.34H6.254a1.042,1.042,0,1,1,0,2.083H3.129a1.043,1.043,0,0,0-1.042,1.042v14.583a1.043,1.043,0,0,0,1.042,1.042h18.75a1.043,1.043,0,0,0,1.042-1.042V94.715a1.042,1.042,0,1,1,2.083,0v8.333A3.129,3.129,0,0,1,21.879,106.173Zm0,0" transform="translate(0 -81.173)" fill="#607d8b"/>
  </g>
</svg>
