<svg xmlns="http://www.w3.org/2000/svg" width="25" height="29.167" viewBox="0 0 25 29.167">
  <g id="w" transform="translate(-64)">
    <path id="Path_1938" data-name="Path 1938" d="M87.1,0H65.9C64.978,0,64,.753,64,1.505V20.323l10.761,8.844H87.1A1.89,1.89,0,0,0,89,27.614V1.505C89,.753,88.022,0,87.1,0Z" transform="translate(0)" fill="#1364d8"/>
    <path id="Path_1939" data-name="Path 1939" d="M87.1,0H65.9C64.978,0,64,.753,64,1.505V20.323l10.761,8.844H87.1A1.89,1.89,0,0,0,89,27.614V1.505C89,.753,88.022,0,87.1,0Z" transform="translate(0)" fill="#1364d8"/>
    <path id="Path_1940" data-name="Path 1940" d="M91.237,22.581V1.505c0-.753-.978-1.505-1.9-1.505h-21.2A1.645,1.645,0,0,0,66.4,1.411" transform="translate(-2.237)" fill="#1364d8"/>
    <path id="Path_1946" data-name="Path 1946" d="M65.087,20.323h0V1.505A1.546,1.546,0,0,1,66.609,0H65.9C64.978,0,64,.753,64,1.505V20.323Z" transform="translate(0)" fill="#1364d8"/>
    <g id="Group_804" data-name="Group 804" transform="translate(70.25 9.556)">
      <path id="Path_1947" data-name="Path 1947" d="M161.7,132.468,159.2,124h1.359l1.2,4.234c.272,1.082.543,2.352.707,2.823h.054c.163-.47.489-1.741.815-2.87l1.3-4.187h1.3l1.2,4.234c.272,1.035.543,2.352.707,2.823h.054c.217-.941.489-1.788.815-2.87l1.3-4.187h1.3l-2.772,8.468h-1.3l-1.25-4.375a20.275,20.275,0,0,1-.652-2.681h-.109a15.17,15.17,0,0,1-.761,2.681l-1.413,4.375Z" transform="translate(-158.983 -123.765)" fill="#fff"/>
      <path id="Path_1948" data-name="Path 1948" d="M165.456,128.938h-1.3a.356.356,0,0,1-.272-.188l-1.359-4.657c-.109-.47-.217-.847-.326-1.223a11.221,11.221,0,0,1-.489,1.505l-1.413,4.375c0,.141-.109.188-.217.188h-1.3a.356.356,0,0,1-.272-.188l-2.5-8.468a.254.254,0,0,1,.054-.188.3.3,0,0,1,.217-.094h1.359a.356.356,0,0,1,.272.188l1.2,4.234c.109.47.272.988.38,1.458a1.762,1.762,0,0,1,.109.517c0-.094.054-.141.054-.235.163-.517.326-1.176.489-1.741l1.3-4.187a.356.356,0,0,1,.272-.188h1.3a.356.356,0,0,1,.272.188l1.2,4.234c.163.517.272,1.129.435,1.694a.159.159,0,0,0,.054.141c.109-.329.217-.706.326-1.082.054-.235.163-.517.217-.8l1.3-4.187a.356.356,0,0,1,.272-.188h1.3a.3.3,0,0,1,.217.094.254.254,0,0,1,.054.188l-2.772,8.468A.793.793,0,0,1,165.456,128.938Zm-1.087-.47h.924l2.663-8h-.707L166,124.516c-.054.282-.163.517-.217.8-.217.753-.38,1.364-.543,2.07,0,.094-.163.188-.272.188s-.272-.094-.272-.188c-.054-.235-.163-.659-.272-1.176s-.272-1.129-.38-1.694l-1.3-4.046h-.924l-1.25,4.046c-.163.565-.326,1.176-.489,1.741a6.918,6.918,0,0,1-.326,1.129c-.054.188-.489.188-.543,0-.109-.282-.217-.8-.38-1.411a14.4,14.4,0,0,0-.38-1.458l-1.087-4.046H156.6l2.337,8h.924l1.359-4.187a16.376,16.376,0,0,0,.761-2.681c0-.094.109-.188.272-.188s.272.094.272.188a13.124,13.124,0,0,0,.543,2.352Z" transform="translate(-156 -120)" fill="#fff"/>
    </g>
    <path id="Rectangle_375" data-name="Rectangle 375" d="M0,0H13.111a0,0,0,0,1,0,0V9.761a0,0,0,0,1,0,0H2a2,2,0,0,1-2-2V0A0,0,0,0,1,0,0Z" transform="translate(64 19.405)" fill="#1364d8"/>
  </g>
</svg>
