<svg id="menu" xmlns="http://www.w3.org/2000/svg" width="30" height="30" viewBox="0 0 30 30">
  <path id="Path_1921" data-name="Path 1921" d="M11.562,0H2.188A2.19,2.19,0,0,0,0,2.188V7.813A2.19,2.19,0,0,0,2.188,10h9.375A2.19,2.19,0,0,0,13.75,7.813V2.188A2.19,2.19,0,0,0,11.562,0Z" fill="#2196f3"/>
  <path id="Path_1922" data-name="Path 1922" d="M11.562,10H2.188A2.19,2.19,0,0,0,0,12.187V25.312A2.19,2.19,0,0,0,2.188,27.5h9.375a2.19,2.19,0,0,0,2.188-2.188V12.187A2.19,2.19,0,0,0,11.562,10Z" transform="translate(0 2.5)" fill="#1976d2"/>
  <path id="Path_1923" data-name="Path 1923" d="M6.875,0H2.188A2.19,2.19,0,0,0,0,2.188V7.813A2.19,2.19,0,0,0,2.188,10H6.875Z" fill="#2196f3"/>
  <path id="Path_1924" data-name="Path 1924" d="M6.875,10H2.188A2.19,2.19,0,0,0,0,12.187V25.312A2.19,2.19,0,0,0,2.188,27.5H6.875Z" transform="translate(0 2.5)" fill="#1976d2"/>
  <path id="Path_1925" data-name="Path 1925" d="M24.562,16H15.187A2.19,2.19,0,0,0,13,18.187v5.625A2.19,2.19,0,0,0,15.187,26h9.375a2.19,2.19,0,0,0,2.188-2.188V18.187A2.19,2.19,0,0,0,24.562,16Z" transform="translate(3.25 4)" fill="#2196f3"/>
  <path id="Path_1926" data-name="Path 1926" d="M24.562,0H15.187A2.19,2.19,0,0,0,13,2.188V15.312A2.19,2.19,0,0,0,15.187,17.5h9.375a2.19,2.19,0,0,0,2.188-2.188V2.188A2.19,2.19,0,0,0,24.562,0Z" transform="translate(3.25)" fill="#1976d2"/>
  <path id="Path_1927" data-name="Path 1927" d="M19.875,16H15.187A2.19,2.19,0,0,0,13,18.187v5.625A2.19,2.19,0,0,0,15.187,26h4.687Z" transform="translate(3.25 4)" fill="#2196f3"/>
  <path id="Path_1928" data-name="Path 1928" d="M19.875,0H15.187A2.19,2.19,0,0,0,13,2.188V15.312A2.19,2.19,0,0,0,15.187,17.5h4.687Z" transform="translate(3.25)" fill="#1976d2"/>
</svg>
