<svg xmlns="http://www.w3.org/2000/svg" width="56" height="75" viewBox="0 0 56 75">
  <g id="MenuClose" transform="translate(-369 -20)">
    <path id="Rectangle_806" data-name="Rectangle 806" d="M0,0H46A10,10,0,0,1,56,10V65A10,10,0,0,1,46,75H0a0,0,0,0,1,0,0V0A0,0,0,0,1,0,0Z" transform="translate(369 20)" fill="#e8e8e8"/>
    <g id="Group_31791" data-name="Group 31791" transform="translate(140.672 -195.098)">
      <g id="DXhMdY.tif" transform="translate(217.078 228.989)">
        <g id="Group_31785" data-name="Group 31785" transform="translate(0 0)">
          <path id="Path_12191" data-name="Path 12191" d="M365.691,258c.011,1.861.011,3.723.037,5.584a5.743,5.743,0,0,0,4.638,5.794,5.4,5.4,0,0,0,1.067.1c1.9.009,3.8,0,5.815,0V258Z" transform="translate(-345.67 -258)" fill="#374c5a"/>
          <path id="Path_12192" data-name="Path 12192" d="M377.393,568.628q-.017-5.248-.034-10.5c0-.289,0-.577,0-.927H365.871c0,.562,0,1.116,0,1.67.012,1.5-.063,3.013.062,4.506a5.6,5.6,0,0,0,4.569,5.13,2.142,2.142,0,0,1,.306.118Z" transform="translate(-345.816 -516.895)" fill="#374c5a"/>
          <path id="Path_12195" data-name="Path 12195" d="M526.365,568.594V557.165H515.007c-.013.015-.067.048-.067.082,0,2.131-.153,4.279.057,6.39a5.359,5.359,0,0,0,3.964,4.7c.271.092.546.172.819.258Z" transform="translate(-474.766 -516.861)" fill="#374c5a"/>
          <path id="Path_12197" data-name="Path 12197" d="M377.318,407.549H365.941a4.551,4.551,0,0,0-.053.479c0,1.705-.025,3.411,0,5.116a5.626,5.626,0,0,0,5.272,5.816c2.022.15,4.064.028,6.154.028Z" transform="translate(-345.831 -387.402)" fill="#374c5a"/>
          <path id="Path_12198" data-name="Path 12198" d="M515.126,407.644c0,2.232-.154,4.439.04,6.616a5.349,5.349,0,0,0,4.92,4.748c2.108.152,4.236.031,6.395.031v-11.4Z" transform="translate(-474.922 -387.484)" fill="#374c5a"/>
        </g>
      </g>
      <path id="Path_12200" data-name="Path 12200" d="M517.036,522.6l4.1-4.1,6.05,6.016,5.977-5.972,3.975,3.974-5.9,5.932,6.024,6.014-4.077,4.059-5.919-5.874-6.076,6.047-4.061-4.057,5.938-5.971Z" transform="translate(-259.816 -294.024)" fill="#20bcf6"/>
    </g>
  </g>
</svg>
