<svg xmlns="http://www.w3.org/2000/svg" width="21.25" height="30" viewBox="0 0 21.25 30">
  <g id="unlock" transform="translate(-74.667)">
    <path id="Path_1935" data-name="Path 1935" d="M125.458,0a8.135,8.135,0,0,0-8.125,8.125v5a.625.625,0,0,0,.625.625h2.5a.625.625,0,0,0,.625-.625v-5a4.375,4.375,0,1,1,8.75,0v2.5a.625.625,0,0,0,.625.625h2.5a.625.625,0,0,0,.625-.625v-2.5A8.135,8.135,0,0,0,125.458,0Z" transform="translate(-40.166)" fill="#8aceef"/>
    <path id="Path_1936" data-name="Path 1936" d="M77.792,213.333h15a3.125,3.125,0,0,1,3.125,3.125v11.25a3.125,3.125,0,0,1-3.125,3.125h-15a3.125,3.125,0,0,1-3.125-3.125v-11.25A3.125,3.125,0,0,1,77.792,213.333Z" transform="translate(0 -200.833)" fill="#20c0fd"/>
    <path id="Path_1937" data-name="Path 1937" d="M208.917,280.247a3.125,3.125,0,1,0-4.511,2.787l-.483,3.375a.625.625,0,0,0,.619.712h2.5a.625.625,0,0,0,.625-.712l-.483-3.375A3.137,3.137,0,0,0,208.917,280.247Z" transform="translate(-120.5 -260.872)" fill="#455a64"/>
  </g>
</svg>
