<svg xmlns="http://www.w3.org/2000/svg" width="26.119" height="50" viewBox="0 0 26.119 50">
  <g id="_5-HR" data-name="5-HR" transform="translate(-1807 -41)">
    <g id="Group_25623" data-name="Group 25623" transform="translate(1257.211 -87)">
      <path id="Path_3466" data-name="Path 3466" d="M687.269,139.81l-1.227,3.118-2.264.021c-.348,0-.567-1.144-.641-1.384-.2-.641-.428-1.27-.679-1.891-.176-.436-.588-1.1-.408-1.58q1.894-5.059,3.851-10.093h5.856a9.448,9.448,0,0,0-.506,1.33l-.551,1.446q-.551,1.445-1.1,2.89c-.716,1.875-1.5,3.736-2.154,5.631Q687.355,139.553,687.269,139.81Z" transform="translate(-119.284)" fill="#c42653"/>
      <path id="Path_3467" data-name="Path 3467" d="M575.89,296.062c-.152,5.882.128,11.791-.09,17.665a2.634,2.634,0,0,1-1.956,1.861c-3.313.239-6.793-.012-10.153.073-3.817,0-7.634.018-11.451,0a2.466,2.466,0,0,1-2.24-1.679c-.453-5.7-.008-11.572-.169-17.335.017-4.453,0-8.917,0-13.37.055-2.548,2.474-2.809,4.489-2.6,1.445-.033,2.89-.033,4.346-.042.335.8.665,1.6.919,2.424-1.706-.269-2.076,1.2-.821,1.491,2.679.025,5.376-.015,8.07,0a.713.713,0,0,0,.764-.755c-.051-1.042-1.4-.662-2.11-.718a15.741,15.741,0,0,1-.9-2.424c3.047.051,6.133-.155,9.146.082l.108-.022c2.947.864,1.788,4.267,2.044,6.56C575.789,290.2,575.891,293.14,575.89,296.062Z" transform="translate(0 -137.695)" fill="#fee667"/>
      <path id="Path_3468" data-name="Path 3468" d="M594.622,146.284c-.846-.044-5.541-.142-5.541-.142a21.38,21.38,0,0,1-1.217-3.051c-1.875-4.99-3.8-9.963-5.714-14.932h5.855c1.734,4.743,3.737,9.385,5.367,14.15.555.993.8,2.172,1.314,3.222C594.721,145.8,595.167,146.311,594.622,146.284Z" transform="translate(-29.196 -0.144)" fill="#fe3860"/>
      <path id="Path_3469" data-name="Path 3469" d="M611.243,444.352a.192.192,0,0,1-.081.2C611.158,444.471,611.154,444.393,611.243,444.352Z" transform="translate(-55.368 -285.408)" fill="#fefefe"/>
      <path id="Path_3470" data-name="Path 3470" d="M666.126,462.519l-.095-.058a.171.171,0,0,1,.087-.026A.143.143,0,0,1,666.126,462.519Z" transform="translate(-104.872 -301.723)" fill="#2ccd8e"/>
      <path id="Path_3471" data-name="Path 3471" d="M698.992,462.431a.132.132,0,0,1,.073.024.09.09,0,0,1-.072.057A.14.14,0,0,1,698.992,462.431Z" transform="translate(-134.604 -301.718)" fill="#2ccd8e"/>
      <path id="Path_3472" data-name="Path 3472" d="M694.87,265.758" transform="translate(-130.89 -124.283)" fill="#e1335d"/>
      <g id="Group_25623-2" data-name="Group 25623" transform="translate(552.921 153.845)">
        <path id="Path_3473" data-name="Path 3473" d="M590.93,392.223v10.271h-1.907v-4.4h-5.311v4.4H581.8V392.223h1.907v4.24h5.311v-4.24Z" transform="translate(-581.804 -392.223)"/>
        <path id="Path_3474" data-name="Path 3474" d="M710.024,402.494l-2.1-3.008a3.916,3.916,0,0,1-.4.015h-2.318v2.993H703.3V392.223h4.226a5.687,5.687,0,0,1,2.326.44,3.381,3.381,0,0,1,1.519,1.262,3.53,3.53,0,0,1,.528,1.951,3.482,3.482,0,0,1-.565,2,3.361,3.361,0,0,1-1.621,1.247l2.362,3.375Zm-.69-8.128a2.93,2.93,0,0,0-1.893-.528h-2.23v4.093h2.23a2.9,2.9,0,0,0,1.893-.535,1.862,1.862,0,0,0,.646-1.519A1.841,1.841,0,0,0,709.334,394.365Z" transform="translate(-691.419 -392.223)"/>
      </g>
      <rect id="Rectangle_783" data-name="Rectangle 783" width="20.346" height="1.858" rx="0.929" transform="translate(552.646 170.452)" fill="#865216"/>
      <rect id="Rectangle_784" data-name="Rectangle 784" width="11.933" height="1.858" rx="0.929" transform="translate(556.852 173.289)" fill="#865216"/>
    </g>
  </g>
</svg>
