<svg xmlns="http://www.w3.org/2000/svg" width="50" height="50" viewBox="0 0 50 50">
  <g id="team" transform="translate(-1)">
    <path id="Path_2124" data-name="Path 2124" d="M186.2,100.742H172.471A1.468,1.468,0,0,1,171,99.277V98.3a8.333,8.333,0,0,1,16.667,0v.977A1.468,1.468,0,0,1,186.2,100.742Z" transform="translate(-153.333 -81.211)" fill="#435569"/>
    <path id="Path_2125" data-name="Path 2125" d="M262.863,100.742a1.468,1.468,0,0,0,1.471-1.465V98.3A8.327,8.327,0,0,0,256,90v10.742Z" transform="translate(-230 -81.211)" fill="#435569"/>
    <path id="Path_2126" data-name="Path 2126" d="M201.882,11.719a5.859,5.859,0,1,1,5.882-5.859A5.878,5.878,0,0,1,201.882,11.719Z" transform="translate(-175.882)" fill="#ffd0af"/>
    <path id="Path_2127" data-name="Path 2127" d="M256,0V11.719A5.859,5.859,0,1,0,256,0Z" transform="translate(-230)" fill="#fed0af"/>
    <path id="Path_2128" data-name="Path 2128" d="M101.236,256.742H87.511a1.468,1.468,0,0,1-1.471-1.465V254.3a8.333,8.333,0,0,1,16.667,0v.977A1.468,1.468,0,0,1,101.236,256.742Z" transform="translate(-76.703 -221.977)" fill="#b3babf"/>
    <path id="Path_2129" data-name="Path 2129" d="M177.9,256.742a1.468,1.468,0,0,0,1.471-1.465V254.3a8.327,8.327,0,0,0-8.333-8.3v10.742Z" transform="translate(-153.369 -221.977)" fill="#b3babf"/>
    <path id="Path_2130" data-name="Path 2130" d="M116.921,167.719a5.859,5.859,0,1,1,5.882-5.859A5.878,5.878,0,0,1,116.921,167.719Z" transform="translate(-99.251 -140.766)" fill="#ffd0af"/>
    <path id="Path_2131" data-name="Path 2131" d="M171.04,156v11.719a5.859,5.859,0,1,0,0-11.719Z" transform="translate(-153.369 -140.766)" fill="#fed0af"/>
    <path id="Path_2132" data-name="Path 2132" d="M16.2,412.742H2.471A1.468,1.468,0,0,1,1,411.277V410.3a8.333,8.333,0,0,1,16.667,0v.977A1.468,1.468,0,0,1,16.2,412.742Z" transform="translate(0 -362.742)" fill="#178cfa"/>
    <path id="Path_2133" data-name="Path 2133" d="M92.863,412.742a1.468,1.468,0,0,0,1.471-1.465V410.3A8.327,8.327,0,0,0,86,402v10.742Z" transform="translate(-76.667 -362.742)" fill="#008cfa"/>
    <path id="Path_2134" data-name="Path 2134" d="M31.882,323.719a5.859,5.859,0,1,1,5.882-5.859A5.878,5.878,0,0,1,31.882,323.719Z" transform="translate(-22.549 -281.531)" fill="#ffd0af"/>
    <path id="Path_2135" data-name="Path 2135" d="M86,312v11.719A5.859,5.859,0,1,0,86,312Z" transform="translate(-76.667 -281.531)" fill="#fed0af"/>
    <path id="Path_2136" data-name="Path 2136" d="M271.16,256.742H257.435a1.468,1.468,0,0,1-1.471-1.465V254.3a8.333,8.333,0,0,1,16.667,0v.977A1.468,1.468,0,0,1,271.16,256.742Z" transform="translate(-229.968 -221.977)" fill="#e0c128"/>
    <path id="Path_2137" data-name="Path 2137" d="M347.827,256.742a1.468,1.468,0,0,0,1.471-1.465V254.3a8.327,8.327,0,0,0-8.333-8.3v10.742Z" transform="translate(-306.634 -221.977)" fill="#e0c12a"/>
    <path id="Path_2138" data-name="Path 2138" d="M286.846,167.719a5.859,5.859,0,1,1,5.882-5.859A5.878,5.878,0,0,1,286.846,167.719Z" transform="translate(-252.517 -140.766)" fill="#ffd0af"/>
    <path id="Path_2139" data-name="Path 2139" d="M340.964,156v11.719a5.859,5.859,0,1,0,0-11.719Z" transform="translate(-306.634 -140.766)" fill="#fed0af"/>
    <path id="Path_2140" data-name="Path 2140" d="M356.2,412.742H342.471A1.468,1.468,0,0,1,341,411.277V410.3a8.333,8.333,0,0,1,16.667,0v.977A1.468,1.468,0,0,1,356.2,412.742Z" transform="translate(-306.667 -362.742)" fill="#3ddddd"/>
    <path id="Path_2141" data-name="Path 2141" d="M432.863,412.742a1.468,1.468,0,0,0,1.471-1.465V410.3A8.327,8.327,0,0,0,426,402v10.742Z" transform="translate(-383.333 -362.742)" fill="#3ddddd"/>
    <path id="Path_2142" data-name="Path 2142" d="M371.882,323.719a5.859,5.859,0,1,1,5.882-5.859A5.878,5.878,0,0,1,371.882,323.719Z" transform="translate(-329.216 -281.531)" fill="#ffd0af"/>
    <path id="Path_2143" data-name="Path 2143" d="M426,312v11.719A5.859,5.859,0,1,0,426,312Z" transform="translate(-383.333 -281.531)" fill="#fed0af"/>
    <path id="Path_2144" data-name="Path 2144" d="M186.2,412.742H172.471A1.468,1.468,0,0,1,171,411.277V410.3a8.333,8.333,0,0,1,16.667,0v.977A1.468,1.468,0,0,1,186.2,412.742Z" transform="translate(-153.333 -362.742)" fill="#ff823c"/>
    <path id="Path_2145" data-name="Path 2145" d="M262.863,412.742a1.468,1.468,0,0,0,1.471-1.465V410.3A8.327,8.327,0,0,0,256,402v10.742Z" transform="translate(-230 -362.742)" fill="#fd823c"/>
    <path id="Path_2146" data-name="Path 2146" d="M201.882,323.719a5.859,5.859,0,1,1,5.882-5.859A5.878,5.878,0,0,1,201.882,323.719Z" transform="translate(-175.882 -281.531)" fill="#ffd0af"/>
    <path id="Path_2147" data-name="Path 2147" d="M256,312v11.719A5.859,5.859,0,1,0,256,312Z" transform="translate(-230 -281.531)" fill="#fed0af"/>
  </g>
</svg>
