<svg xmlns="http://www.w3.org/2000/svg" width="10.021" height="12.524" viewBox="0 0 10.021 12.524">
  <path id="Path_263471" data-name="Path 263471" d="M54.1.354a.348.348,0,0,1,.347-.348h3.473a.348.348,0,0,1,.347.348v.859H54.1Zm5.711,11.679a.532.532,0,0,1-.535.5H53.049a.537.537,0,0,1-.535-.5l-.533-7.791h8.394l-.568,7.793Zm1.384-8.5H51.171V2.726a.808.808,0,0,1,.807-.808h8.406a.808.808,0,0,1,.807.808v.807Zm-6.624,7.139a.353.353,0,1,0,.706,0V5.725a.353.353,0,1,0-.705,0v4.947Zm2.517,0a.353.353,0,0,0,.706,0V5.725a.353.353,0,1,0-.706,0Z" transform="translate(-51.171 -0.006)" fill="#e04f5f" fill-rule="evenodd"/>
</svg>
