<svg id="svgexport-6_88_" data-name="svgexport-6 (88)" xmlns="http://www.w3.org/2000/svg" width="14.178" height="10.619" viewBox="0 0 14.178 10.619">
  <path id="Path_263473" data-name="Path 263473" d="M8.274,175.342a2.133,2.133,0,0,1-2.37,0l-5.81-3.873c-.032-.021-.064-.044-.094-.067v6.347a1.3,1.3,0,0,0,1.305,1.305H12.873a1.3,1.3,0,0,0,1.305-1.305V171.4c-.031.023-.062.046-.095.067Z" transform="translate(0 -168.435)" fill="#2dbecd"/>
  <path id="Path_263474" data-name="Path 263474" d="M.555,66.608l5.81,3.873a1.3,1.3,0,0,0,1.448,0l5.81-3.873a1.244,1.244,0,0,0,.555-1.038,1.306,1.306,0,0,0-1.3-1.3H1.3A1.306,1.306,0,0,0,0,65.571a1.244,1.244,0,0,0,.555,1.037Z" transform="translate(0 -64.266)" fill="#2dbecd"/>
</svg>
