<svg xmlns="http://www.w3.org/2000/svg" width="37" height="22" viewBox="0 0 37 22">
  <g id="Group_57718" data-name="Group 57718" transform="translate(-139 -153)">
    <rect id="Rectangle_1521" data-name="Rectangle 1521" width="37" height="22" rx="2" transform="translate(139 153)" fill="#e04f5f"/>
    <g id="Inactive" transform="translate(150 157)">
      <rect id="Rectangle_1507" data-name="Rectangle 1507" width="15" height="15" fill="none"/>
      <g id="Group_31920" data-name="Group 31920" transform="translate(1.267 1.25)">
        <g id="Group_31921" data-name="Group 31921">
          <path id="Path_12298" data-name="Path 12298" d="M11.623,0h.292a.764.764,0,0,1,.5.444.722.722,0,0,1-.219.808Q9.778,3.676,7.359,6.1A.96.96,0,0,1,7.2,6.21v.079a.973.973,0,0,1,.162.108q2.4,2.4,4.795,4.805a1.941,1.941,0,0,1,.166.178.69.69,0,0,1-.273,1.061l-.131.058h-.292a4.369,4.369,0,0,1-.511-.382Q8.738,9.751,6.374,7.373c-.044-.045-.091-.087-.164-.156a1.734,1.734,0,0,1-.129.167q-2.361,2.37-4.727,4.734a4.356,4.356,0,0,1-.511.382H.552A.819.819,0,0,1,0,11.947v-.293a4.17,4.17,0,0,1,.37-.5Q2.736,8.766,5.114,6.39c.044-.045.087-.091.149-.157-.062-.052-.115-.09-.16-.135Q2.734,3.724.37,1.347A4.165,4.165,0,0,1,0,.846V.553A.816.816,0,0,1,.552,0H.844a4.368,4.368,0,0,1,.512.382q2.372,2.364,4.731,4.74a1.5,1.5,0,0,1,.136.2,2.481,2.481,0,0,1,.157-.2Q8.75,2.744,11.124.371a4.16,4.16,0,0,1,.5-.371" fill="#fff"/>
        </g>
      </g>
    </g>
  </g>
</svg>
