<svg id="svgexport-6_90_" data-name="svgexport-6 (90)" xmlns="http://www.w3.org/2000/svg" width="12.126" height="12.126" viewBox="0 0 12.126 12.126">
  <path id="Path_263476" data-name="Path 263476" d="M10.37,1H3.756A2.759,2.759,0,0,0,1,3.756V8.165a2.761,2.761,0,0,0,2.2,2.7v1.709a.551.551,0,0,0,.857.459l3.167-2.112H10.37a2.759,2.759,0,0,0,2.756-2.756V3.756A2.759,2.759,0,0,0,10.37,1Zm-1.1,6.614H4.858a.551.551,0,0,1,0-1.1H9.268a.551.551,0,0,1,0,1.1Zm1.1-2.2H3.756a.551.551,0,0,1,0-1.1H10.37a.551.551,0,1,1,0,1.1Z" transform="translate(-1 -1)" fill="#2dbecd"/>
</svg>
