<svg id="svgexport-6_91_" data-name="svgexport-6 (91)" xmlns="http://www.w3.org/2000/svg" width="11.361" height="13.633" viewBox="0 0 11.361 13.633">
  <g id="Group_57661" data-name="Group 57661" transform="translate(0 0)">
    <path id="Path_263477" data-name="Path 263477" d="M13.008,9.607A3.8,3.8,0,0,1,11.657,6.7V5.112A3.979,3.979,0,0,0,8.248,1.182V.568a.568.568,0,0,0-1.136,0v.613A3.979,3.979,0,0,0,3.7,5.112V6.7A3.809,3.809,0,0,1,2.348,9.612a.994.994,0,0,0,.646,1.749h9.373a.994.994,0,0,0,.641-1.754Z" transform="translate(-2 0)" fill="#2dbecd"/>
    <path id="Path_263478" data-name="Path 263478" d="M10.413,22.7A2.134,2.134,0,0,0,12.5,21H8.326A2.134,2.134,0,0,0,10.413,22.7Z" transform="translate(-4.733 -9.071)" fill="#2dbecd"/>
  </g>
</svg>
