<svg id="svgexport-6_92_" data-name="svgexport-6 (92)" xmlns="http://www.w3.org/2000/svg" width="16.436" height="10.958" viewBox="0 0 16.436 10.958">
  <g id="Group_57663" data-name="Group 57663" transform="translate(0 0)">
    <g id="Group_57662" data-name="Group 57662" transform="translate(0 0)">
      <path id="Path_263479" data-name="Path 263479" d="M13.7,94.921a1.368,1.368,0,0,0,1.363-1.37l.007-6.849a1.369,1.369,0,0,0-1.37-1.37H2.739A1.365,1.365,0,0,0,1.37,86.7v6.849a1.369,1.369,0,0,0,1.37,1.37H0v1.37H16.436v-1.37ZM8.9,92.5V91a4.631,4.631,0,0,0-4.109,1.863A4.65,4.65,0,0,1,8.9,88.846V87.388l2.739,2.554Z" transform="translate(0 -85.333)" fill="#2dbecd"/>
    </g>
  </g>
</svg>
