<svg id="svgexport-6_89_" data-name="svgexport-6 (89)" xmlns="http://www.w3.org/2000/svg" width="13.899" height="12.126" viewBox="0 0 13.899 12.126">
  <path id="Path_263475" data-name="Path 263475" d="M10.908,31.26H2.991A3.028,3.028,0,0,0,0,34.317v3.028A3.028,3.028,0,0,0,2.991,40.4H8l3.638,2.985V40.309A3.045,3.045,0,0,0,13.9,37.344V34.317A3.028,3.028,0,0,0,10.908,31.26ZM3.2,37.136a1.914,1.914,0,0,1-.874-.188l.149-.6a1.643,1.643,0,0,0,.725.2c.255,0,.36-.089.36-.227s-.083-.2-.4-.31c-.559-.188-.775-.492-.769-.814,0-.5.432-.885,1.1-.885a1.814,1.814,0,0,1,.764.155l-.149.581a1.325,1.325,0,0,0-.587-.155c-.2,0-.321.083-.321.221s.105.194.437.31c.515.177.73.437.736.836C4.374,36.765,3.976,37.136,3.2,37.136Zm5.772-.055H8.154V35.609c0-.393-.128-.62-.4-.62a.411.411,0,0,0-.387.294.7.7,0,0,0-.033.216v1.583H6.515V35.565c0-.343-.122-.576-.388-.576a.428.428,0,0,0-.393.3.559.559,0,0,0-.033.21v1.577H4.883V35.238c0-.337-.011-.625-.022-.863h.708l.039.365h.017a.939.939,0,0,1,.819-.426.767.767,0,0,1,.741.459H7.2a1.208,1.208,0,0,1,.349-.326.977.977,0,0,1,.515-.133c.52,0,.913.365.913,1.173v1.594Zm1.388.055a1.914,1.914,0,0,1-.874-.188l.149-.6a1.643,1.643,0,0,0,.725.2c.255,0,.36-.089.36-.227s-.083-.2-.4-.31c-.559-.188-.775-.492-.769-.814,0-.5.432-.885,1.1-.885a1.815,1.815,0,0,1,.764.155l-.149.581a1.325,1.325,0,0,0-.587-.155c-.2,0-.321.083-.321.221s.105.194.437.31c.515.177.73.437.736.836C11.534,36.765,11.135,37.136,10.361,37.136Z" transform="translate(0 -31.26)" fill="#2dbecd"/>
</svg>
