<svg id="archive" xmlns="http://www.w3.org/2000/svg" width="50" height="50" viewBox="0 0 50 50">
  <path id="Path_2090" data-name="Path 2090" d="M8.887,188.789l-3.479,2.93L0,188.789,5.957,180l2.93,2.93Zm0,0" transform="translate(0 -162.422)" fill="#61729b"/>
  <path id="Path_2091" data-name="Path 2091" d="M421,188.789l3.479,2.93,5.408-2.93L423.93,180,421,182.93Zm0,0" transform="translate(-379.887 -162.422)" fill="#61729b"/>
  <path id="Path_2092" data-name="Path 2092" d="M147.367,0V16.113H121V2.93h12.392l.791-1.172L135.355,0Zm0,0" transform="translate(-109.184)" fill="#ffda2d"/>
  <path id="Path_2093" data-name="Path 2093" d="M269.184,0V16.113H256V1.758L257.172,0Zm0,0" transform="translate(-231)" fill="#feda31"/>
  <path id="Path_2094" data-name="Path 2094" d="M123.227,60V76.113H91V62.93h18.252L111.215,60Zm0,0" transform="translate(-82.113 -54.141)" fill="#fdbf00"/>
  <path id="Path_2095" data-name="Path 2095" d="M272.113,60V76.113H256V62.93h2.139L260.1,60Zm0,0" transform="translate(-231 -54.141)" fill="#febf2c"/>
  <path id="Path_2096" data-name="Path 2096" d="M99.086,120v21.973H61V122.93H85.111L87.074,120Zm0,0" transform="translate(-55.043 -108.281)" fill="#ffda2d"/>
  <path id="Path_2097" data-name="Path 2097" d="M275.043,120v21.973H256V122.93h5.068l1.963-2.93Zm0,0" transform="translate(-231 -108.281)" fill="#feda31"/>
  <path id="Path_2098" data-name="Path 2098" d="M50,270v23.633H0V270H19.229l.967,2.93H29.8l.967-2.93Zm0,0" transform="translate(0 -243.633)" fill="#61729b"/>
  <path id="Path_2099" data-name="Path 2099" d="M281,270v23.633H256v-20.7h4.8l.967-2.93Zm0,0" transform="translate(-231 -243.633)" fill="#61729b"/>
  <path id="Path_2100" data-name="Path 2100" d="M181,360h14.648v2.93H181Zm0,0" transform="translate(-163.324 -324.844)" fill="#ffda2d"/>
  <path id="Path_2101" data-name="Path 2101" d="M256,360h7.324v2.93H256Zm0,0" transform="translate(-231 -324.844)" fill="#feda31"/>
</svg>
