<svg xmlns="http://www.w3.org/2000/svg" width="47" height="50" viewBox="0 0 47 50">
  <g id="insurance" transform="translate(-2)">
    <path id="Path_2047" data-name="Path 2047" d="M51.25,0H16.783A.783.783,0,0,0,16,.781V49.219a.783.783,0,0,0,.783.781H51.25a.783.783,0,0,0,.783-.781V.781A.783.783,0,0,0,51.25,0Z" transform="translate(-3.033)" fill="#ff7b66"/>
    <path id="Path_2048" data-name="Path 2048" d="M21,47.625H40.583L49.2,39.813V7H21Z" transform="translate(-4.117 -1.531)" fill="#fffefe"/>
    <path id="Path_2049" data-name="Path 2049" d="M27,0V7.813a.783.783,0,0,0,.783.781H45.017a.783.783,0,0,0,.783-.781V0Z" transform="translate(-5.417)" fill="#ffe585"/>
    <g id="Group_821" data-name="Group 821" transform="translate(20.8 13.281)">
      <path id="Path_2052" data-name="Path 2052" d="M46.783,49h7.833L46,56.813V49.781A.783.783,0,0,1,46.783,49Z" transform="translate(-30.333 -24)" fill="#f4f4f4"/>
      <path id="Path_2053" data-name="Path 2053" d="M28,17H46.017V29.5H28Z" transform="translate(-26.433 -17)" fill="#ebebeb"/>
      <path id="Path_2054" data-name="Path 2054" d="M34,38h8.617v1.563H34Z" transform="translate(-27.733 -21.594)" fill="#ebebeb"/>
      <path id="Path_2055" data-name="Path 2055" d="M47,38h4.7v1.563H47Z" transform="translate(-30.55 -21.594)" fill="#ebebeb"/>
      <path id="Path_2056" data-name="Path 2056" d="M31,44h8.617v1.563H31Z" transform="translate(-27.083 -22.906)" fill="#ebebeb"/>
      <path id="Path_2057" data-name="Path 2057" d="M44,44h7.05v1.563H44Z" transform="translate(-29.9 -22.906)" fill="#ebebeb"/>
      <path id="Path_2058" data-name="Path 2058" d="M26,50H39.317v1.563H26Z" transform="translate(-26 -24.219)" fill="#ebebeb"/>
    </g>
    <path id="Path_2059" data-name="Path 2059" d="M34,5h7.833V6.563H34Z" transform="translate(-6.933 -1.094)" fill="#fffefa"/>
    <path id="Path_2060" data-name="Path 2060" d="M25.5,25.25l-1.059,5.985a18.742,18.742,0,0,1-7.234,11.741L13.75,45.563l-3.559-2.7A18.744,18.744,0,0,1,3.05,31.192L2,25.25,13.75,19Z" transform="translate(0 -4.156)" fill="#bde660"/>
    <path id="Path_2061" data-name="Path 2061" d="M13.05,41.369A15.577,15.577,0,0,1,7.1,31.642l-.656-3.71,8.269-4.4,8.269,4.4-.663,3.752a15.567,15.567,0,0,1-6.029,9.784l-1.565,1.171Z" transform="translate(-0.963 -5.148)" fill="#fdfefc"/>
    <path id="Path_2064" data-name="Path 2064" d="M15.177,37.887h-.03a.785.785,0,0,1-.6-.312L12.2,34.451l1.253-.937,1.77,2.354,4.847-5.525,1.179,1.029-5.483,6.25a.786.786,0,0,1-.59.266Z" transform="translate(-2.21 -6.637)" fill="#bde660"/>
  </g>
</svg>
