<svg xmlns="http://www.w3.org/2000/svg" width="52.033" height="50" viewBox="0 0 52.033 50">
  <g id="presentation" transform="translate(0 -0.001)">
    <path id="Path_2162" data-name="Path 2162" d="M167.723,15.252V1.8A1.772,1.772,0,0,1,169.472,0h31.489A1.772,1.772,0,0,1,202.71,1.8V26.017a1.772,1.772,0,0,1-1.749,1.794l-31.45-.114a1.794,1.794,0,0,1-1.788-1.794Z" transform="translate(-150.678)" fill="#f2f2f2"/>
    <g id="Group_846" data-name="Group 846" transform="translate(17.045 0.001)">
      <path id="Path_2163" data-name="Path 2163" d="M202.711,3.589H167.724V1.8A1.794,1.794,0,0,1,169.518,0h31.4A1.794,1.794,0,0,1,202.711,1.8Z" transform="translate(-167.724 -0.001)" fill="#06aae9"/>
      <path id="Path_2164" data-name="Path 2164" d="M468.759,118.3a.9.9,0,0,1-.9-.9V104.621a.9.9,0,0,1,1.794,0V117.4A.9.9,0,0,1,468.759,118.3Z" transform="translate(-437.36 -93.183)" fill="#06aae9"/>
      <path id="Path_2165" data-name="Path 2165" d="M433.448,167.867a.9.9,0,0,1-.9-.9v-7.177a.9.9,0,0,1,1.794,0v7.177A.9.9,0,0,1,433.448,167.867Z" transform="translate(-405.638 -142.748)" fill="#06aae9"/>
      <path id="Path_2166" data-name="Path 2166" d="M398.138,152.007a.9.9,0,0,1-.9-.9v-8.971a.9.9,0,0,1,1.794,0v8.971A.9.9,0,0,1,398.138,152.007Z" transform="translate(-373.916 -126.888)" fill="#06aae9"/>
    </g>
    <g id="Group_847" data-name="Group 847" transform="translate(33.193 6.28)">
      <path id="Path_2167" data-name="Path 2167" d="M362.828,199.59a.9.9,0,0,1-.9-.9V195.1a.9.9,0,1,1,1.794,0v3.588A.9.9,0,0,1,362.828,199.59Z" transform="translate(-358.342 -180.75)" fill="#ed1c24"/>
      <path id="Path_2168" data-name="Path 2168" d="M327.517,76.143a.9.9,0,0,1-.538-1.615l3.419-2.564,3.493-6.988a.9.9,0,0,1,1.346-.317l2.829,2.122,3.063-4.593a.9.9,0,0,1,1.493,1l-3.588,5.383a.9.9,0,0,1-1.243.252l-.046-.032-2.729-2.046-3.1,6.215a.908.908,0,0,1-.269.317l-3.588,2.691a.9.9,0,0,1-.538.179Z" transform="translate(-326.62 -61.789)" fill="#ed1c24"/>
    </g>
    <path id="Path_2169" data-name="Path 2169" d="M205.869,63.587H195.1a.9.9,0,1,1,0-1.794h10.765a.9.9,0,0,1,0,1.794Z" transform="translate(-174.47 -55.512)"/>
    <path id="Path_2170" data-name="Path 2170" d="M338.139,63.587h-1.794a.9.9,0,1,1,0-1.794h1.794a.9.9,0,1,1,0,1.794Z" transform="translate(-301.358 -55.512)"/>
    <path id="Path_2171" data-name="Path 2171" d="M17.026,194.393l-3.044,3.044a1.8,1.8,0,0,1-1.268.526H3.588A3.589,3.589,0,0,0,0,201.551v4.495H3.588V217.7H14.354V203.153a1.8,1.8,0,0,1,.48-1.222l4.689-5.045Z" transform="translate(0 -174.637)" fill="#e6e6e6"/>
    <g id="Group_848" data-name="Group 848" transform="translate(0 12.338)">
      <path id="Path_2172" data-name="Path 2172" d="M0,309.055v8.065a1.794,1.794,0,0,0,3.588,0v-8.065Z" transform="translate(0 -289.984)" fill="#ecc19c"/>
      <path id="Path_2173" data-name="Path 2173" d="M176.753,124.087a1.586,1.586,0,0,0-2.243-2.243l-6.953,6.953-.019.019,2.5,2.493.038-.04Z" transform="translate(-150.513 -121.398)" fill="#ecc19c"/>
    </g>
    <path id="Path_2174" data-name="Path 2174" d="M392.923,319.719h-.066a4.272,4.272,0,0,1-4.344-4L388.4,313.3a4.256,4.256,0,0,1,4.161-4.349c.062,0,.125,0,.187,0h.276a4.256,4.256,0,0,1,4.347,4.163c0,.062,0,.125,0,.187l-.1,2.415A4.272,4.272,0,0,1,392.923,319.719Z" transform="translate(-348.932 -277.554)" fill="#333"/>
    <path id="Path_2175" data-name="Path 2175" d="M80.345,259.733a.9.9,0,0,1-.9-.9V248.07a.9.9,0,1,1,1.794,0v10.765A.9.9,0,0,1,80.345,259.733Z" transform="translate(-71.374 -222.053)" fill="#0378a3"/>
    <path id="Path_2176" data-name="Path 2176" d="M198.716,319.719h-.066a4.272,4.272,0,0,1-4.344-4L194.2,313.3a4.256,4.256,0,0,1,4.161-4.349c.062,0,.125,0,.187,0h.276a4.256,4.256,0,0,1,4.347,4.163c0,.062,0,.125,0,.187l-.1,2.415a4.272,4.272,0,0,1-4.347,4Z" transform="translate(-174.461 -277.554)" fill="#333"/>
    <path id="Path_2177" data-name="Path 2177" d="M175.045,448.557v-3.738a3.439,3.439,0,0,0-3.439-3.439h-9.271a3.439,3.439,0,0,0-3.439,3.439v3.738" transform="translate(-142.749 -398.556)" fill="#2c83a8"/>
    <path id="Path_2178" data-name="Path 2178" d="M369.252,448.557v-3.738a3.439,3.439,0,0,0-3.439-3.439h-9.271a3.439,3.439,0,0,0-3.439,3.439v3.738" transform="translate(-317.219 -399.064)" fill="#39b54a"/>
    <path id="Path_2179" data-name="Path 2179" d="M50.08,108.521a3.112,3.112,0,0,0,2.931,2.532h.053l.037-.784a4.256,4.256,0,0,0-4.161-4.349c-.062,0-.125,0-.187,0h-.276a4.256,4.256,0,0,0-4.347,4.163c0,.062,0,.125,0,.187l.034.784h.056C48.615,111.053,50.08,108.521,50.08,108.521Z" transform="translate(-39.644 -95.154)" fill="#333"/>
    <path id="Path_2180" data-name="Path 2180" d="M53.352,134.064a3.113,3.113,0,0,1-2.931-2.532s-1.465,2.532-5.861,2.532h-.052l.071,1.631a4.272,4.272,0,0,0,4.344,4h.066a4.272,4.272,0,0,0,4.344-4l.071-1.631Z" transform="translate(-39.985 -118.164)" fill="#ecc19c"/>
  </g>
</svg>
