<svg xmlns="http://www.w3.org/2000/svg" width="25" height="29.167" viewBox="0 0 25 29.167">
  <g id="x" transform="translate(-64)">
    <path id="Path_1950" data-name="Path 1950" d="M87.1,0H65.9C64.978,0,64,.753,64,1.505V20.323l10.761,8.844H87.1A1.89,1.89,0,0,0,89,27.614V1.505C89,.753,88.022,0,87.1,0Z" fill="#0ee0b8"/>
    <path id="Path_1951" data-name="Path 1951" d="M87.1,0H65.9C64.978,0,64,.753,64,1.505V20.323l10.761,8.844H87.1A1.89,1.89,0,0,0,89,27.614V1.505C89,.753,88.022,0,87.1,0Z" fill="#118900"/>
    <path id="Path_1958" data-name="Path 1958" d="M65.087,20.323h0V1.505A1.546,1.546,0,0,1,66.609,0H65.9C64.978,0,64,.753,64,1.505V20.323Z" fill="#118914"/>
    <g id="Group_805" data-name="Group 805" transform="translate(72.438 9.556)">
      <path id="Path_1959" data-name="Path 1959" d="M198.141,132.468l-1.25-1.741c-.489-.706-.815-1.082-1.141-1.552H195.7c-.272.47-.543.8-1.087,1.552l-1.2,1.741H192l2.989-4.281L192.109,124h1.467l1.3,1.929c.38.565.652.894.924,1.364h.054c.272-.47.543-.847.87-1.364L198.087,124h1.467l-2.989,4.14,3.043,4.328Z" transform="translate(-191.742 -123.765)" fill="#fff"/>
      <path id="Path_1960" data-name="Path 1960" d="M196.067,128.938H194.6a.3.3,0,0,1-.217-.094l-1.25-1.788a8.018,8.018,0,0,0-.6-.8,2.68,2.68,0,0,0-.326-.376,3.144,3.144,0,0,1-.38.517c-.163.188-.272.423-.489.706l-1.2,1.741a.3.3,0,0,1-.217.094h-1.467a.227.227,0,0,1-.217-.141c-.054-.094-.054-.188,0-.235l2.935-4.14-2.826-4.046a.19.19,0,0,1,0-.235.293.293,0,0,1,.217-.141h1.467a.3.3,0,0,1,.217.094l1.3,1.929c.163.235.272.376.38.565.109.141.217.329.326.47a5.505,5.505,0,0,1,.489-.706l.217-.329,1.359-1.929a.44.44,0,0,1,.217-.094h1.467a.227.227,0,0,1,.217.141c.054.094.054.188,0,.235l-2.88,4,2.935,4.187a.236.236,0,0,1,.109.188A.371.371,0,0,1,196.067,128.938Zm-1.3-.47h.815l-2.826-4c-.054-.094-.054-.188,0-.235l2.717-3.763h-.815l-1.467,2.117a10.86,10.86,0,0,0-.652,1.035.293.293,0,0,1-.217.141.308.308,0,0,1-.272-.141c-.163-.282-.326-.517-.489-.8a5.871,5.871,0,0,1-.38-.565l-1.3-1.788h-.815l2.663,3.81c.054.094.054.188,0,.235l-2.772,3.952h.815l1.087-1.6c.217-.282.326-.517.489-.706.217-.329.38-.565.543-.847.109-.141.435-.141.489,0l.489.706a9.579,9.579,0,0,1,.6.847Z" transform="translate(-188.2 -120)" fill="#fff"/>
    </g>
    <path id="Rectangle_376" data-name="Rectangle 376" d="M0,0H11.345a0,0,0,0,1,0,0V10a0,0,0,0,1,0,0H2A2,2,0,0,1,0,8V0A0,0,0,0,1,0,0Z" transform="translate(64 19.17)" fill="#118914"/>
  </g>
</svg>
