<svg xmlns="http://www.w3.org/2000/svg" width="25" height="25" viewBox="0 0 25 25">
  <g id="Setting" transform="translate(-3 -3)">
    <path id="Path_2040" data-name="Path 2040" d="M25.172,17.655a10,10,0,0,1-1.306,3.164l2,2-3.047,3.047-2-2a9.86,9.86,0,0,1-3.164,1.315V28h-4.31V25.172a10,10,0,0,1-3.164-1.306l-2,2L5.138,22.815l2-2a9.86,9.86,0,0,1-1.315-3.164H3v-4.31H5.823a9.851,9.851,0,0,1,1.31-3.164l-2-2L8.185,5.138l2,2a9.8,9.8,0,0,1,3.164-1.306V3h4.31V5.828a9.8,9.8,0,0,1,3.164,1.306l2-2,3.047,3.047-2,2a9.8,9.8,0,0,1,1.306,3.164H28v4.31Z" fill="#3b3933"/>
    <circle id="Ellipse_44" data-name="Ellipse 44" cx="6.466" cy="6.466" r="6.466" transform="translate(9.034 9.034)" fill="#a7a9ac"/>
    <circle id="Ellipse_45" data-name="Ellipse 45" cx="5.603" cy="5.603" r="5.603" transform="translate(9.897 9.897)" fill="#f1f2f2"/>
    <path id="Path_2044" data-name="Path 2044" d="M29.617,18.005l-1.328,1.328-.6.6-1.522-.306L25.863,18.1l1.927-1.927a3.013,3.013,0,0,0-3.853,3.849l-2.565,2.565-.2.2-1.147,1.147a3.013,3.013,0,0,0-3.849,3.853l1.328-1.328.6-.6,1.522.306.306,1.522-.6.6-1.328,1.328a3.013,3.013,0,0,0,3.853-3.849L24.423,23.2l1.345-1.345a3.013,3.013,0,0,0,3.849-3.853Z" transform="translate(-7.397 -7.397)" fill="#5dd35d"/>
  </g>
</svg>
