<svg xmlns="http://www.w3.org/2000/svg" width="25" height="29.167" viewBox="0 0 25 29.167">
  <g id="smartphone" transform="translate(-34.824)">
    <path id="Path_1977" data-name="Path 1977" d="M52.232,29.167H36.338a1.52,1.52,0,0,1-1.514-1.526V1.526A1.52,1.52,0,0,1,36.338,0H52.232a1.52,1.52,0,0,1,1.514,1.526V27.641A1.52,1.52,0,0,1,52.232,29.167Z" transform="translate(0 0)" fill="#b6c4cf"/>
    <path id="Path_1978" data-name="Path 1978" d="M309.8,0h-1.98a1.52,1.52,0,0,1,1.514,1.526V27.641a1.52,1.52,0,0,1-1.514,1.526h1.98a1.52,1.52,0,0,0,1.514-1.526V1.526A1.52,1.52,0,0,0,309.8,0Z" transform="translate(-257.569)" fill="#b6c4cf"/>
    <path id="Path_1979" data-name="Path 1979" d="M69.85,58.976v-21.6a.292.292,0,0,1,.291-.293H84.522a.292.292,0,0,1,.291.293v21.6a.292.292,0,0,1-.291.293H70.141A.292.292,0,0,1,69.85,58.976Z" transform="translate(-33.046 -34.973)" fill="#596c76"/>
    <path id="Path_1980" data-name="Path 1980" d="M296.394,37.087h-1.98a.292.292,0,0,1,.291.293v21.6a.292.292,0,0,1-.291.293h1.98a.292.292,0,0,0,.291-.293V37.38A.292.292,0,0,0,296.394,37.087Z" transform="translate(-244.919 -34.974)" fill="#596c76"/>
    <path id="Path_1981" data-name="Path 1981" d="M153.957,457.124h-4.541a.763.763,0,0,1,0-1.526h4.541a.763.763,0,0,1,0,1.526Z" transform="translate(-107.402 -429.644)" fill="#f5f8f9"/>
    <path id="Path_1982" data-name="Path 1982" d="M207.261,142.384H192.928a.9.9,0,0,1-.891-.9v-9.7a.9.9,0,0,1,.891-.9h14.333a.9.9,0,0,1,.891.9v9.7A.9.9,0,0,1,207.261,142.384Z" transform="translate(-148.328 -123.432)" fill="#ffd15b"/>
    <path id="Path_1983" data-name="Path 1983" d="M197.164,243.552H211.5a.885.885,0,0,0,.637-.271l-6.636-5.114-.7.577a.738.738,0,0,1-.944,0l-.7-.577-6.636,5.114A.885.885,0,0,0,197.164,243.552Z" transform="translate(-152.564 -224.6)" fill="#ffc344"/>
    <path id="Path_1984" data-name="Path 1984" d="M202.274,137.576l7.483-6.207a.89.89,0,0,0-.789-.481H194.636a.89.89,0,0,0-.789.481l7.483,6.207A.738.738,0,0,0,202.274,137.576Z" transform="translate(-150.036 -123.432)" fill="#ffe177"/>
  </g>
</svg>
