<svg xmlns="http://www.w3.org/2000/svg" width="328.012" height="120.784" viewBox="0 0 328.012 120.784">
  <g id="Group_581" data-name="Group 581" transform="translate(-72.051 -44.837)">
    <path id="Path_672" data-name="Path 672" d="M164.252,165.621h49.516l-3.658-9.387H168.156Z" fill="#ff4577"/>
    <path id="Path_673" data-name="Path 673" d="M183.17,112.455l-2.033-5.536,2.023,5.536Z" fill="none"/>
    <path id="Path_674" data-name="Path 674" d="M154.47,142.695l-5.66,13.475H81.594V54.22H390.518V156.17l-178.408.064,3.658,9.387,184.294-.068V44.837H72.051V165.553h83.957l8.736-22.858" fill="#0a345a"/>
    <path id="Path_675" data-name="Path 675" d="M139.053,75.306V67.695H95.265v75h45.993v-7.611H105.413V106.849h29.228V99.239H105.413V75.306Z" fill="#5088ff"/>
    <path id="Path_676" data-name="Path 676" d="M299.282,142.695h10.036v-75h-9.045l-27.022,40.148L246.229,67.695h-9.044v75h10.038v-26.14L246.56,83.8l23.273,34.743h6.948l23.052-34.411-.551,32.426Z" fill="#60c094"/>
    <path id="Path_677" data-name="Path 677" d="M362.46,131.588a19.676,19.676,0,0,1-11.953,3.491q-12.483,0-21.369-6.347l-3.384,7.193A37.473,37.473,0,0,0,336.65,141a50.735,50.735,0,0,0,13.857,1.692,35.067,35.067,0,0,0,13.8-2.538,20.76,20.76,0,0,0,9.257-7.3,19.279,19.279,0,0,0,3.28-11.212,15.858,15.858,0,0,0-3.069-10,21.341,21.341,0,0,0-7.4-6.135,106.958,106.958,0,0,0-11.424-4.708q-5.818-2.115-9.1-3.65a17.161,17.161,0,0,1-5.5-3.967,8.6,8.6,0,0,1-2.222-6.029q0-5.817,4.126-8.886a17.267,17.267,0,0,1,10.578-3.068,30.882,30.882,0,0,1,18.513,6.135l3.385-6.981a37.283,37.283,0,0,0-22.11-6.664q-10.578,0-17.348,5.183t-6.77,14.7a15.59,15.59,0,0,0,3.015,9.89,20.911,20.911,0,0,0,7.3,5.978,111.579,111.579,0,0,0,11.372,4.655q5.922,2.116,9.256,3.648A16.368,16.368,0,0,1,365,115.826a9.144,9.144,0,0,1,2.221,6.241A11.176,11.176,0,0,1,362.46,131.588Z" fill="#fed07b"/>
    <path id="Path_678" data-name="Path 678" d="M194.164,67.695h-9.175l-30.519,75h10.275l6.99-16.529,7.6-19.2h0l10.192-27.723,9.31,25.346h0l.676,1.85,1.989,5.413h-.01l3.114,8.523,8.022,21.71h10.156Z" fill="#ff4577"/>
  </g>
</svg>
