<svg xmlns="http://www.w3.org/2000/svg" width="24" height="24" viewBox="0 0 24 24">
  <g id="Cities" transform="translate(-1459 -6801)">
    <rect id="Rectangle_1509" data-name="Rectangle 1509" width="24" height="24" transform="translate(1459 6801)" fill="none"/>
    <g id="Group_31904" data-name="Group 31904" transform="translate(1460.916 6802.885)">
      <g id="Group_31815" data-name="Group 31815" transform="translate(1.084 0.115)">
        <path id="Path_12239" data-name="Path 12239" d="M17.889,479.555c.24,0,.48.007.719,0,.166,0,.316.02.383.2s-.046.291-.174.389H1.279c-.128-.1-.242-.2-.176-.386s.211-.2.377-.2c.219,0,.437,0,.656,0l.62,0h.587l2.55.006c.408,0,.408,0,.411-.4,0-.019,0-.039,0-.059,0-.168.072-.255.246-.252s.35,0,.526,0l.05,0,.505,0c-.137.158-.056.349-.079.524-.017.133.033.18.172.18q3.034-.007,6.069-.005l2.9,0h1.2" transform="translate(-1.084 -460.146)" fill="#c4cbd2"/>
        <path id="Path_12240" data-name="Path 12240" d="M100.769.115q0,.488,0,.976a.817.817,0,0,0-.1.054L98.18,2.927a.525.525,0,0,0-.255.546l-.077,0c-.235.008-.373.118-.379.3s.141.282.38.287l.077,0q0,.133,0,.266l-.077,0c-.235.009-.373.117-.38.3s.141.283.38.288l.077,0q0,.133,0,.267c-.32.008-.428.079-.432.286s.1.3.432.306v.267c-.051,0-.1,0-.154,0a.287.287,0,0,0-.074.567,1.363,1.363,0,0,0,.228.023q0,.133,0,.266l-.058,0c-.259.006-.409.117-.4.293s.179.295.413.294l1.244,0v.045l-2.254-.007q0-1.121.009-2.242c0-.7.005-1.4,0-2.106a.619.619,0,0,1,.283-.558c1.167-.832,2.327-1.673,3.49-2.51Z" transform="translate(-93.13 -0.115)" fill="#d4ea57"/>
        <path id="Path_12241" data-name="Path 12241" d="M49.834,189.934l2.254.007c0,.078.005.156.005.234q0,5.381,0,10.761c0,.085,0,.169,0,.254l-.016.036c-.175,0-.35,0-.526,0s-.249.084-.246.252c0,.019,0,.039,0,.059,0,.4,0,.4-.411.4l-2.55-.006q0-.6.008-1.2a1.5,1.5,0,0,0,.89-.547,1.562,1.562,0,0,0,.271-1.446q0-3.593,0-7.186a.659.659,0,0,0-.03-.191.279.279,0,0,0-.3-.222.266.266,0,0,0-.253.292c0,.052,0,.1,0,.156q0,3.183,0,6.366l-.353-.184q0-3.115,0-6.23a.562.562,0,0,0-.047-.227.275.275,0,0,0-.4-.124c-.141.078-.135.207-.135.339q0,3.076,0,6.152l-.077,0q0-3.685,0-7.37a.514.514,0,0,1,.118-.358l1.794-.01m1.52,5.646c0-1.374,0-2.747,0-4.121,0-.216-.107-.315-.255-.327a.284.284,0,0,0-.314.256,1.179,1.179,0,0,0-.019.232q0,3.965,0,7.93a.892.892,0,0,0,.055.343.251.251,0,0,0,.261.164c.162,0,.269-.134.269-.336q0-2.07,0-4.141m-1.483,0q0,2.031,0,4.062a.961.961,0,0,0,0,.175.275.275,0,0,0,.228.234.25.25,0,0,0,.3-.16.889.889,0,0,0,.055-.343q0-3.965,0-7.93a1.232,1.232,0,0,0,0-.176.329.329,0,0,0-.33-.317c-.165.018-.25.137-.25.352q0,2.051,0,4.1" transform="translate(-46.091 -182.518)" fill="#f89400"/>
        <path id="Path_12242" data-name="Path 12242" d="M28.9,190.013a.514.514,0,0,0-.118.358q0,3.685,0,7.37a2.182,2.182,0,0,0-.775.28c0-.332-.006-.664-.006-1q0-3.339,0-6.679c0-.3.04-.342.332-.342.188,0,.376,0,.564.007" transform="translate(-26.955 -182.587)" fill="#f89425"/>
        <path id="Path_12243" data-name="Path 12243" d="M12.626,388.207a2.181,2.181,0,0,1,.775-.28l.077,0a1.353,1.353,0,0,1,.434.073c-.051.074-.138.092-.211.13a1.537,1.537,0,0,0-.234,2.527c.042.033.086.057.092.115-.132.032-.372-.1-.322.209a2.115,2.115,0,0,1-.609-.245,1.8,1.8,0,0,1-.548-.759,1.529,1.529,0,0,1,.469-1.684,1.109,1.109,0,0,0,.079-.084" transform="translate(-11.568 -372.772)" fill="#87ca3c"/>
        <path id="Path_12244" data-name="Path 12244" d="M28.018,459.837a2.114,2.114,0,0,0,.609.245q0,.6,0,1.2l-.62,0,.006-1.448" transform="translate(-26.96 -441.875)" fill="#df8500"/>
        <path id="Path_12245" data-name="Path 12245" d="M267.754,45.487l-2.9,0c0-.154,0-.309,0-.464a.21.21,0,0,0-.236-.239h-.54q0-.391,0-.783c.15-.14.115-.281,0-.421q0-.258,0-.515c.157-.128.125-.256,0-.385q0-.257,0-.515c.152-.14.114-.28,0-.421q0-.258,0-.515c.158-.128.125-.256,0-.385q0-.258,0-.515c.153-.14.114-.28,0-.421q0-.24,0-.48c.113-.141.151-.281,0-.42q0-.258,0-.515c.124-.129.156-.257,0-.385l0-.515c.114-.14.151-.281,0-.421q0-.257,0-.515a.236.236,0,0,0,0-.385l0-.515a.277.277,0,0,0,0-.42l0-.515a.236.236,0,0,0,0-.385v-.515c.152-.14.114-.28,0-.421l0-.515c.158-.128.125-.256,0-.385a1.284,1.284,0,0,0-.047-.426c.078-.126.209-.234.115-.411s-.259-.185-.429-.182c-.1,0-.2,0-.307,0q0-.155,0-.311c.149,0,.3,0,.446,0a.319.319,0,0,0,.321-.321c-.009-.157-.133-.259-.326-.262-.213,0-.427-.006-.64,0-.149,0-.265.063-.273.238l-.142-.007q0-.438,0-.876c0-.439,0-.439-.437-.45,0-.729,0-1.458,0-2.187,0-.2.07-.271.27-.271q3.03,0,6.06,0c.211,0,.264.067.264.313q0,2.666,0,5.332,0,4.238,0,8.476c0,.085,0,.169-.005.254a1.459,1.459,0,0,0-.5-.207l-.124-.049c.14-.326.033-.491-.32-.492-.188,0-.376,0-.564,0a.285.285,0,0,0-.277.388c.043.127.163.156.271.2a2.245,2.245,0,0,0-.664.552.323.323,0,0,0-.322-.238c-.526-.006-1.052-.007-1.578,0a.318.318,0,0,0-.318.306.3.3,0,0,0,.338.275c.572,0,1.143,0,1.715,0l-.079.355c-.558,0-1.116,0-1.674,0a.274.274,0,0,0-.3.249.278.278,0,0,0,.2.3.562.562,0,0,0,.228.04q.671,0,1.343,0a.488.488,0,0,0,.226-.044l.181.471a.643.643,0,0,0-.418-.117c-.467.008-.934,0-1.4,0-.228,0-.362.109-.364.29s.133.294.359.3c.473,0,.947,0,1.42,0,.353,0,.432-.079.439-.433a1.758,1.758,0,0,0,.982.633q0,.6.006,1.2m-2.106-9.642c.253,0,.507,0,.76,0,.22,0,.36-.122.355-.3s-.139-.284-.35-.285q-.76,0-1.52,0c-.212,0-.343.114-.345.29s.13.292.34.295c.253,0,.507,0,.76,0m.014,4.921h-.8a.251.251,0,0,0-.214.069.273.273,0,0,0-.09.28.337.337,0,0,0,.345.234c.22.011.441,0,.662,0,.286,0,.571.006.857,0a.312.312,0,0,0,.341-.32c-.007-.16-.139-.262-.342-.263-.253,0-.506,0-.759,0m.011-10.078c-.266,0-.531,0-.8,0a.306.306,0,0,0-.33.264.324.324,0,0,0,.29.314c.544.01,1.089.012,1.633,0a.292.292,0,0,0,.295-.3.3.3,0,0,0-.332-.277c-.253,0-.506,0-.758,0m0,1.486h.739c.218,0,.356-.115.356-.293s-.132-.289-.346-.291q-.768-.008-1.536,0a.325.325,0,0,0-.334.292c0,.172.133.289.343.291.259,0,.518,0,.778,0m0,8.242h.739c.217,0,.356-.117.354-.295a.32.32,0,0,0-.351-.289q-.758-.007-1.517,0a.328.328,0,0,0-.35.318c.007.154.148.264.348.266.259,0,.518,0,.778,0m-.006-7.893c-.272,0-.545,0-.817,0a.281.281,0,0,0-.078.555.808.808,0,0,0,.21.033q.671,0,1.343,0a.816.816,0,0,0,.21-.03.261.261,0,0,0,.228-.309.279.279,0,0,0-.316-.248c-.259,0-.519,0-.779,0m0,6.407h-.8a.284.284,0,0,0-.286.161c-.1.22.052.422.334.424.486,0,.972,0,1.458,0a.586.586,0,0,0,.134-.013.279.279,0,0,0,.246-.316.287.287,0,0,0-.312-.257c-.259.007-.518,0-.778,0m-.011-.35h.74c.222,0,.356-.1.366-.259s-.1-.285-.319-.322a.7.7,0,0,0-.117,0h-1.343a.773.773,0,0,0-.21.031.269.269,0,0,0-.22.318.272.272,0,0,0,.3.24c.266-.008.532,0,.8,0m-.019-4.572c.259,0,.518,0,.777,0,.21,0,.344-.114.347-.286a.3.3,0,0,0-.319-.3c-.524-.008-1.049-.007-1.573,0a.321.321,0,0,0-.322.3.3.3,0,0,0,.332.28c.252,0,.505,0,.758,0m.015-3.671c.279,0,.557,0,.836,0a.269.269,0,0,0,.268-.258.239.239,0,0,0-.183-.282.71.71,0,0,0-.227-.046c-.46,0-.92,0-1.381,0a.908.908,0,0,0-.19.03.263.263,0,0,0-.223.314.271.271,0,0,0,.3.242c.266-.007.531,0,.8,0m.005,6.757c-.259,0-.518,0-.777,0a.3.3,0,0,0-.333.279.32.32,0,0,0,.321.3c.524.007,1.049.008,1.573,0a.3.3,0,0,0,.32-.295c0-.172-.137-.285-.346-.287-.253,0-.505,0-.758,0m-.01-8.593c.279,0,.557,0,.836,0a.265.265,0,0,0,.273-.229.251.251,0,0,0-.192-.314.773.773,0,0,0-.208-.04q-.71-.005-1.419,0a.549.549,0,0,0-.17.034.275.275,0,0,0-.215.305.271.271,0,0,0,.3.247c.266-.006.531,0,.8,0m.022.35c-.266,0-.531,0-.8,0a.3.3,0,0,0-.327.286.325.325,0,0,0,.31.295c.531.008,1.062.009,1.593,0a.292.292,0,0,0,.313-.3.3.3,0,0,0-.334-.279c-.252,0-.505,0-.758,0m-.01,7.892h.758c.191,0,.325-.1.344-.241s-.077-.274-.267-.323a.7.7,0,0,0-.172-.021c-.447,0-.894,0-1.341,0a.554.554,0,0,0-.227.039.277.277,0,0,0-.2.316.271.271,0,0,0,.29.233c.272-.006.544,0,.816,0m-.008-2.386c-.272,0-.544,0-.816,0a.278.278,0,0,0-.11.537.544.544,0,0,0,.264.051c.44,0,.881,0,1.321,0a.734.734,0,0,0,.21-.028c.166-.048.267-.152.236-.325a.276.276,0,0,0-.308-.235c-.266,0-.531,0-.8,0m2.1,0c-.116,0-.233,0-.349,0a.225.225,0,0,0-.251.192c-.028.149-.008.3.162.35a1.662,1.662,0,0,0,.878,0,.256.256,0,0,0,.192-.3.272.272,0,0,0-.3-.241c-.11.006-.22,0-.33,0M263.547,28.5h0c.117,0,.233,0,.35,0a.279.279,0,0,0,.1-.538,1.6,1.6,0,0,0-.9,0,.28.28,0,0,0,.1.539c.117,0,.233,0,.35,0m4.209,8.242c.116,0,.233,0,.349,0a.267.267,0,0,0,.284-.24.256.256,0,0,0-.191-.3,1.663,1.663,0,0,0-.878,0c-.171.045-.191.2-.164.349a.232.232,0,0,0,.27.194c.11,0,.22,0,.33,0m.036-4.221c-.123,0-.247,0-.37,0a.247.247,0,0,0-.268.229c-.022.152.022.281.183.319a1.808,1.808,0,0,0,.864-.006.251.251,0,0,0,.186-.3.259.259,0,0,0-.265-.239h-.331m-.013-2.186c.11,0,.221,0,.331,0a.261.261,0,0,0,.278-.246.254.254,0,0,0-.193-.3,1.884,1.884,0,0,0-.846-.007.247.247,0,0,0-.2.31.251.251,0,0,0,.276.242c.117,0,.234,0,.351,0m-.008,5.507c.1,0,.208,0,.311,0a.292.292,0,1,0,.01-.583c-.214-.006-.428-.008-.642,0-.2.007-.3.109-.3.286s.1.286.308.3c.1.005.208,0,.311,0m0-6.992h-.331c-.192.008-.281.091-.29.267a.282.282,0,0,0,.254.311,5.553,5.553,0,0,0,.7,0,.313.313,0,0,0,.286-.314.3.3,0,0,0-.327-.265c-.1,0-.195,0-.292,0m-.005,9.727c.123,0,.247,0,.37,0a.259.259,0,0,0,.25-.233.246.246,0,0,0-.163-.3,1.689,1.689,0,0,0-.9-.011c-.149.036-.19.164-.171.309a.242.242,0,0,0,.244.232c.123.007.247,0,.37,0m0-1.485h-.331a.253.253,0,0,0-.281.236.265.265,0,0,0,.223.333,2.484,2.484,0,0,0,.774,0,.268.268,0,0,0,.236-.308.278.278,0,0,0-.31-.259c-.1,0-.208,0-.311,0m-.013-4.921h.33a.277.277,0,0,0,.3-.265.268.268,0,0,0-.242-.3,2.361,2.361,0,0,0-.772.008.259.259,0,0,0-.219.331.253.253,0,0,0,.287.229h.311m.014-1.486c-.1,0-.194,0-.292,0-.215,0-.308.077-.322.254a.264.264,0,0,0,.263.317,3.963,3.963,0,0,0,.717,0,.281.281,0,0,0,.259-.294c0-.164-.126-.271-.313-.277-.1,0-.207,0-.311,0m0,3.321c.1,0,.194,0,.291,0,.2,0,.326-.108.336-.277a.322.322,0,0,0-.318-.306c-.213-.009-.428-.01-.641,0a.287.287,0,0,0-.282.305c.005.177.108.272.3.277.1,0,.207,0,.311,0m-.009,6.407h.331a.277.277,0,0,0,.3-.27.262.262,0,0,0-.229-.294,2.153,2.153,0,0,0-.808.011.255.255,0,0,0-.195.329.248.248,0,0,0,.272.224c.11,0,.22,0,.331,0m-.008-.9h.315a.241.241,0,0,0,.039,0,.331.331,0,0,0,.29-.314.294.294,0,0,0-.324-.269c-.22,0-.441,0-.661,0a.241.241,0,0,0-.253.222.267.267,0,0,0,.175.326,1.3,1.3,0,0,0,.419.035m.022-11.014h0c.11,0,.221,0,.331,0a.268.268,0,0,0,.287-.237.255.255,0,0,0-.189-.3,1.672,1.672,0,0,0-.881,0c-.147.039-.187.169-.165.312a.242.242,0,0,0,.248.228c.123.006.246,0,.369,0m-4.205.351h0c-.11,0-.22,0-.33,0-.193.005-.279.087-.295.262a.267.267,0,0,0,.248.315,3.86,3.86,0,0,0,.717,0,.289.289,0,1,0-.049-.577c-.1,0-.194,0-.291,0m-.027,1.486h.33a.281.281,0,0,0,.075-.555,1.892,1.892,0,0,0-.787,0c-.184.041-.245.159-.214.352.026.161.146.2.285.2.1,0,.207,0,.311,0" transform="translate(-252.149 -26.08)" fill="#fc8072"/>
        <path id="Path_12246" data-name="Path 12246" d="M393.565,389.83a1.461,1.461,0,0,1,.5.207,1.747,1.747,0,0,1,.579.832,1.546,1.546,0,0,1-.483,1.6c-.034.029-.065.063-.1.095a1.35,1.35,0,0,1-.5.2.448.448,0,0,0-.18-.111,1.543,1.543,0,0,1-.132-2.643c.1-.067.231-.09.316-.186" transform="translate(-377.27 -374.603)" fill="#87ca3c"/>
        <path id="Path_12247" data-name="Path 12247" d="M123.585,27.48a.525.525,0,0,1,.255-.546l2.486-1.781a.82.82,0,0,1,.1-.054l.006,2.538-.264.009a.366.366,0,0,0-.35-.164c-.745,0-1.491,0-2.236,0" transform="translate(-118.79 -24.123)" fill="#d4ea57"/>
        <path id="Path_12248" data-name="Path 12248" d="M210.61,90.062c.437.011.437.011.437.45q0,.438,0,.876l-2.543,0c0-.353,0-.706,0-1.059a.38.38,0,0,1,.079-.268h2.028" transform="translate(-200.399 -86.548)" fill="#e4e7eb"/>
        <path id="Path_12249" data-name="Path 12249" d="M223.179,13.282h-.554a1.335,1.335,0,0,1-.032-.308c0-.754,0-1.507,0-2.261a1.615,1.615,0,0,1,.039-.346.276.276,0,0,1,.536,0,1.473,1.473,0,0,1,.039.327q0,1.16,0,2.319a2.421,2.421,0,0,1-.03.269" transform="translate(-213.938 -9.767)" fill="#c4cbd2"/>
        <path id="Path_12250" data-name="Path 12250" d="M187.863,90.066a.38.38,0,0,0-.079.268c0,.353,0,.706,0,1.059l-.12,0-.72-.011a2.534,2.534,0,0,0,0-.574.64.64,0,0,0,0-.327c.044-.136-.033-.307.119-.411l.264-.009.538,0" transform="translate(-179.68 -86.549)" fill="#e4e7eb"/>
        <path id="Path_12251" data-name="Path 12251" d="M415.86,460.063a1.352,1.352,0,0,0,.5-.2l.008,1.447h-.6q0-.6,0-1.2l.086-.043" transform="translate(-399.568 -441.897)" fill="#fc8072"/>
        <path id="Path_12252" data-name="Path 12252" d="M154.542,167.533c0-.085,0-.169,0-.254q0-5.381,0-10.761c0-.078,0-.156-.005-.234q0-.023,0-.045,0-.291,0-.582,0-.138,0-.275c0-.058,0-.116.006-.173,0-.241.056-.294.294-.3l.366,0,.2.01a2.3,2.3,0,0,0-.04.621.361.361,0,0,0-.273.391c0,.247-.051.517.272.623v.315c-.29.092-.271.329-.275.565a.4.4,0,0,0,.274.45q0,.157,0,.314c-.266.085-.275.3-.275.527s.032.411.275.488q0,.157,0,.313c-.23.075-.278.249-.275.469s0,.458.275.546q0,.157,0,.314a.388.388,0,0,0-.274.43c0,.24-.027.488.275.584v.315a.39.39,0,0,0-.275.428c.007.24-.027.489.275.586q0,.157,0,.315a.364.364,0,0,0-.272.391c0,.077,0,.155,0,.232a.36.36,0,0,0,.273.391q0,.157,0,.315c-.132.061-.253.138-.267.3a1.931,1.931,0,0,0,0,.405.316.316,0,0,0,.268.31q0,.858,0,1.716c-.092.031-.184-.055-.276,0l-.505,0-.034-.039" transform="translate(-148.536 -148.86)" fill="#e4e7eb"/>
        <path id="Path_12253" data-name="Path 12253" d="M166.6,478.557c.091-.058.184.028.276,0h2.45l1.133,0h2.066a.21.21,0,0,1,.236.239c0,.155,0,.309,0,.464q-3.034,0-6.069.005c-.139,0-.189-.047-.172-.18.022-.175-.058-.366.079-.524" transform="translate(-160.056 -459.844)" fill="#c4cbd2"/>
        <path id="Path_12254" data-name="Path 12254" d="M43.607,461.966q0-.6,0-1.2c-.05-.313.19-.178.322-.209.153-.013.32-.044.276.206q0,.6-.008,1.2h-.587" transform="translate(-41.935 -442.558)" fill="#795532"/>
        <path id="Path_12255" data-name="Path 12255" d="M400.921,466.147l0,1.2h-.6q0-.6-.006-1.2a1.466,1.466,0,0,0,.608,0" transform="translate(-384.715 -447.938)" fill="#795532"/>
        <path id="Path_12256" data-name="Path 12256" d="M154.434,478.026l.034.039-.05,0,.016-.036" transform="translate(-148.427 -459.353)" fill="#c4cbd2"/>
        <path id="Path_12257" data-name="Path 12257" d="M115.164,86.211c-.153.1-.075.275-.119.411-.09,0-.181.011-.271.011l-2.195,0-.077,0c-.239-.006-.386-.116-.38-.287s.145-.292.379-.3l.077,0c.745,0,1.491,0,2.236,0a.366.366,0,0,1,.35.164" transform="translate(-107.784 -82.688)" fill="#87ca3c"/>
        <path id="Path_12258" data-name="Path 12258" d="M115.049,108.061a2.537,2.537,0,0,1,0,.574l0,0a.189.189,0,0,0-.13-.028l-2.337,0-.077,0c-.239,0-.386-.116-.38-.288s.144-.291.38-.3l.077,0,2.206,0a.517.517,0,0,1,.264.043" transform="translate(-107.785 -103.799)" fill="#87ca3c"/>
        <path id="Path_12259" data-name="Path 12259" d="M113.192,130.6c-.328-.008-.436-.085-.432-.306s.112-.278.432-.286l1.869.006q0,.29,0,.58l-1.869.006" transform="translate(-108.396 -124.931)" fill="#87ca3c"/>
        <path id="Path_12260" data-name="Path 12260" d="M114.6,152.1l-.366,0c-.239,0-.291.056-.294.3,0,.058,0,.116-.006.173l-1.2,0a1.362,1.362,0,0,1-.228-.023.287.287,0,0,1,.074-.567c.051,0,.1,0,.154,0l1.869.006,0,.108" transform="translate(-107.934 -146.054)" fill="#87ca3c"/>
        <path id="Path_12261" data-name="Path 12261" d="M113.785,173.958q0,.291,0,.582l-1.244,0c-.234,0-.4-.12-.413-.294s.14-.287.4-.293l.058,0,1.2,0" transform="translate(-107.788 -167.161)" fill="#87ca3c"/>
        <path id="Path_12262" data-name="Path 12262" d="M126.284,101.138a.517.517,0,0,0-.264-.043l-2.206,0q0-.133,0-.266l2.195,0c.09,0,.181-.007.271-.012a.64.64,0,0,1,0,.327" transform="translate(-119.02 -96.877)" fill="#d4ea57"/>
        <path id="Path_12263" data-name="Path 12263" d="M125.686,123.361l-1.869-.006q0-.134,0-.267l2.337,0a.189.189,0,0,1,.13.028c-.09.005-.179.016-.269.015a.293.293,0,0,0-.329.233" transform="translate(-119.022 -118.28)" fill="#d4ea57"/>
        <path id="Path_12264" data-name="Path 12264" d="M125.686,145.284l-1.869-.006q0-.133,0-.267l1.869-.006v.279" transform="translate(-119.022 -139.344)" fill="#d4ea57"/>
        <path id="Path_12265" data-name="Path 12265" d="M125.014,167.3l-1.2,0q0-.133,0-.266l1.2,0q0,.138,0,.276" transform="translate(-119.018 -160.506)" fill="#d4ea57"/>
        <path id="Path_12266" data-name="Path 12266" d="M121.368,225q0,2.07,0,4.141c0,.2-.108.333-.269.336a.251.251,0,0,1-.261-.164.892.892,0,0,1-.055-.343q0-3.965,0-7.93a1.183,1.183,0,0,1,.019-.232.284.284,0,0,1,.314-.256c.148.012.256.111.255.327-.008,1.374,0,2.747,0,4.121" transform="translate(-116.105 -211.94)" fill="#fec400"/>
        <path id="Path_12267" data-name="Path 12267" d="M97.756,224.872q0-2.051,0-4.1c0-.215.086-.334.25-.352a.329.329,0,0,1,.33.317,1.238,1.238,0,0,1,0,.176q0,3.965,0,7.93a.889.889,0,0,1-.055.343.25.25,0,0,1-.3.16.275.275,0,0,1-.228-.234.961.961,0,0,1,0-.175q0-2.031,0-4.062" transform="translate(-93.976 -211.809)" fill="#fec400"/>
        <path id="Path_12268" data-name="Path 12268" d="M36.354,392.78c.043-.251-.124-.219-.276-.207-.006-.058-.05-.082-.092-.116a1.537,1.537,0,0,1,.234-2.527c.073-.038.16-.056.211-.13l.147.017.353.184a1.9,1.9,0,0,1,.584.785,1.563,1.563,0,0,1-.271,1.446,1.5,1.5,0,0,1-.89.547" transform="translate(-34.088 -374.575)" fill="#87ca3c"/>
        <path id="Path_12269" data-name="Path 12269" d="M74.45,228.129a1.9,1.9,0,0,0-.584-.785q0-3.183,0-6.366c0-.052,0-.1,0-.156a.266.266,0,0,1,.253-.292.279.279,0,0,1,.3.222.658.658,0,0,1,.03.191q0,3.593,0,7.186" transform="translate(-71.022 -211.918)" fill="#fec400"/>
        <path id="Path_12270" data-name="Path 12270" d="M50.528,227.344l-.147-.017a1.352,1.352,0,0,0-.434-.073q0-3.076,0-6.152c0-.132-.006-.261.135-.339a.275.275,0,0,1,.4.124.563.563,0,0,1,.047.227q0,3.115,0,6.23" transform="translate(-48.038 -212.102)" fill="#fec400"/>
        <path id="Path_12271" data-name="Path 12271" d="M180.72,167.565h-1.526q0-1.851,0-3.7c0-.208-.073-.28-.281-.281-.285,0-.57,0-.855,0h-.612c-.279,0-.557,0-.836,0-.233,0-.3.068-.3.3q0,1.841,0,3.682h-.7q0-.858,0-1.716c.189-.023.308-.108.314-.319.016-.562,0-.6-.316-.694q0-.157,0-.315c.248-.049.31-.12.313-.358,0-.084,0-.168,0-.252,0-.275-.039-.324-.314-.4q0-.157,0-.315c.233-.047.306-.126.313-.342.018-.544,0-.59-.314-.672q0-.157,0-.315c.241-.048.31-.127.314-.362q0-.146,0-.292c0-.235-.073-.314-.314-.361q0-.157,0-.314c.232-.045.308-.127.314-.342,0-.071,0-.142,0-.214,0-.338-.009-.351-.314-.459v-.313c.225-.037.308-.126.314-.341,0-.071,0-.143,0-.214,0-.339-.007-.349-.314-.46q0-.157,0-.314c.241-.048.31-.127.314-.361,0-.078,0-.155,0-.233,0-.3-.027-.334-.314-.421q0-.157,0-.315c.272-.072.313-.124.314-.4,0-.084,0-.168,0-.252,0-.234-.073-.314-.313-.362a2.3,2.3,0,0,1,.04-.621l1.045-.01,3.361,0a1.714,1.714,0,0,1,.617.05,1.284,1.284,0,0,1,.047.426q0,.192,0,.385,0,.258,0,.515,0,.21,0,.421,0,.257,0,.515,0,.192,0,.385l0,.515v.42l0,.515q0,.192,0,.385,0,.257,0,.515,0,.21,0,.421,0,.258,0,.515v.385q0,.258,0,.515l0,.421q0,.24,0,.48,0,.21,0,.421,0,.258,0,.515,0,.192,0,.385,0,.258,0,.515,0,.21,0,.421,0,.257,0,.515,0,.192,0,.385,0,.258,0,.515,0,.21,0,.421,0,.391,0,.783M179.31,162.7c0-.078,0-.156,0-.234a.289.289,0,0,0-.575-.015,2.086,2.086,0,0,0,0,.486.268.268,0,0,0,.3.251.279.279,0,0,0,.277-.275,1.853,1.853,0,0,0,0-.214m-2.535-6.66h0c0-.065,0-.13,0-.195a.3.3,0,0,0-.294-.3.3.3,0,0,0-.288.308c-.006.136-.007.273,0,.409a.3.3,0,0,0,.29.285.3.3,0,0,0,.288-.271,1.665,1.665,0,0,0,0-.234m-.582,6.619c0,.093,0,.165,0,.236a.29.29,0,1,0,.58,0,3.482,3.482,0,0,0,0-.429.286.286,0,0,0-.26-.274.275.275,0,0,0-.3.175.786.786,0,0,0-.024.286m3.125-6.623h-.008c0-.065,0-.13,0-.195a.29.29,0,1,0-.58-.005,3.458,3.458,0,0,0,0,.429.285.285,0,0,0,.26.274.264.264,0,0,0,.3-.194,1.548,1.548,0,0,0,.028-.308m-.009,5.337c0-.078,0-.156,0-.234a.284.284,0,0,0-.276-.276.3.3,0,0,0-.3.274,3.2,3.2,0,0,0,0,.448.289.289,0,0,0,.3.276.294.294,0,0,0,.282-.293c0-.065,0-.13,0-.195m-3.116-.022c0,.071,0,.143,0,.214a.29.29,0,1,0,.581,0,3.677,3.677,0,0,0,0-.409.315.315,0,0,0-.3-.3.293.293,0,0,0-.279.3c0,.065,0,.13,0,.195m3.117-2.643c0-.071,0-.143,0-.214a.294.294,0,0,0-.283-.291.31.31,0,0,0-.3.281,2.817,2.817,0,0,0,0,.447.3.3,0,0,0,.286.271.283.283,0,0,0,.291-.28c.006-.071,0-.143,0-.214m-3.116-.017c0,.078,0,.156,0,.234a.284.284,0,0,0,.275.277.306.306,0,0,0,.3-.273,3.284,3.284,0,0,0,0-.447.3.3,0,0,0-.3-.276.284.284,0,0,0-.28.271c-.007.071,0,.143,0,.214m3.114,1.351h0c0-.071,0-.143,0-.214a.293.293,0,0,0-.278-.3.315.315,0,0,0-.3.278,2.859,2.859,0,0,0,0,.467.274.274,0,0,0,.3.25.267.267,0,0,0,.275-.251,1.852,1.852,0,0,0,0-.233m-3.115-.022c0,.071,0,.143,0,.214a.3.3,0,0,0,.3.3.308.308,0,0,0,.286-.292,3.855,3.855,0,0,0,0-.409.317.317,0,0,0-.3-.3.294.294,0,0,0-.281.293c0,.065,0,.13,0,.195m.583-2.626h0c0-.071,0-.143,0-.214a.3.3,0,0,0-.29-.306.294.294,0,0,0-.291.3c-.006.136-.006.273,0,.409a.307.307,0,0,0,.286.291.322.322,0,0,0,.293-.288c.006-.064,0-.13,0-.195m2.534.017c0-.109.006-.187,0-.264a.273.273,0,0,0-.282-.267.267.267,0,0,0-.293.254,2.508,2.508,0,0,0,0,.486.289.289,0,0,0,.554.069.786.786,0,0,0,.021-.277m.86-.06a1.317,1.317,0,0,0-.021-.235.279.279,0,0,0-.31-.236.273.273,0,0,0-.258.308c0,.136,0,.272,0,.408a.269.269,0,0,0,.254.272.275.275,0,0,0,.3-.195,1.03,1.03,0,0,0,.031-.322m-.587,6.667h0c0,.065,0,.13,0,.195a.276.276,0,0,0,.263.3.263.263,0,0,0,.3-.223,1.145,1.145,0,0,0,0-.556.284.284,0,0,0-.558.066c0,.071,0,.143,0,.214m0-7.984q0,.1,0,.194a.282.282,0,0,0,.257.311.3.3,0,0,0,.32-.272,2.113,2.113,0,0,0,0-.446.306.306,0,0,0-.321-.274.282.282,0,0,0-.256.312c0,.058,0,.117,0,.175m0,9.325c0,.045,0,.091,0,.136,0,.219.117.357.293.356.161,0,.283-.143.29-.349a2.507,2.507,0,0,0,0-.369.305.305,0,0,0-.318-.279.288.288,0,0,0-.261.31c0,.065,0,.129,0,.194m.581-3.987a1.6,1.6,0,0,0,0-.233.322.322,0,0,0-.3-.278.294.294,0,0,0-.277.315c0,.136-.007.272,0,.408a.271.271,0,0,0,.254.274.285.285,0,0,0,.3-.2.753.753,0,0,0,.024-.287m0,1.336a1.425,1.425,0,0,0,0-.252.294.294,0,0,0-.313-.259c-.151,0-.255.127-.261.306a4.1,4.1,0,0,0,0,.427.274.274,0,0,0,.412.22c.181-.1.172-.272.162-.442m-.576-4.009h0c0,.071,0,.142,0,.213a.275.275,0,0,0,.262.285.26.26,0,0,0,.292-.2,1.066,1.066,0,0,0,0-.591.259.259,0,0,0-.3-.192.268.268,0,0,0-.25.254,2.231,2.231,0,0,0,0,.233m-1.128.007c0-.078,0-.155,0-.233a.261.261,0,0,0-.24-.263.257.257,0,0,0-.3.185.963.963,0,0,0,0,.61.255.255,0,0,0,.3.19.262.262,0,0,0,.247-.275c0-.071,0-.142,0-.214m-1.406-.016h0c0,.078,0,.155,0,.233a.264.264,0,0,0,.25.273.249.249,0,0,0,.289-.176.922.922,0,0,0,0-.646.254.254,0,0,0-.3-.164.261.261,0,0,0-.235.247c0,.077,0,.155,0,.233m2.533,1.336c0,.065,0,.129,0,.194a.3.3,0,0,0,.279.314.313.313,0,0,0,.3-.279,2.208,2.208,0,0,0,0-.445.314.314,0,0,0-.3-.275.3.3,0,0,0-.275.317c0,.058,0,.116,0,.175m-1.127.015h0c0-.071,0-.143,0-.214a.263.263,0,0,0-.239-.282.251.251,0,0,0-.3.18.911.911,0,0,0,.01.646.252.252,0,0,0,.3.156.261.261,0,0,0,.229-.253c0-.078,0-.155,0-.233m-1.408-.014h0c0,.078,0,.155,0,.233a.28.28,0,0,0,.548.069,1.024,1.024,0,0,0,0-.573.281.281,0,0,0-.553.077c0,.065,0,.129,0,.194m1.408,1.344h0c0-.071,0-.142,0-.214a.265.265,0,0,0-.256-.287.257.257,0,0,0-.293.2.98.98,0,0,0,.007.61.256.256,0,0,0,.29.178.262.262,0,0,0,.249-.254c0-.077,0-.155,0-.233m-1.408-.019c0,.071,0,.142,0,.214a.281.281,0,0,0,.555.077,1.156,1.156,0,0,0,.016-.5.292.292,0,0,0-.3-.278c-.168,0-.27.132-.274.331,0,.052,0,.1,0,.155m1.407,1.353h0c0-.078,0-.155,0-.233a.253.253,0,0,0-.231-.266.256.256,0,0,0-.31.171.929.929,0,0,0,.006.645.253.253,0,0,0,.3.163.262.262,0,0,0,.235-.247c0-.077,0-.155,0-.233m-1.407-.031h0c0,.084,0,.168,0,.252a.263.263,0,0,0,.243.26.254.254,0,0,0,.294-.17.957.957,0,0,0,.007-.628.258.258,0,0,0-.3-.184.256.256,0,0,0-.242.276c0,.065,0,.129,0,.194m1.408-5.3h0c0-.078,0-.155,0-.233a.28.28,0,0,0-.544-.073,1.006,1.006,0,0,0-.006.591.263.263,0,0,0,.308.2.254.254,0,0,0,.243-.275c0-.071,0-.142,0-.213m-1.408,0h0c0,.065,0,.129,0,.194a.258.258,0,0,0,.247.292.267.267,0,0,0,.312-.224,1.036,1.036,0,0,0-.014-.573.28.28,0,0,0-.543.078c0,.078,0,.155,0,.233m0-1.33h0c0,.065,0,.129,0,.194a.259.259,0,0,0,.245.294.266.266,0,0,0,.313-.223,1.038,1.038,0,0,0-.013-.573.259.259,0,0,0-.3-.186.262.262,0,0,0-.241.261c0,.078,0,.155,0,.233m1.408.016h0c0-.084,0-.168,0-.252a.263.263,0,0,0-.245-.258.255.255,0,0,0-.293.173.978.978,0,0,0-.011.609.261.261,0,0,0,.31.2.255.255,0,0,0,.241-.278c0-.065,0-.129,0-.194" transform="translate(-168.789 -148.856)" fill="#e4e7eb"/>
        <path id="Path_12272" data-name="Path 12272" d="M206.792,125.222l-3.361,0a4.805,4.805,0,0,1,.079-1.2l.12,0,2.543,0,.142.007c.426.02.44.03.472.348q0,.155,0,.311a3.172,3.172,0,0,0,0,.544" transform="translate(-195.525 -119.171)" fill="#c4cbd2"/>
        <path id="Path_12273" data-name="Path 12273" d="M370.819,391.115a1.466,1.466,0,0,1-.608,0,1.758,1.758,0,0,1-.982-.633v0c0-.023-.013-.041-.04-.042h0l-.182-.471a3.507,3.507,0,0,1-.026-.542l.079-.355.165-.341a2.245,2.245,0,0,1,.664-.552,1.909,1.909,0,0,1,.889-.1l.124.049c-.085.1-.213.119-.316.186a1.543,1.543,0,0,0,.132,2.643.447.447,0,0,1,.18.111l-.086.043" transform="translate(-354.613 -372.905)" fill="#87ca3c"/>
        <path id="Path_12274" data-name="Path 12274" d="M320.638,446.095c-.006.354-.086.433-.439.433-.473,0-.947,0-1.42,0-.226,0-.361-.114-.359-.295s.136-.289.364-.29c.467,0,.934,0,1.4,0a.643.643,0,0,1,.418.117h0l.04.042Z" transform="translate(-306.022 -428.52)" fill="#f14f4c"/>
        <path id="Path_12275" data-name="Path 12275" d="M319.52,235.627c-.253,0-.507,0-.76,0-.21,0-.342-.119-.34-.295s.133-.289.345-.29q.76,0,1.52,0c.212,0,.346.113.35.285s-.135.3-.355.3c-.253,0-.507,0-.76,0" transform="translate(-306.021 -225.862)" fill="#f14f4c"/>
        <path id="Path_12276" data-name="Path 12276" d="M319.534,375.992c.253,0,.506,0,.759,0,.2,0,.335.1.342.263a.312.312,0,0,1-.341.32c-.285.008-.571,0-.857,0-.221,0-.442.008-.662,0a.337.337,0,0,1-.345-.234.273.273,0,0,1,.09-.28.251.251,0,0,1,.214-.069h.8" transform="translate(-306.021 -361.305)" fill="#f14f4c"/>
        <path id="Path_12277" data-name="Path 12277" d="M319.481,118.044c.253,0,.505,0,.758,0a.3.3,0,0,1,.332.277.292.292,0,0,1-.295.3c-.544.012-1.089.01-1.633,0a.324.324,0,0,1-.29-.314.306.306,0,0,1,.33-.264c.266,0,.531,0,.8,0" transform="translate(-305.958 -113.435)" fill="#f14f4c"/>
        <path id="Path_12278" data-name="Path 12278" d="M319.533,141.642c-.259,0-.519,0-.778,0-.21,0-.345-.119-.343-.291a.325.325,0,0,1,.334-.292q.768-.008,1.536,0c.214,0,.345.123.346.291s-.138.292-.356.293h-.739" transform="translate(-306.013 -135.547)" fill="#f14f4c"/>
        <path id="Path_12279" data-name="Path 12279" d="M319.48,352.6c-.259,0-.518,0-.778,0-.2,0-.341-.112-.348-.266a.328.328,0,0,1,.35-.318q.758-.007,1.517,0a.32.32,0,0,1,.351.289c0,.178-.137.294-.354.295h-.739" transform="translate(-305.958 -338.263)" fill="#f14f4c"/>
        <path id="Path_12280" data-name="Path 12280" d="M319.625,165.015c.26,0,.519,0,.779,0a.279.279,0,0,1,.316.248.261.261,0,0,1-.228.309.816.816,0,0,1-.21.03q-.672,0-1.343,0a.809.809,0,0,1-.21-.033.281.281,0,0,1,.078-.555c.272.005.545,0,.817,0" transform="translate(-306.11 -158.571)" fill="#f14f4c"/>
        <path id="Path_12281" data-name="Path 12281" d="M319.693,328.976c.259,0,.519.005.778,0a.287.287,0,0,1,.312.257.279.279,0,0,1-.246.316.587.587,0,0,1-.134.013c-.486,0-.972,0-1.458,0-.281,0-.437-.2-.334-.424a.284.284,0,0,1,.286-.161h.8" transform="translate(-306.172 -316.126)" fill="#f14f4c"/>
        <path id="Path_12282" data-name="Path 12282" d="M319.6,305.654c-.266,0-.532-.006-.8,0a.272.272,0,0,1-.3-.24.269.269,0,0,1,.22-.318.773.773,0,0,1,.21-.031h1.343a.7.7,0,0,1,.116,0c.22.038.33.149.319.322s-.144.258-.366.259h-.74" transform="translate(-306.09 -293.153)" fill="#f14f4c"/>
        <path id="Path_12283" data-name="Path 12283" d="M319.531,188.6c-.253,0-.505,0-.758,0a.3.3,0,0,1-.332-.28.321.321,0,0,1,.322-.3c.524-.007,1.049-.008,1.573,0a.3.3,0,0,1,.319.3c0,.172-.137.284-.347.286-.259,0-.518,0-.777,0" transform="translate(-306.042 -180.673)" fill="#f14f4c"/>
        <path id="Path_12284" data-name="Path 12284" d="M319.593,94.678c-.266,0-.532-.005-.8,0a.271.271,0,0,1-.3-.242.263.263,0,0,1,.223-.314.908.908,0,0,1,.19-.03c.46,0,.92,0,1.381,0a.709.709,0,0,1,.227.046.238.238,0,0,1,.183.282.269.269,0,0,1-.268.258c-.279,0-.557,0-.836,0" transform="translate(-306.088 -90.419)" fill="#f14f4c"/>
        <path id="Path_12285" data-name="Path 12285" d="M319.554,282.031c.253,0,.505,0,.758,0,.21,0,.343.115.346.287a.3.3,0,0,1-.32.295c-.524.008-1.049.007-1.573,0a.32.32,0,0,1-.321-.3.3.3,0,0,1,.333-.279c.259,0,.518,0,.777,0" transform="translate(-306.044 -271.015)" fill="#f14f4c"/>
        <path id="Path_12286" data-name="Path 12286" d="M319.574,47.719c-.266,0-.532,0-.8,0a.271.271,0,0,1-.3-.247.275.275,0,0,1,.215-.305.547.547,0,0,1,.17-.034q.71,0,1.419,0a.775.775,0,0,1,.208.04.251.251,0,0,1,.192.314.265.265,0,0,1-.273.229c-.279,0-.557,0-.836,0" transform="translate(-306.074 -45.296)" fill="#f14f4c"/>
        <path id="Path_12287" data-name="Path 12287" d="M319.549,71.072c.253,0,.505,0,.758,0a.3.3,0,0,1,.334.279.292.292,0,0,1-.313.3c-.531.009-1.062.008-1.593,0a.324.324,0,0,1-.31-.295.3.3,0,0,1,.327-.286c.265,0,.531,0,.8,0" transform="translate(-306.027 -68.299)" fill="#f14f4c"/>
        <path id="Path_12288" data-name="Path 12288" d="M319.551,258.662c-.272,0-.544,0-.816,0a.271.271,0,0,1-.29-.233.277.277,0,0,1,.2-.315.553.553,0,0,1,.227-.039c.447,0,.894,0,1.341,0a.7.7,0,0,1,.172.021c.191.049.287.169.267.323s-.152.24-.344.241h-.758" transform="translate(-306.039 -247.996)" fill="#f14f4c"/>
        <path id="Path_12289" data-name="Path 12289" d="M319.511,211.995c.266,0,.531,0,.8,0a.276.276,0,0,1,.308.235c.031.173-.069.277-.236.325a.736.736,0,0,1-.21.028c-.44,0-.881,0-1.321,0a.545.545,0,0,1-.264-.051.278.278,0,0,1,.11-.537c.272,0,.544,0,.816,0" transform="translate(-306.006 -203.715)" fill="#f14f4c"/>
        <path id="Path_12290" data-name="Path 12290" d="M320.669,399.23l-.165.341c-.572,0-1.143,0-1.715,0a.3.3,0,0,1-.338-.276.318.318,0,0,1,.318-.306c.526-.007,1.052-.006,1.578,0a.323.323,0,0,1,.322.238" transform="translate(-306.051 -383.403)" fill="#f14f4c"/>
        <path id="Path_12291" data-name="Path 12291" d="M320.425,422.945a3.511,3.511,0,0,0,.026.542.488.488,0,0,1-.226.044q-.671,0-1.343,0a.561.561,0,0,1-.228-.04.278.278,0,0,1-.2-.3.274.274,0,0,1,.3-.249c.558,0,1.116,0,1.674,0" transform="translate(-306.05 -406.422)" fill="#f14f4c"/>
        <path id="Path_12292" data-name="Path 12292" d="M385.56,211.982c.11,0,.22,0,.33,0a.272.272,0,0,1,.3.241.256.256,0,0,1-.192.3,1.662,1.662,0,0,1-.878,0c-.17-.046-.19-.2-.162-.35a.225.225,0,0,1,.251-.192c.116,0,.233,0,.349,0" transform="translate(-369.951 -203.703)" fill="#f14f4c"/>
        <path id="Path_12293" data-name="Path 12293" d="M277.457,47.334c-.117,0-.233,0-.35,0a.28.28,0,0,1-.1-.539,1.6,1.6,0,0,1,.9,0,.279.279,0,0,1-.1.537c-.117,0-.233,0-.35,0Z" transform="translate(-266.059 -44.91)" fill="#f14f4c"/>
        <path id="Path_12294" data-name="Path 12294" d="M385.557,258.334c-.11,0-.22,0-.33,0a.232.232,0,0,1-.27-.194c-.028-.149-.007-.3.164-.349a1.662,1.662,0,0,1,.878,0,.256.256,0,0,1,.191.3.267.267,0,0,1-.284.24c-.116,0-.233,0-.349,0" transform="translate(-369.949 -247.669)" fill="#f14f4c"/>
        <path id="Path_12295" data-name="Path 12295" d="M385.653,165.037h.331a.259.259,0,0,1,.265.239.251.251,0,0,1-.186.3,1.808,1.808,0,0,1-.864.006c-.161-.038-.206-.166-.183-.319a.247.247,0,0,1,.268-.229c.123,0,.247,0,.37,0" transform="translate(-370.009 -158.593)" fill="#f14f4c"/>
        <path id="Path_12296" data-name="Path 12296" d="M385.658,94.452c-.117,0-.234,0-.351,0a.251.251,0,0,1-.276-.242.247.247,0,0,1,.2-.31,1.883,1.883,0,0,1,.846.007.254.254,0,0,1,.193.3.261.261,0,0,1-.278.246c-.11,0-.221,0-.331,0" transform="translate(-370.027 -90.194)" fill="#f14f4c"/>
        <path id="Path_12297" data-name="Path 12297" d="M385.7,235.568c-.1,0-.208,0-.311,0-.21-.011-.31-.11-.308-.3s.1-.278.3-.286.428-.006.642,0a.292.292,0,1,1-.01.583c-.1,0-.208,0-.311,0" transform="translate(-370.082 -225.802)" fill="#f14f4c"/>
        <path id="Path_12298" data-name="Path 12298" d="M385.7,71.076c.1,0,.195,0,.292,0a.3.3,0,0,1,.327.265.313.313,0,0,1-.286.314,5.553,5.553,0,0,1-.7,0,.282.282,0,0,1-.254-.311c.009-.177.1-.259.29-.267h.331" transform="translate(-370.075 -68.302)" fill="#f14f4c"/>
        <path id="Path_12299" data-name="Path 12299" d="M385.63,305.342c-.123,0-.247.006-.37,0a.242.242,0,0,1-.244-.232c-.02-.145.022-.272.171-.309a1.69,1.69,0,0,1,.9.011.246.246,0,0,1,.163.3.259.259,0,0,1-.25.233c-.123,0-.247,0-.37,0" transform="translate(-370.011 -292.842)" fill="#f14f4c"/>
        <path id="Path_12300" data-name="Path 12300" d="M385.619,282.045c.1,0,.208,0,.311,0a.278.278,0,0,1,.31.259.268.268,0,0,1-.236.308,2.484,2.484,0,0,1-.774,0,.265.265,0,0,1-.223-.333.253.253,0,0,1,.281-.236h.331" transform="translate(-370.002 -271.03)" fill="#f14f4c"/>
        <path id="Path_12301" data-name="Path 12301" d="M385.617,141.442h-.311a.253.253,0,0,1-.287-.229.259.259,0,0,1,.219-.331,2.361,2.361,0,0,1,.772-.008.268.268,0,0,1,.242.3.277.277,0,0,1-.3.265h-.331" transform="translate(-370.013 -135.348)" fill="#f14f4c"/>
        <path id="Path_12302" data-name="Path 12302" d="M385.671,118.039c.1,0,.207,0,.311,0,.187.007.316.114.313.277a.281.281,0,0,1-.259.294,3.962,3.962,0,0,1-.717,0,.264.264,0,0,1-.263-.317c.015-.177.107-.251.322-.254.1,0,.194,0,.292,0" transform="translate(-370.053 -113.431)" fill="#f14f4c"/>
        <path id="Path_12303" data-name="Path 12303" d="M385.7,188.558c-.1,0-.207,0-.311,0-.2,0-.3-.1-.3-.277a.287.287,0,0,1,.282-.305c.213-.01.428-.01.641,0a.322.322,0,0,1,.318.306c-.01.17-.134.273-.336.277-.1,0-.194,0-.291,0" transform="translate(-370.08 -180.628)" fill="#f14f4c"/>
        <path id="Path_12304" data-name="Path 12304" d="M385.62,352.385c-.11,0-.22,0-.331,0a.248.248,0,0,1-.272-.224.255.255,0,0,1,.195-.329,2.153,2.153,0,0,1,.808-.011.262.262,0,0,1,.229.294.277.277,0,0,1-.3.27h-.33" transform="translate(-370.011 -338.048)" fill="#f14f4c"/>
        <path id="Path_12305" data-name="Path 12305" d="M385.613,329.568a1.3,1.3,0,0,1-.419-.035.267.267,0,0,1-.175-.326.241.241,0,0,1,.253-.222c.22,0,.441,0,.661,0a.294.294,0,0,1,.324.269.331.331,0,0,1-.29.314.245.245,0,0,1-.039,0h-.315" transform="translate(-370.013 -316.132)" fill="#f14f4c"/>
        <path id="Path_12306" data-name="Path 12306" d="M385.622,47.386c-.123,0-.247,0-.369,0a.242.242,0,0,1-.248-.228c-.021-.144.018-.274.165-.312a1.672,1.672,0,0,1,.881,0,.255.255,0,0,1,.189.3.268.268,0,0,1-.287.237c-.11,0-.22,0-.331,0Z" transform="translate(-369.999 -44.963)" fill="#f14f4c"/>
        <path id="Path_12307" data-name="Path 12307" d="M277.894,71.042c.1,0,.194,0,.291,0a.289.289,0,1,1,.049.577,3.859,3.859,0,0,1-.717,0,.267.267,0,0,1-.248-.315c.015-.175.1-.257.295-.262.11,0,.22,0,.33,0Z" transform="translate(-266.476 -68.269)" fill="#f14f4c"/>
        <path id="Path_12308" data-name="Path 12308" d="M277.782,94.424c-.1,0-.207,0-.311,0-.139,0-.259-.044-.285-.2-.031-.193.03-.311.214-.352a1.892,1.892,0,0,1,.787,0,.281.281,0,0,1-.075.555h-.33Z" transform="translate(-266.391 -90.164)" fill="#f14f4c"/>
        <path id="Path_12309" data-name="Path 12309" d="M385.995,376.453a1.909,1.909,0,0,0-.889.1c-.107-.043-.227-.072-.271-.2a.285.285,0,0,1,.277-.388c.188-.005.376,0,.564,0,.352,0,.459.165.32.492" transform="translate(-369.823 -361.276)" fill="#f14f4c"/>
        <path id="Path_12310" data-name="Path 12310" d="M277.741,118.582c-.033-.318-.046-.328-.472-.348.007-.175.124-.233.273-.238.213-.007.427,0,.64,0,.193,0,.317.105.327.262a.319.319,0,0,1-.321.321c-.148.008-.3,0-.446,0" transform="translate(-266.478 -113.386)" fill="#f14f4c"/>
        <path id="Path_12311" data-name="Path 12311" d="M289.117,141.6a3.172,3.172,0,0,1,0-.544c.1,0,.2,0,.307,0,.171,0,.334,0,.429.182s-.038.285-.115.411a1.714,1.714,0,0,0-.617-.05" transform="translate(-277.85 -135.553)" fill="#f14f4c"/>
        <path id="Path_12312" data-name="Path 12312" d="M306.494,284.575q0-.21,0-.421c.152.14.114.28,0,.421" transform="translate(-294.56 -273.056)" fill="#f14f4c"/>
        <path id="Path_12313" data-name="Path 12313" d="M306.483,354.6l0-.421c.112.141.151.281,0,.421" transform="translate(-294.551 -340.341)" fill="#f14f4c"/>
        <path id="Path_12314" data-name="Path 12314" d="M306.488,331.559l0-.421c.153.14.114.28,0,.421" transform="translate(-294.554 -318.204)" fill="#f14f4c"/>
        <path id="Path_12315" data-name="Path 12315" d="M306.491,401.574q0-.21,0-.421c.113.141.151.281,0,.421" transform="translate(-294.558 -385.484)" fill="#f14f4c"/>
        <path id="Path_12316" data-name="Path 12316" d="M306.494,190.62q0-.21,0-.421c.114.14.151.281,0,.421" transform="translate(-294.561 -182.772)" fill="#f14f4c"/>
        <path id="Path_12317" data-name="Path 12317" d="M306.5,448.554q0-.21,0-.421c.115.14.15.281,0,.421" transform="translate(-294.566 -430.628)" fill="#f14f4c"/>
        <path id="Path_12318" data-name="Path 12318" d="M306.438,308.493q0-.192,0-.385c.158.128.125.256,0,.385" transform="translate(-294.506 -296.074)" fill="#f14f4c"/>
        <path id="Path_12319" data-name="Path 12319" d="M306.444,425.481V425.1c.125.128.156.257,0,.385" transform="translate(-294.513 -408.491)" fill="#f14f4c"/>
        <path id="Path_12320" data-name="Path 12320" d="M306.435,378.506q0-.192,0-.385c.123.129.156.257,0,.385" transform="translate(-294.505 -363.352)" fill="#f14f4c"/>
        <path id="Path_12321" data-name="Path 12321" d="M306.437,167.547q0-.192,0-.385c.124.129.156.257,0,.385" transform="translate(-294.506 -160.635)" fill="#f14f4c"/>
        <path id="Path_12322" data-name="Path 12322" d="M306.5,237.6v-.42a.277.277,0,0,1,0,.42" transform="translate(-294.569 -227.919)" fill="#f14f4c"/>
        <path id="Path_12323" data-name="Path 12323" d="M306.447,214.529q0-.192,0-.385a.236.236,0,0,1,0,.385" transform="translate(-294.516 -205.782)" fill="#f14f4c"/>
        <path id="Path_12324" data-name="Path 12324" d="M306.447,261.511q0-.192,0-.385a.236.236,0,0,1,0,.385" transform="translate(-294.516 -250.928)" fill="#f14f4c"/>
        <path id="Path_12325" data-name="Path 12325" d="M172.906,123.817a4.806,4.806,0,0,0-.079,1.2l-1.045.01-.2-.01q0-.054,0-.108v-.279q0-.29,0-.58a.293.293,0,0,1,.329-.233c.09,0,.179-.01.269-.015l0,0,.72.011" transform="translate(-164.921 -118.97)" fill="#c4cbd2"/>
        <path id="Path_12326" data-name="Path 12326" d="M168.894,307.079c.241.047.311.127.314.361q0,.146,0,.292c0,.235-.073.314-.314.362-.3-.1-.27-.344-.275-.584a.388.388,0,0,1,.274-.431" transform="translate(-162.074 -295.086)" fill="#9fa8b0"/>
        <path id="Path_12327" data-name="Path 12327" d="M168.892,171.043c.24.048.309.127.313.362,0,.084,0,.168,0,.252,0,.276-.042.329-.314.4-.323-.106-.271-.376-.272-.623a.361.361,0,0,1,.273-.391" transform="translate(-162.071 -164.365)" fill="#9fa8b0"/>
        <path id="Path_12328" data-name="Path 12328" d="M168.814,409.123c.316.091.331.132.316.694-.006.212-.125.3-.314.32a.316.316,0,0,1-.268-.31,1.929,1.929,0,0,1,0-.406c.014-.16.135-.237.267-.3" transform="translate(-161.994 -393.143)" fill="#9fa8b0"/>
        <path id="Path_12329" data-name="Path 12329" d="M168.885,205.056c.287.087.313.122.314.421,0,.078,0,.155,0,.233,0,.233-.074.313-.314.361a.4.4,0,0,1-.274-.45c0-.236-.015-.473.275-.565" transform="translate(-162.064 -197.049)" fill="#9fa8b0"/>
        <path id="Path_12330" data-name="Path 12330" d="M168.923,375.115c.275.08.313.129.314.4,0,.084,0,.168,0,.252,0,.238-.065.309-.313.358a.36.36,0,0,1-.273-.391c0-.077,0-.155,0-.232a.364.364,0,0,1,.272-.391" transform="translate(-162.103 -360.463)" fill="#9fa8b0"/>
        <path id="Path_12331" data-name="Path 12331" d="M168.874,239.059c.308.112.314.121.314.46,0,.071,0,.143,0,.214-.006.215-.089.3-.314.341-.243-.078-.276-.265-.275-.488s.01-.442.275-.527" transform="translate(-162.054 -229.723)" fill="#9fa8b0"/>
        <path id="Path_12332" data-name="Path 12332" d="M168.878,341.1c.31.083.332.128.314.672-.007.216-.08.3-.313.342-.3-.1-.268-.346-.275-.586a.39.39,0,0,1,.275-.428" transform="translate(-162.058 -327.78)" fill="#9fa8b0"/>
        <path id="Path_12333" data-name="Path 12333" d="M168.876,273.064c.3.108.314.121.314.459,0,.071,0,.142,0,.214-.006.215-.082.3-.314.342-.279-.088-.272-.313-.275-.546s.045-.394.275-.469" transform="translate(-162.055 -262.4)" fill="#9fa8b0"/>
        <path id="Path_12334" data-name="Path 12334" d="M193.591,381q0-1.841,0-3.682c0-.233.068-.3.3-.3.279,0,.557,0,.836,0q0,1.989,0,3.978l-1.133,0" transform="translate(-186.068 -362.29)" fill="#7bdde9"/>
        <path id="Path_12335" data-name="Path 12335" d="M238.338,377.02c.285,0,.57,0,.855,0,.208,0,.281.073.281.281q0,1.851,0,3.7l-1.133,0q0-1.989,0-3.978" transform="translate(-229.068 -362.291)" fill="#7bdde9"/>
        <path id="Path_12336" data-name="Path 12336" d="M223.235,377.106q0,1.989,0,3.978h-.616q0-1.989,0-3.978h.612" transform="translate(-213.965 -362.376)" fill="#9fa8b0"/>
        <path id="Path_12337" data-name="Path 12337" d="M255.883,341.93a1.846,1.846,0,0,1,0,.214.279.279,0,0,1-.277.275.268.268,0,0,1-.3-.251,2.084,2.084,0,0,1,0-.486.289.289,0,0,1,.575.015c.005.078,0,.156,0,.234" transform="translate(-245.361 -328.089)" fill="#9fa8b0"/>
        <path id="Path_12338" data-name="Path 12338" d="M191.113,171.639a1.667,1.667,0,0,1,0,.234.3.3,0,0,1-.288.271.3.3,0,0,1-.29-.285c-.008-.136-.007-.273,0-.409a.3.3,0,0,1,.288-.308.3.3,0,0,1,.294.3c0,.065,0,.13,0,.195h0" transform="translate(-183.125 -164.458)" fill="#9fa8b0"/>
        <path id="Path_12339" data-name="Path 12339" d="M190.574,341.856a.785.785,0,0,1,.024-.286.275.275,0,0,1,.3-.175.286.286,0,0,1,.26.274,3.5,3.5,0,0,1,0,.429.29.29,0,1,1-.58,0c0-.071,0-.143,0-.236" transform="translate(-183.169 -328.057)" fill="#9fa8b0"/>
        <path id="Path_12340" data-name="Path 12340" d="M255.96,171.637a1.55,1.55,0,0,1-.028.308.264.264,0,0,1-.3.194.285.285,0,0,1-.26-.274,3.455,3.455,0,0,1,0-.429.29.29,0,1,1,.58.005c0,.065,0,.13,0,.195h.008" transform="translate(-245.43 -164.461)" fill="#9fa8b0"/>
        <path id="Path_12341" data-name="Path 12341" d="M255.943,307.8c0,.065,0,.13,0,.195a.294.294,0,0,1-.282.293.289.289,0,0,1-.3-.276,3.2,3.2,0,0,1,0-.448.3.3,0,0,1,.3-.274.284.284,0,0,1,.276.277c.006.077,0,.156,0,.234" transform="translate(-245.421 -295.286)" fill="#9fa8b0"/>
        <path id="Path_12342" data-name="Path 12342" d="M190.581,307.751c0-.065,0-.13,0-.195a.293.293,0,0,1,.279-.3.315.315,0,0,1,.3.3,3.68,3.68,0,0,1,0,.409.29.29,0,1,1-.581,0c0-.071,0-.143,0-.214" transform="translate(-183.176 -295.259)" fill="#9fa8b0"/>
        <path id="Path_12343" data-name="Path 12343" d="M255.923,239.739c0,.071.005.143,0,.214a.283.283,0,0,1-.291.28.3.3,0,0,1-.286-.271,2.815,2.815,0,0,1,0-.447.31.31,0,0,1,.3-.281.294.294,0,0,1,.283.291c.005.071,0,.143,0,.214" transform="translate(-245.401 -229.891)" fill="#9fa8b0"/>
        <path id="Path_12344" data-name="Path 12344" d="M190.587,239.757c0-.071-.005-.143,0-.214a.284.284,0,0,1,.28-.271.3.3,0,0,1,.3.276,3.289,3.289,0,0,1,0,.447.306.306,0,0,1-.3.273.284.284,0,0,1-.275-.277c-.006-.077,0-.156,0-.234" transform="translate(-183.181 -229.927)" fill="#9fa8b0"/>
        <path id="Path_12345" data-name="Path 12345" d="M255.937,273.761a1.858,1.858,0,0,1,0,.233.267.267,0,0,1-.275.251.274.274,0,0,1-.3-.25,2.864,2.864,0,0,1,0-.467.315.315,0,0,1,.3-.278.293.293,0,0,1,.278.3c0,.071,0,.143,0,.214h0" transform="translate(-245.417 -262.579)" fill="#9fa8b0"/>
        <path id="Path_12346" data-name="Path 12346" d="M190.58,273.732c0-.065,0-.13,0-.195a.294.294,0,0,1,.281-.293.317.317,0,0,1,.3.3,3.875,3.875,0,0,1,0,.409.308.308,0,0,1-.286.292.3.3,0,0,1-.3-.3c0-.071,0-.143,0-.214" transform="translate(-183.174 -262.572)" fill="#9fa8b0"/>
        <path id="Path_12347" data-name="Path 12347" d="M191.113,205.734c0,.065.005.13,0,.195a.322.322,0,0,1-.293.288.307.307,0,0,1-.286-.291c-.007-.136-.007-.273,0-.409a.294.294,0,0,1,.291-.3.3.3,0,0,1,.29.306c0,.071,0,.143,0,.214Z" transform="translate(-183.125 -197.2)" fill="#9fa8b0"/>
        <path id="Path_12348" data-name="Path 12348" d="M255.925,205.888a.787.787,0,0,1-.021.277.289.289,0,0,1-.554-.069,2.509,2.509,0,0,1,0-.486.267.267,0,0,1,.293-.254.273.273,0,0,1,.282.267c.008.077,0,.156,0,.264" transform="translate(-245.403 -197.338)" fill="#9fa8b0"/>
        <path id="Path_12349" data-name="Path 12349" d="M277.9,205.767a1.029,1.029,0,0,1-.031.322.275.275,0,0,1-.3.195.269.269,0,0,1-.254-.272c-.007-.136,0-.272,0-.408a.273.273,0,0,1,.258-.308.279.279,0,0,1,.31.236,1.32,1.32,0,0,1,.021.235" transform="translate(-266.52 -197.277)" fill="#9fa8b0"/>
        <path id="Path_12350" data-name="Path 12350" d="M277.328,376.012c0-.071,0-.143,0-.214a.284.284,0,0,1,.558-.066,1.145,1.145,0,0,1,0,.556.263.263,0,0,1-.3.223.276.276,0,0,1-.263-.3c0-.065,0-.13,0-.194Z" transform="translate(-266.534 -360.854)" fill="#9fa8b0"/>
        <path id="Path_12351" data-name="Path 12351" d="M277.319,171.669c0-.058,0-.117,0-.175a.282.282,0,0,1,.256-.312.306.306,0,0,1,.321.274,2.117,2.117,0,0,1,0,.446.3.3,0,0,1-.32.272.282.282,0,0,1-.257-.311q0-.1,0-.194" transform="translate(-266.525 -164.495)" fill="#9fa8b0"/>
        <path id="Path_12352" data-name="Path 12352" d="M277.329,409.892c0-.065,0-.13,0-.194a.288.288,0,0,1,.261-.31.305.305,0,0,1,.318.279,2.5,2.5,0,0,1,0,.369c-.008.206-.129.348-.29.349-.176,0-.29-.137-.293-.356,0-.045,0-.091,0-.136" transform="translate(-266.535 -393.393)" fill="#9fa8b0"/>
        <path id="Path_12353" data-name="Path 12353" d="M277.848,307.781a.753.753,0,0,1-.024.287.285.285,0,0,1-.3.2.27.27,0,0,1-.254-.274c-.009-.135-.006-.272,0-.408a.294.294,0,0,1,.277-.315.322.322,0,0,1,.3.278,1.6,1.6,0,0,1,0,.233" transform="translate(-266.474 -295.269)" fill="#9fa8b0"/>
        <path id="Path_12354" data-name="Path 12354" d="M277.837,341.96c.009.17.018.343-.162.442a.274.274,0,0,1-.412-.22,4.085,4.085,0,0,1,0-.427c.006-.179.11-.306.261-.306a.3.3,0,0,1,.313.259,1.424,1.424,0,0,1,0,.251" transform="translate(-266.465 -328.113)" fill="#9fa8b0"/>
        <path id="Path_12355" data-name="Path 12355" d="M277.334,239.879a2.239,2.239,0,0,1,0-.233.268.268,0,0,1,.25-.254.259.259,0,0,1,.3.192,1.066,1.066,0,0,1,0,.591.26.26,0,0,1-.292.2.275.275,0,0,1-.262-.285c0-.071,0-.142,0-.213h0" transform="translate(-266.538 -230.041)" fill="#9fa8b0"/>
        <path id="Path_12356" data-name="Path 12356" d="M233.925,239.78c0,.071,0,.142,0,.214a.262.262,0,0,1-.247.275.255.255,0,0,1-.3-.19.963.963,0,0,1,0-.61.257.257,0,0,1,.3-.184.261.261,0,0,1,.24.263c0,.078,0,.155,0,.233" transform="translate(-224.257 -229.935)" fill="#9fa8b0"/>
        <path id="Path_12357" data-name="Path 12357" d="M212.486,239.744c0-.078,0-.156,0-.233a.261.261,0,0,1,.235-.247.254.254,0,0,1,.3.164.922.922,0,0,1,0,.646.249.249,0,0,1-.289.176.264.264,0,0,1-.25-.273c0-.078,0-.155,0-.233h0" transform="translate(-204.225 -229.915)" fill="#9fa8b0"/>
        <path id="Path_12358" data-name="Path 12358" d="M277.316,273.754c0-.058,0-.117,0-.175a.3.3,0,0,1,.275-.317.314.314,0,0,1,.3.275,2.207,2.207,0,0,1,0,.445.313.313,0,0,1-.3.279.3.3,0,0,1-.279-.314c0-.065,0-.129,0-.194" transform="translate(-266.522 -262.59)" fill="#9fa8b0"/>
        <path id="Path_12359" data-name="Path 12359" d="M233.877,273.886c0,.078,0,.155,0,.233a.261.261,0,0,1-.229.253.252.252,0,0,1-.3-.156.911.911,0,0,1-.01-.646.251.251,0,0,1,.3-.18.263.263,0,0,1,.239.282c0,.071,0,.142,0,.214h0" transform="translate(-224.21 -262.707)" fill="#9fa8b0"/>
        <path id="Path_12360" data-name="Path 12360" d="M212.457,273.9c0-.065,0-.13,0-.194a.281.281,0,0,1,.553-.077,1.024,1.024,0,0,1,0,.573.28.28,0,0,1-.548-.069c0-.078,0-.155,0-.233Z" transform="translate(-204.197 -262.734)" fill="#9fa8b0"/>
        <path id="Path_12361" data-name="Path 12361" d="M233.944,307.9c0,.078,0,.156,0,.233a.262.262,0,0,1-.249.254.257.257,0,0,1-.29-.178.98.98,0,0,1-.007-.61.257.257,0,0,1,.293-.2.265.265,0,0,1,.256.287c0,.071,0,.142,0,.214h0" transform="translate(-224.277 -295.387)" fill="#9fa8b0"/>
        <path id="Path_12362" data-name="Path 12362" d="M212.456,307.847c0-.052,0-.1,0-.155,0-.2.105-.332.274-.331a.292.292,0,0,1,.3.278,1.155,1.155,0,0,1-.016.5.281.281,0,0,1-.555-.077c0-.071,0-.142,0-.214" transform="translate(-204.196 -295.356)" fill="#9fa8b0"/>
        <path id="Path_12363" data-name="Path 12363" d="M233.888,342.014c0,.078,0,.155,0,.233a.262.262,0,0,1-.235.247.253.253,0,0,1-.3-.163.929.929,0,0,1-.006-.645.256.256,0,0,1,.31-.171.253.253,0,0,1,.231.266c0,.078,0,.155,0,.233h0" transform="translate(-224.221 -328.17)" fill="#9fa8b0"/>
        <path id="Path_12364" data-name="Path 12364" d="M212.48,341.985c0-.065,0-.129,0-.194a.256.256,0,0,1,.242-.276.258.258,0,0,1,.3.184.957.957,0,0,1-.007.628.254.254,0,0,1-.294.17.263.263,0,0,1-.243-.26c0-.084,0-.168,0-.252h0" transform="translate(-204.22 -328.172)" fill="#9fa8b0"/>
        <path id="Path_12365" data-name="Path 12365" d="M233.965,205.778c0,.071,0,.142,0,.213a.254.254,0,0,1-.243.275.263.263,0,0,1-.308-.2,1.006,1.006,0,0,1,.007-.591.28.28,0,0,1,.544.073c0,.078,0,.155,0,.233h0" transform="translate(-224.297 -197.265)" fill="#9fa8b0"/>
        <path id="Path_12366" data-name="Path 12366" d="M212.452,205.775c0-.078,0-.155,0-.233a.28.28,0,0,1,.543-.078,1.036,1.036,0,0,1,.014.573.267.267,0,0,1-.312.224.258.258,0,0,1-.247-.292c0-.065,0-.129,0-.194h0" transform="translate(-204.191 -197.26)" fill="#9fa8b0"/>
        <path id="Path_12367" data-name="Path 12367" d="M212.454,171.76c0-.078,0-.155,0-.233a.262.262,0,0,1,.241-.261.259.259,0,0,1,.3.186,1.038,1.038,0,0,1,.013.573.266.266,0,0,1-.313.223.259.259,0,0,1-.245-.294c0-.065,0-.129,0-.194Z" transform="translate(-204.193 -164.575)" fill="#9fa8b0"/>
        <path id="Path_12368" data-name="Path 12368" d="M233.949,171.767c0,.065,0,.129,0,.194a.255.255,0,0,1-.241.278.261.261,0,0,1-.31-.2.978.978,0,0,1,.011-.609.255.255,0,0,1,.293-.173.263.263,0,0,1,.245.258c0,.084,0,.168,0,.252h0" transform="translate(-224.281 -164.566)" fill="#9fa8b0"/>
        <path id="Path_12369" data-name="Path 12369" d="M374.226,448.981l-.04-.042c.027,0,.036.019.04.042" transform="translate(-359.608 -431.403)" fill="#fc8072"/>
      </g>
    </g>
  </g>
</svg>
