<svg xmlns="http://www.w3.org/2000/svg" width="24" height="24" viewBox="0 0 24 24">
  <g id="CivilRegister" transform="translate(-8491 -4216)">
    <rect id="Rectangle_811" data-name="Rectangle 811" width="24" height="24" transform="translate(8491 4216)" fill="none"/>
    <g id="CivilRegistry" transform="translate(8492.326 4217.117)">
      <g id="Group_31818" data-name="Group 31818" transform="translate(0.674 1.883)">
        <path id="Path_12371" data-name="Path 12371" d="M.674,7.49C.762,7.4.767,7.248.9,7.2a4.476,4.476,0,0,0,.572.6c.306.3.592.63.928.9,0,.078-.011.156-.011.233q0,5.406,0,10.812c0,.182,0,.364.006.546l-.007.826q-.741.779-1.52,1.519c-.11-.059-.118-.193-.2-.273Z" transform="translate(-0.674 -6.991)" fill="#f0c42c"/>
        <path id="Path_12372" data-name="Path 12372" d="M8.055,3.595c-.336-.274-.621-.6-.928-.9a4.474,4.474,0,0,1-.572-.6.62.62,0,0,1,.465-.2,1.034,1.034,0,0,1,.156,0H25.47a.713.713,0,0,1,.621.206c-.022.08-.092.123-.145.177-.444.459-.917.891-1.345,1.367a4.433,4.433,0,0,0-.9-.024c-.084,0-.168-.011-.253-.011H8.289c-.078,0-.156,0-.234-.005" transform="translate(-6.325 -1.883)" fill="#f0c42c"/>
        <path id="Path_12373" data-name="Path 12373" d="M466.649,8.741c.428-.476.9-.907,1.345-1.367.053-.055.123-.1.145-.177a.514.514,0,0,1,.23.405.8.8,0,0,1,0,.136q0,7.031,0,14.062a.95.95,0,0,1-.282.719c-.12-.022-.173-.129-.25-.2-.407-.385-.777-.809-1.2-1.175,0-.052.014-.1.014-.154q0-6.123,0-12.246" transform="translate(-448.372 -6.989)" fill="#f0c400"/>
        <path id="Path_12374" data-name="Path 12374" d="M5.737,363.888q.781-.739,1.52-1.519c.052,0,.1.013.155.013H17.605q0,.867,0,1.735l-11.254,0a.716.716,0,0,1-.613-.226" transform="translate(-5.539 -348.24)" fill="#f0c42c"/>
        <path id="Path_12375" data-name="Path 12375" d="M308.51,333.881q0-.867,0-1.735,0-.613,0-1.225a2.03,2.03,0,0,0,.292,0,.6.6,0,0,1,.614.322,2.4,2.4,0,0,0,.384.438.369.369,0,0,0,.552,0,2.147,2.147,0,0,0,.281-.346c.171-.232.337-.47.682-.424.1.013.193.01.29.015l0,1.218q0,.872,0,1.744c0,.474,0,.948,0,1.422,0,.373-.231.511-.57.345q-.376-.184-.747-.377a.459.459,0,0,0-.462,0c-.252.135-.508.261-.765.385a.351.351,0,0,1-.553-.339c0-.48,0-.961,0-1.441" transform="translate(-296.445 -318.005)" fill="#fe5161"/>
        <path id="Path_12376" data-name="Path 12376" d="M387.634,364.245q0-.872,0-1.745c.09.005.181.015.272.015l2.825,0c.426.366.8.79,1.2,1.175.078.073.131.18.25.2a1.017,1.017,0,0,1-.83.343h-3.483c-.078,0-.156,0-.233,0" transform="translate(-372.465 -348.366)" fill="#f0c42c"/>
        <path id="Path_12377" data-name="Path 12377" d="M61.072,58.022l-2.825,0c-.091,0-.181-.01-.272-.015q0-.609,0-1.218c.123.011.245.023.368.031.357.024.54-.156.515-.514a3.97,3.97,0,0,0-.056-.4.745.745,0,0,1,.323-.848,2.533,2.533,0,0,0,.422-.344.4.4,0,0,0,0-.631,2.446,2.446,0,0,0-.422-.345.735.735,0,0,1-.325-.812c.023-.134.042-.269.058-.4.044-.364-.114-.543-.478-.537a2.091,2.091,0,0,0-.349.031.851.851,0,0,1-1-.4,1.741,1.741,0,0,0-.288-.342.379.379,0,0,0-.612,0,3.7,3.7,0,0,0-.383.466.654.654,0,0,1-.635.294,4.949,4.949,0,0,0-.718-.055.346.346,0,0,0-.368.366,1.828,1.828,0,0,0,.028.446.851.851,0,0,1-.4,1.02,1.59,1.59,0,0,0-.277.215c-.281.259-.285.464-.006.722a5.546,5.546,0,0,0,.439.355.62.62,0,0,1,.269.608c-.025.213-.047.426-.052.64-.009.345.162.5.511.467l.349-.031q0,.613,0,1.225H44.683c-.052,0-.1-.008-.155-.013l.007-.826a.357.357,0,0,0,.031-.089,11.074,11.074,0,0,1,.3-1.947,10.312,10.312,0,0,1,.934-2.42,10.183,10.183,0,0,1,1.508-2.086,10.078,10.078,0,0,1,1.14-1.056,1.927,1.927,0,0,1,.652-.441c-.033.122-.118.234-.066.373.058.159.217.247.465.247h5.875c.273,0,.547,0,.82,0a.377.377,0,0,0,.4-.318c.024-.231-.142-.381-.428-.381q-3.289,0-6.577,0a1.051,1.051,0,0,0-.492.082c0-.055.038-.076.075-.1.367-.263.754-.492,1.14-.726.155-.094.349-.133.461-.3.071,0,.143-.007.214-.007h4.234a.333.333,0,1,0,.021-.665c-.065,0-.13,0-.2,0l-2.555-.009c.008-.044.04-.059.079-.073.34-.125.675-.267,1.02-.376a25.743,25.743,0,0,1,3.172-.8,25.2,25.2,0,0,1,3.3-.417c.05,0,.108.012.127-.059a4.43,4.43,0,0,1,.9.024q0,6.123,0,12.246c0,.051-.009.1-.014.154M49.994,53.133a1.714,1.714,0,0,0,.566-.839.8.8,0,0,0-.515-1.063,1.949,1.949,0,0,0-1.392.007.788.788,0,0,0-.5,1.006,1.6,1.6,0,0,0,.469.793c.087.082.092.113-.03.165A4.586,4.586,0,0,1,47,53.537c-.245.012-.395.133-.4.335s.155.337.411.339a4.474,4.474,0,0,0,2.118-.509.444.444,0,0,1,.452,0,4.6,4.6,0,0,0,2.177.512.336.336,0,1,0,.007-.672c-.149-.009-.3-.017-.446-.034a3.96,3.96,0,0,1-1.326-.371m-.641,2.474c.774,0,1.547,0,2.321,0,.278,0,.43-.122.435-.338.006-.239-.126-.359-.4-.359h-4.68a.725.725,0,0,0-.117,0,.341.341,0,0,0-.3.288.318.318,0,0,0,.2.363.574.574,0,0,0,.266.044h2.282" transform="translate(-42.809 -43.869)" fill="#fefefe"/>
        <path id="Path_12378" data-name="Path 12378" d="M60.817,45.576c-.02.075-.08.06-.132.063a25.479,25.479,0,0,0-3.429.447,26.149,26.149,0,0,0-3.3.859c-.359.117-.707.27-1.061.4-.041.016-.074.031-.083.078-.054,0-.108.008-.161.008-.653,0-1.307,0-1.96,0-.255,0-.44.157-.424.366a.367.367,0,0,0,.415.353,2.578,2.578,0,0,1,.343,0c-.116.174-.318.216-.479.317-.4.251-.8.5-1.185.778-.038.028-.082.051-.078.11h0a2,2,0,0,0-.679.473,10.609,10.609,0,0,0-1.186,1.131A10.9,10.9,0,0,0,45.85,53.2a11.249,11.249,0,0,0-.971,2.592,12.193,12.193,0,0,0-.312,2.086.39.39,0,0,1-.032.1c0-.195-.007-.39-.007-.585q0-5.791,0-11.582c0-.083.007-.167.011-.25.081,0,.162.006.243.006H60.554c.088,0,.175.008.263.012" transform="translate(-42.81 -43.846)" fill="#fefefe"/>
        <path id="Path_12379" data-name="Path 12379" d="M266.289,192.469l-.349.031c-.348.029-.52-.122-.511-.467.006-.214.028-.427.052-.64a.62.62,0,0,0-.269-.608,5.537,5.537,0,0,1-.439-.355c-.279-.257-.275-.462.006-.722a1.592,1.592,0,0,1,.277-.215.851.851,0,0,0,.4-1.02,1.826,1.826,0,0,1-.028-.446.346.346,0,0,1,.368-.366,4.944,4.944,0,0,1,.718.055.654.654,0,0,0,.635-.294,3.692,3.692,0,0,1,.383-.466.379.379,0,0,1,.612,0,1.741,1.741,0,0,1,.288.342.851.851,0,0,0,1,.4,2.091,2.091,0,0,1,.349-.031c.364-.006.522.173.478.537-.016.135-.035.27-.058.4a.735.735,0,0,0,.325.812,2.445,2.445,0,0,1,.422.345.4.4,0,0,1,0,.631,2.53,2.53,0,0,1-.422.344.745.745,0,0,0-.323.848,3.978,3.978,0,0,1,.056.4c.025.358-.158.537-.515.514-.123-.008-.245-.021-.368-.031-.1,0-.194,0-.29-.015-.346-.046-.512.193-.682.424a2.145,2.145,0,0,1-.281.346.369.369,0,0,1-.552,0,2.4,2.4,0,0,1-.384-.438.6.6,0,0,0-.614-.322,2.026,2.026,0,0,1-.292,0m2.739-2.373a1.178,1.178,0,0,0-1.164-1.223,1.206,1.206,0,1,0-.017,2.412,1.165,1.165,0,0,0,1.181-1.189" transform="translate(-254.223 -179.554)" fill="#fc7a73"/>
        <path id="Path_12380" data-name="Path 12380" d="M100.8,188.536a3.959,3.959,0,0,0,1.326.371c.148.017.3.025.446.034a.336.336,0,1,1-.007.672,4.6,4.6,0,0,1-2.177-.512.444.444,0,0,0-.452,0,4.475,4.475,0,0,1-2.118.509c-.256,0-.413-.13-.411-.339s.152-.323.4-.335a4.585,4.585,0,0,0,1.591-.335c.122-.052.117-.083.03-.165a1.6,1.6,0,0,1-.469-.793.788.788,0,0,1,.5-1.006,1.948,1.948,0,0,1,1.392-.007.8.8,0,0,1,.515,1.064,1.715,1.715,0,0,1-.566.839m-.639-1.316a1.5,1.5,0,0,0-.4.04c-.153.057-.2.142-.126.3a1.666,1.666,0,0,0,.442.532.119.119,0,0,0,.173,0,1.406,1.406,0,0,0,.451-.548c.059-.141.016-.232-.134-.283a1.6,1.6,0,0,0-.407-.039" transform="translate(-93.612 -179.272)" fill="#95a5a5"/>
        <path id="Path_12381" data-name="Path 12381" d="M159.144,134.184a1.051,1.051,0,0,1,.492-.082q3.289,0,6.577,0c.286,0,.452.15.428.381a.377.377,0,0,1-.4.318c-.273,0-.546,0-.82,0h-5.875c-.248,0-.406-.088-.465-.247-.051-.139.034-.251.066-.373h0" transform="translate(-152.854 -128.92)" fill="#bdc3c7"/>
        <path id="Path_12382" data-name="Path 12382" d="M100.133,284.233H97.852a.575.575,0,0,1-.266-.044.318.318,0,0,1-.2-.363.341.341,0,0,1,.3-.288.726.726,0,0,1,.117,0h4.68c.277,0,.408.12.4.359-.005.217-.157.338-.435.338-.774,0-1.547,0-2.321,0" transform="translate(-93.59 -272.496)" fill="#96a6a6"/>
        <path id="Path_12383" data-name="Path 12383" d="M186.016,90.738a2.554,2.554,0,0,0-.33,0,.349.349,0,0,1-.4-.33c-.015-.2.163-.341.408-.342.628,0,1.256,0,1.884,0,.052,0,.1,0,.155-.008l2.555.009c.065,0,.13,0,.2,0a.333.333,0,1,1-.021.665H186.23c-.071,0-.143,0-.214.007" transform="translate(-178.051 -86.598)" fill="#bcc2c6"/>
        <path id="Path_12384" data-name="Path 12384" d="M319.879,240.863a1.165,1.165,0,0,1-1.181,1.189,1.206,1.206,0,1,1,.017-2.412,1.178,1.178,0,0,1,1.164,1.223" transform="translate(-305.074 -230.321)" fill="#e04b5e"/>
        <path id="Path_12385" data-name="Path 12385" d="M153.939,204.681a1.6,1.6,0,0,1,.407.039c.15.051.193.142.134.283a1.406,1.406,0,0,1-.451.548.119.119,0,0,1-.173,0,1.665,1.665,0,0,1-.442-.532c-.075-.155-.027-.24.126-.3a1.5,1.5,0,0,1,.4-.04" transform="translate(-147.393 -196.733)" fill="#e9eeef"/>
      </g>
    </g>
  </g>
</svg>
