<svg id="Component" xmlns="http://www.w3.org/2000/svg" xmlns:xlink="http://www.w3.org/1999/xlink" width="24" height="24" viewBox="0 0 24 24">
  <defs>
    <clipPath id="clip-path">
      <rect id="Rectangle_808" data-name="Rectangle 808" width="20" height="20" fill="#bbd9fe"/>
    </clipPath>
  </defs>
  <rect id="Rectangle_809" data-name="Rectangle 809" width="24" height="24" fill="none"/>
  <g id="Group_31803" data-name="Group 31803" transform="translate(2 2)">
    <g id="Group_31793" data-name="Group 31793" clip-path="url(#clip-path)">
      <path id="Path_12201" data-name="Path 12201" d="M18.96,81.327H1.093a.934.934,0,0,1-.515-.559V64.116H19.2c.093,0,.186,0,.278.007q0,8.17,0,16.34a.82.82,0,0,1-.521.864M5.776,73.055c.035,0,.071.01.106.01h6.553c.055,0,.116.018.161-.033,0-.036.008-.071.008-.107,0-2.187,0-4.374.006-6.56,0-.215-.115-.184-.243-.184q-4.745,0-9.49,0c-.209,0-.241.069-.24.254.007,1.441,0,2.882,0,4.323,0,.76.005,1.52.008,2.28a.226.226,0,0,0,.075.03q1.526,0,3.052-.008M4.7,75.131c-.629,0-1.258,0-1.888,0-.141,0-.177.039-.177.178q.008,1.891,0,3.782c0,.141.038.177.178.177q1.888-.008,3.775,0c.141,0,.177-.038.177-.178q-.008-1.891,0-3.782c0-.141-.038-.179-.178-.177-.629.007-1.258,0-1.888,0m5.83,4.131c.63,0,1.259-.005,1.889,0,.154,0,.188-.045.187-.192q-.009-1.882,0-3.764c0-.135-.029-.183-.175-.182q-1.889.009-3.778,0c-.144,0-.176.044-.176.181,0,1.254.007,2.509,0,3.763,0,.175.061.194.209.193.615-.007,1.231,0,1.846,0m7.914-2.043c0-.638,0-1.275,0-1.913,0-.143-.043-.179-.181-.178q-1.888.007-3.775,0c-.126,0-.173.026-.173.165q.008,1.9,0,3.8c0,.135.041.168.17.167q1.888-.007,3.775,0c.16,0,.185-.057.183-.2-.007-.616,0-1.232,0-1.848M16.383,67.214c-.665,0-1.33,0-1.995,0a.359.359,0,0,0-.4.256c-.072.241.109.433.408.434q1.973,0,3.946,0c.288,0,.445-.126.442-.35s-.158-.338-.452-.339H16.383m0,2.065c.665,0,1.33,0,1.995,0a.374.374,0,0,0,.353-.159.325.325,0,0,0,.014-.347.363.363,0,0,0-.359-.184q-2.005,0-4.011,0c-.251,0-.4.138-.4.35s.153.336.411.337c.665,0,1.33,0,1.995,0m-.024,1.377c.672,0,1.344,0,2.016,0,.258,0,.407-.126.411-.337s-.151-.35-.419-.351q-1.984,0-3.968,0c-.271,0-.424.129-.422.347s.154.34.429.34q.976,0,1.952,0m.023.688c-.665,0-1.33,0-1.995,0a.359.359,0,0,0-.4.256c-.072.241.109.433.408.434q1.973,0,3.946,0c.288,0,.445-.126.442-.35s-.158-.338-.452-.339H16.383m.859-5.508c-.372,0-.743,0-1.115,0-.275,0-.427.122-.43.339s.15.349.42.349q1.125,0,2.251,0c.268,0,.423-.132.42-.35s-.156-.337-.431-.338c-.372,0-.743,0-1.115,0m-1.718,6.885c-.372,0-.743,0-1.115,0-.275,0-.427.122-.43.339s.15.348.42.349q1.125,0,2.251,0c.268,0,.423-.133.419-.35s-.152-.336-.41-.338c-.379,0-.757,0-1.136,0m-1.043-6.2h0c.05,0,.1,0,.15,0a.346.346,0,1,0-.006-.688,3.1,3.1,0,0,0-.321,0,.335.335,0,0,0-.324.334.339.339,0,0,0,.33.351c.057,0,.114,0,.171,0m3.8,6.885c.05,0,.1,0,.15,0a.344.344,0,1,0,0-.688c-.05,0-.1,0-.15,0-.364,0-.528.11-.522.353s.162.336.517.336" transform="translate(-0.553 -61.352)" fill="#bbd9fe"/>
      <path id="Path_12202" data-name="Path 12202" d="M19.477,2.989c-.093,0-.186-.007-.278-.007H.578V.7A1.107,1.107,0,0,1,1.093.227h18c0,.086.083.109.134.153a.7.7,0,0,1,.253.579c-.006.176-.005.353-.008.53a.756.756,0,0,0-.857-.179.344.344,0,0,0,0,.586.755.755,0,0,0,.857-.178q0,.627,0,1.254Zm-6.186-1.04h3.973a1.033,1.033,0,0,0,.193-.005.327.327,0,0,0,.3-.339.326.326,0,0,0-.3-.339,1.052,1.052,0,0,0-.193,0H9.318a1.044,1.044,0,0,0-.193.005.326.326,0,0,0-.3.339.326.326,0,0,0,.3.339,1.033,1.033,0,0,0,.193.005h3.973m-11.161,0c.344,0,.509-.112.508-.346s-.163-.344-.51-.344-.512.1-.519.335.163.355.52.355m1.711,0c.349,0,.511-.106.515-.339s-.163-.351-.524-.351c-.342,0-.508.115-.5.349s.165.341.513.341m1.716,0c.35,0,.512-.1.517-.337s-.163-.353-.522-.353c-.344,0-.508.113-.507.347s.164.343.511.343" transform="translate(-0.553 -0.217)" fill="#0069f3"/>
      <path id="Path_12203" data-name="Path 12203" d="M427.039,81.133a.82.82,0,0,0,.521-.864q-.012-8.17,0-16.34l0-.016,1.029,0c0,.1,0,.2,0,.3q0,8.026.006,16.052a.821.821,0,0,1-.521.864Z" transform="translate(-408.675 -61.158)" fill="#bbd9fe"/>
      <path id="Path_12204" data-name="Path 12204" d="M431.441,2.976l-1.029,0q0-.627,0-1.254,0-.115,0-.229c0-.177,0-.353.008-.53a.7.7,0,0,0-.253-.579c-.05-.044-.13-.067-.134-.153h.945c.246.152.471.322.471.649,0,.7,0,1.4,0,2.1" transform="translate(-411.535 -0.217)" fill="#1169f3"/>
      <path id="Path_12208" data-name="Path 12208" d="M48.33,118.769c0-.76-.007-1.52-.008-2.28,0-1.441,0-2.882,0-4.323,0-.185.032-.255.24-.254q4.745.011,9.49,0c.128,0,.244-.031.243.184-.008,2.187-.005,4.374-.006,6.56,0,.036,0,.071-.008.107-.037-.052-.077-.1-.111-.156q-1.6-2.561-3.194-5.124c-.092-.148-.138-.182-.242-.006-.313.522-.639,1.037-.963,1.552q-.594.944-1.194,1.885c-.462-.689-.927-1.377-1.382-2.07-.095-.144-.137-.16-.239,0-.62.945-1.248,1.885-1.876,2.825-.246.368-.5.733-.746,1.1" transform="translate(-46.236 -107.088)" fill="#1885fe"/>
      <path id="Path_12209" data-name="Path 12209" d="M122.276,149.13q.6-.942,1.194-1.885c.324-.515.65-1.029.963-1.552.1-.175.151-.142.242.006q1.592,2.565,3.193,5.124c.034.054.074.1.111.156-.045.051-.106.033-.161.033h-6.553c-.035,0-.071-.007-.106-.01.121-.268.3-.5.448-.753a12.718,12.718,0,0,0,.668-1.12" transform="translate(-115.938 -139.3)" fill="#5aad10"/>
      <path id="Path_12210" data-name="Path 12210" d="M50.394,319.6c.629,0,1.258,0,1.888,0,.139,0,.178.036.178.177q-.008,1.891,0,3.782c0,.14-.035.179-.177.178q-1.888-.008-3.775,0c-.139,0-.178-.036-.178-.177q.008-1.891,0-3.782c0-.139.035-.18.177-.178.629.008,1.258,0,1.888,0" transform="translate(-46.247 -305.816)" fill="#ef1616"/>
      <path id="Path_12211" data-name="Path 12211" d="M185.863,323.726c-.615,0-1.231,0-1.846,0-.148,0-.21-.018-.209-.193.009-1.254.007-2.509,0-3.764,0-.137.032-.182.176-.181q1.889.009,3.778,0c.146,0,.175.047.175.182q-.007,1.882,0,3.764c0,.148-.033.194-.187.192-.63-.009-1.259,0-1.889,0" transform="translate(-175.886 -305.816)" fill="#fecd00"/>
      <path id="Path_12212" data-name="Path 12212" d="M323.482,321.7c0,.616,0,1.232,0,1.848,0,.141-.024.2-.183.2q-1.888-.01-3.775,0c-.13,0-.171-.033-.17-.167q.007-1.9,0-3.8c0-.138.047-.165.173-.165q1.888.006,3.775,0c.138,0,.183.036.181.178-.007.638,0,1.275,0,1.913" transform="translate(-305.591 -305.83)" fill="#0069f3"/>
      <path id="Path_12213" data-name="Path 12213" d="M52.836,179.555a12.722,12.722,0,0,1-.668,1.12c-.146.253-.327.485-.448.753q-1.526,0-3.052.008a.225.225,0,0,1-.075-.03c.249-.366.5-.731.746-1.1.628-.94,1.256-1.88,1.876-2.825.1-.156.145-.141.239,0,.455.694.92,1.381,1.382,2.07" transform="translate(-46.498 -169.725)" fill="#4b900f"/>
      <path id="Path_12214" data-name="Path 12214" d="M313.8,135.96h1.952c.294,0,.449.117.452.339s-.154.349-.441.35q-1.973,0-3.946,0c-.3,0-.48-.193-.408-.434a.359.359,0,0,1,.4-.256c.665,0,1.33,0,1.995,0" transform="translate(-297.967 -130.098)" fill="#53a2fe"/>
      <path id="Path_12215" data-name="Path 12215" d="M313.884,168.6c-.665,0-1.33,0-1.995,0-.257,0-.407-.126-.411-.337s.146-.35.4-.35q2.005,0,4.011,0a.363.363,0,0,1,.359.184.325.325,0,0,1-.014.347.374.374,0,0,1-.353.159c-.665,0-1.33,0-1.995,0" transform="translate(-298.053 -160.676)" fill="#53a2fe"/>
      <path id="Path_12216" data-name="Path 12216" d="M313.862,200.561q-.976,0-1.952,0c-.275,0-.427-.123-.429-.34s.15-.347.422-.347q1.984,0,3.968,0c.268,0,.423.133.418.351s-.153.336-.411.337c-.672,0-1.344,0-2.016,0" transform="translate(-298.056 -191.257)" fill="#53a2fe"/>
      <path id="Path_12217" data-name="Path 12217" d="M313.8,231.793h1.952c.294,0,.449.117.452.339s-.154.349-.441.35q-1.973,0-3.946,0c-.3,0-.48-.193-.408-.434a.359.359,0,0,1,.4-.256c.665,0,1.33,0,1.995,0" transform="translate(-297.967 -221.801)" fill="#53a2fe"/>
      <path id="Path_12218" data-name="Path 12218" d="M352.881,104.036c.372,0,.743,0,1.115,0,.275,0,.427.122.431.338s-.151.349-.42.35q-1.125,0-2.251,0c-.27,0-.423-.131-.42-.349s.155-.338.43-.339c.372,0,.743,0,1.115,0" transform="translate(-336.192 -99.552)" fill="#54a2fe"/>
      <path id="Path_12219" data-name="Path 12219" d="M313.024,263.755c.379,0,.757,0,1.136,0,.257,0,.406.126.41.338s-.151.349-.419.35q-1.125,0-2.251,0c-.27,0-.423-.13-.42-.349s.154-.338.43-.339c.372,0,.743,0,1.115,0" transform="translate(-298.054 -252.386)" fill="#54a2fe"/>
      <path id="Path_12220" data-name="Path 12220" d="M311.973,104.672c-.057,0-.114,0-.171,0a.339.339,0,0,1-.33-.351.336.336,0,0,1,.325-.334,3.089,3.089,0,0,1,.321,0,.346.346,0,1,1,.006.688c-.05,0-.1,0-.15,0Z" transform="translate(-298.046 -99.5)" fill="#56a3fe"/>
      <path id="Path_12221" data-name="Path 12221" d="M399.672,264.434c-.356,0-.512-.1-.517-.336s.158-.353.522-.353c.05,0,.1,0,.15,0a.344.344,0,1,1,0,.688c-.05,0-.1,0-.15,0" transform="translate(-381.95 -252.376)" fill="#56a3fe"/>
      <path id="Path_12222" data-name="Path 12222" d="M196.448,24.833h-3.973a1.033,1.033,0,0,1-.193-.005.342.342,0,0,1,0-.678,1.044,1.044,0,0,1,.193-.005h7.945a1.052,1.052,0,0,1,.193,0,.342.342,0,0,1,0,.678,1.033,1.033,0,0,1-.193.005h-3.973" transform="translate(-183.711 -23.102)" fill="#eff1f1"/>
      <path id="Path_12223" data-name="Path 12223" d="M25.028,24.861c-.358,0-.528-.116-.52-.355s.164-.335.519-.335.509.11.51.344-.164.346-.508.346" transform="translate(-23.451 -23.129)" fill="#e9edf1"/>
      <path id="Path_12224" data-name="Path 12224" d="M64.88,24.861c-.348,0-.51-.107-.513-.341s.162-.349.5-.349c.361,0,.529.112.524.351s-.166.339-.515.339" transform="translate(-61.592 -23.129)" fill="#e9edf1"/>
      <path id="Path_12225" data-name="Path 12225" d="M104.736,24.861c-.347,0-.51-.109-.511-.343s.163-.347.507-.347c.359,0,.528.114.522.353s-.167.337-.517.337" transform="translate(-99.732 -23.129)" fill="#e9edf1"/>
      <path id="Path_12226" data-name="Path 12226" d="M416.164,24.078q0,.115,0,.229a.755.755,0,0,1-.857.178.344.344,0,0,1,0-.586.756.756,0,0,1,.857.179" transform="translate(-397.378 -22.806)" fill="#e9edf1"/>
    </g>
  </g>
</svg>
