<svg xmlns="http://www.w3.org/2000/svg" width="24" height="24" viewBox="0 0 24 24">
  <g id="Countries" transform="translate(-1686 -3770)">
    <rect id="Rectangle_653" data-name="Rectangle 653" width="24" height="24" transform="translate(1686 3770)" fill="none"/>
    <g id="Group_31799" data-name="Group 31799" transform="translate(1686.904 3771.903)">
      <g id="Group_31795" data-name="Group 31795" transform="translate(1.096 0.097)">
        <path id="Path_12201" data-name="Path 12201" d="M105.184,40.993h-.273a.973.973,0,0,0-.148-.5.91.91,0,0,1,.283-1.215.918.918,0,0,0,.329-.516,1.283,1.283,0,0,0-.368-1.285c-.067-.061-.127-.131-.189-.2a.937.937,0,0,1-.124-1.39.9.9,0,0,0-.477-1.427c-.387-.133-.775-.261-1.166-.38a.828.828,0,0,1-.512-.415c-.264-.478-.544-.947-.82-1.418a.537.537,0,0,0-.982-.027c-.06.093-.114.189-.176.281a.559.559,0,0,1-.422.28.534.534,0,0,1-.551-.73c.146-.587.3-1.171.456-1.755a.593.593,0,0,1,.323-.394c.313-.159.625-.318.933-.485a.527.527,0,0,0,.263-.662.976.976,0,0,0-.872-.732,4.036,4.036,0,0,1-1.983-.832,8.079,8.079,0,0,1,.608-1.012c.257-.389.577-.729.853-1.1a8.215,8.215,0,0,0,.857,1.13.775.775,0,0,0,1.023.145,1.821,1.821,0,0,0,.525-.59,4.672,4.672,0,0,0,.787-1.269,2.688,2.688,0,0,0-.012-2.6,9.531,9.531,0,0,1,4.219.463,9.354,9.354,0,0,1,4.2,2.914,6.17,6.17,0,0,0-.375.638.979.979,0,0,1-.764.507.933.933,0,0,0-.764.533c-.1.2-.21.4-.323.6a.924.924,0,0,1-.88.5q-.214-.006-.429-.007a1.641,1.641,0,0,0-1.173.491,1.982,1.982,0,0,0-.548,1.2,2.579,2.579,0,0,1-.568,1.285c-.216.26-.411.537-.609.811a.572.572,0,0,0,.119.83c.222.169.452.329.68.491a.563.563,0,0,0,.5.093c.169-.046.34-.084.51-.126a3.757,3.757,0,0,0,.008.68,5.27,5.27,0,0,0,1.492,2.8.761.761,0,0,0,1.073.038,2.12,2.12,0,0,0,.422-.5c.053-.065.11-.128.16-.2a5.493,5.493,0,0,0,.892-1.805l1.853,1.426a.617.617,0,0,1-.027.073,9.5,9.5,0,0,1-6.859,5.189c-.322.065-.653.066-.971.154" transform="translate(-94.893 -20.993)" fill="#6dd5b3"/>
        <path id="Path_12202" data-name="Path 12202" d="M67.178,158.914a4.037,4.037,0,0,0,1.983.832.976.976,0,0,1,.872.732.527.527,0,0,1-.263.662c-.308.167-.621.326-.933.485a.593.593,0,0,0-.323.394c-.153.585-.31,1.169-.456,1.755a.534.534,0,0,0,.551.73.559.559,0,0,0,.422-.28c.062-.092.115-.188.176-.281a.537.537,0,0,1,.982.027c.276.471.556.94.82,1.418a.828.828,0,0,0,.512.415c.391.119.78.247,1.166.38a.9.9,0,0,1,.477,1.427.937.937,0,0,0,.124,1.39c.063.066.122.136.189.2a1.283,1.283,0,0,1,.368,1.285.918.918,0,0,1-.329.516.91.91,0,0,0-.283,1.215.973.973,0,0,1,.148.5H72.134c-.033-.058-.092-.036-.14-.041a9.881,9.881,0,0,1-2.427-.563.339.339,0,0,0-.15-.219,8.155,8.155,0,0,1-.825-.824,10.573,10.573,0,0,1-2.664-7.881,10.548,10.548,0,0,1,.745-3.211c.145-.354.311-.7.467-1.049l.037-.005" transform="translate(-63.363 -152.708)" fill="#5675d3"/>
        <path id="Path_12204" data-name="Path 12204" d="M3.913,110.621c-.156.349-.322.695-.467,1.049a10.775,10.775,0,0,0-.237,7.378,10.426,10.426,0,0,0,2.155,3.714,8.159,8.159,0,0,0,.825.824.338.338,0,0,1,.15.219,9.588,9.588,0,0,1-6.173-8.068,2.264,2.264,0,0,0-.07-.664v-.43c.058-.025.037-.077.038-.118a9.308,9.308,0,0,1,.9-3.776,8.463,8.463,0,0,1,1.362-2.1c.064.2.131.405.191.609a1.686,1.686,0,0,0,.765,1.011c.188.113.372.233.558.349" transform="translate(-0.096 -104.41)" fill="#5675d3"/>
        <path id="Path_12207" data-name="Path 12207" d="M120.266,2.292A2.171,2.171,0,0,1,121.075.54a1.97,1.97,0,0,1,.718-.371c.058-.016.131-.008.17-.072h.7c.01.04.047.034.075.044-.062.082-.128.162-.187.247a2.621,2.621,0,0,0-.515,1.071.772.772,0,0,0-.076,1.376,1.962,1.962,0,0,0,.153.582,2.885,2.885,0,0,0,1.175,1.457,1.82,1.82,0,0,1-.525.59.775.775,0,0,1-1.023-.145,8.223,8.223,0,0,1-.857-1.131,4.406,4.406,0,0,1-.619-1.9" transform="translate(-115.609 -0.097)" fill="#e4596e"/>
        <path id="Path_12208" data-name="Path 12208" d="M271.627,109.811a9.178,9.178,0,0,1,1.973,3.934,9.5,9.5,0,0,1-.626,6.227c-.021.047-.049.091-.074.137l-1.853-1.426c.02-.148.04-.3.06-.443a2.07,2.07,0,0,0-1.621-2.3,1.88,1.88,0,0,0-1.645.349,2.2,2.2,0,0,0-.841,1.374c-.17.042-.341.08-.51.126a.563.563,0,0,1-.5-.093c-.228-.162-.457-.321-.68-.491a.572.572,0,0,1-.119-.83c.2-.274.393-.551.609-.811a2.578,2.578,0,0,0,.568-1.285,1.982,1.982,0,0,1,.548-1.2,1.642,1.642,0,0,1,1.173-.491q.214,0,.429.007a.924.924,0,0,0,.88-.5c.112-.2.219-.4.323-.6a.933.933,0,0,1,.764-.533.979.979,0,0,0,.764-.507,6.185,6.185,0,0,1,.375-.638" transform="translate(-254.752 -105.524)" fill="#5675d3"/>
        <path id="Path_12209" data-name="Path 12209" d="M314.262,266.847a2.195,2.195,0,0,1,.841-1.374,1.879,1.879,0,0,1,1.645-.349,2.6,2.6,0,0,0-.737,1.308.78.78,0,0,0-.066,1.378,3.005,3.005,0,0,0,1.311,2.054,2.121,2.121,0,0,1-.422.5.761.761,0,0,1-1.073-.038,5.27,5.27,0,0,1-1.492-2.8,3.757,3.757,0,0,1-.008-.68" transform="translate(-302.013 -254.706)" fill="#e45a6e"/>
        <path id="Path_12210" data-name="Path 12210" d="M358.956,271.449a3.005,3.005,0,0,1-1.311-2.054c.068.022.134.048.2.064a.749.749,0,0,0,.887-.507.76.76,0,0,0-.453-.937.916.916,0,0,0-.572,0,2.6,2.6,0,0,1,.737-1.308,2.07,2.07,0,0,1,1.621,2.3c-.019.148-.04.3-.06.443a5.494,5.494,0,0,1-.892,1.805c-.05.067-.106.13-.16.2" transform="translate(-343.712 -256.291)" fill="#e45a6e"/>
        <path id="Path_12211" data-name="Path 12211" d="M164.981,5.961A2.885,2.885,0,0,1,163.806,4.5a1.959,1.959,0,0,1-.153-.582c.055.019.109.041.165.057a.756.756,0,0,0,.771-1.236.8.8,0,0,0-.859-.2,2.622,2.622,0,0,1,.515-1.071c.059-.084.124-.164.187-.247a2.126,2.126,0,0,1,1.324.866,2.688,2.688,0,0,1,.012,2.6,4.672,4.672,0,0,1-.787,1.269" transform="translate(-157.301 -1.185)" fill="#e4596e"/>
        <path id="Path_12212" data-name="Path 12212" d="M61.42,56.279a4.407,4.407,0,0,0,.619,1.9c-.276.374-.6.714-.853,1.1a8.087,8.087,0,0,0-.608,1.012l-.037.005c-.186-.117-.37-.236-.558-.349a1.686,1.686,0,0,1-.765-1.011c-.06-.2-.127-.406-.191-.609a8.369,8.369,0,0,1,1.634-1.542c.244-.18.506-.337.759-.505" transform="translate(-56.724 -54.084)" fill="#6dd5b3"/>
        <path id="Path_12213" data-name="Path 12213" d="M154.251,33.879a.8.8,0,0,1,.859.2.756.756,0,0,1-.771,1.236c-.056-.016-.11-.038-.165-.057a.772.772,0,0,1,.076-1.376" transform="translate(-147.822 -32.518)" fill="#e7e5f8"/>
        <path id="Path_12214" data-name="Path 12214" d="M348.278,299.009a.916.916,0,0,1,.572,0,.76.76,0,0,1,.453.937.749.749,0,0,1-.887.507c-.069-.016-.136-.043-.2-.064a.78.78,0,0,1,.066-1.378" transform="translate(-334.28 -287.283)" fill="#e7e5f8"/>
      </g>
    </g>
  </g>
</svg>
