<svg xmlns="http://www.w3.org/2000/svg" width="300" height="163.583" viewBox="0 0 300 163.583">
  <g id="Group_25457" data-name="Group 25457" transform="translate(-1.193 -0.029)">
    <rect id="Rectangle_1" data-name="Rectangle 1" width="300" height="163.583" transform="translate(1.193 0.029)" fill="#f8f8fc"/>
    <g id="Illustration" transform="translate(103.949 37.403)">
      <ellipse id="Oval" cx="18.198" cy="25.353" rx="18.198" ry="25.353" transform="translate(55.353)" fill="#d5d5d9" opacity="0.1"/>
      <g id="Mountain" transform="translate(0 25.359)">
        <g id="Fundamentals_Illustrations_Molecules_Mountain" data-name="Fundamentals/Illustrations/Molecules/Mountain">
          <path id="Mountain-2" data-name="Mountain" d="M54.886,53.461c-.474-13.8-4.758-61.5-13.357-52.29S32.389,42.248,25.9,49.685s-8.432-32.5-13.141-31.775S0,63.2,0,63.2l.2-.28s55.732.1,54.974,1.109C55.178,64.025,55.03,57.629,54.886,53.461Z" transform="translate(0 0)" fill="#9e9e9e" opacity="0.2"/>
        </g>
      </g>
      <g id="Clouds" transform="translate(26.269 17.958)">
        <g id="Fundamentals_Illustrations_Molecules_Clouds" data-name="Fundamentals/Illustrations/Molecules/Clouds">
          <path id="Shape" d="M35.556,0H7.565C6.729.057,6.072,1.018,6.072,2.184s.657,2.127,1.492,2.184h5.967c.836.057,1.492,1.018,1.492,2.184s-.657,2.127-1.492,2.184H1.647A1.524,1.524,0,0,0,.223,9.8a2.941,2.941,0,0,0,0,2.248A1.524,1.524,0,0,0,1.647,13.1H47.521c.865.009,1.571-.961,1.577-2.166s-.69-2.188-1.554-2.2H25.934a1.524,1.524,0,0,1-1.423-1.06,2.941,2.941,0,0,1,0-2.248,1.524,1.524,0,0,1,1.423-1.06h9.622a1.524,1.524,0,0,0,1.423-1.06,2.941,2.941,0,0,0,0-2.248A1.524,1.524,0,0,0,35.556.005Z" transform="translate(0)" fill="#fff" opacity="0.78"/>
          <path id="Shape-2" data-name="Shape" d="M58.9,0H27.523c-.836.057-1.492,1.018-1.492,2.184s.657,2.127,1.492,2.184h9.346a1.524,1.524,0,0,1,1.423,1.06,2.941,2.941,0,0,1,0,2.248,1.524,1.524,0,0,1-1.423,1.06H4.04A1.524,1.524,0,0,0,2.617,9.8a2.941,2.941,0,0,0,0,2.248A1.524,1.524,0,0,0,4.04,13.1h9.346a1.524,1.524,0,0,1,1.423,1.06,2.941,2.941,0,0,1,0,2.248,1.524,1.524,0,0,1-1.423,1.06H1.492C.657,17.529,0,18.49,0,19.656s.657,2.127,1.492,2.184H32.865c.865.009,1.571-.961,1.577-2.166s-.69-2.188-1.554-2.2H29.3a1.524,1.524,0,0,1-1.423-1.06,2.941,2.941,0,0,1,0-2.248,1.524,1.524,0,0,1,1.423-1.06H56.356c.865.009,1.571-.961,1.577-2.166s-.69-2.188-1.554-2.2h-3.6a1.524,1.524,0,0,1-1.423-1.06,2.941,2.941,0,0,1,0-2.248,1.524,1.524,0,0,1,1.423-1.06h6.115c.836-.057,1.492-1.018,1.492-2.184S59.728.068,58.893.011Z" transform="translate(7.684 22.559)" fill="#fff" opacity="0.73"/>
        </g>
      </g>
    </g>
  </g>
</svg>
