<svg id="information" xmlns="http://www.w3.org/2000/svg" width="20.387" height="23.723" viewBox="0 0 20.387 23.723">
  <g id="Group_25411" data-name="Group 25411">
    <g id="Group_25410" data-name="Group 25410">
      <path id="Path_434" data-name="Path 434" d="M46.193,0a10.188,10.188,0,0,0-3.085,19.9l2.318,3.417a.927.927,0,0,0,1.534,0L49.278,19.9A10.188,10.188,0,0,0,46.193,0Z" transform="translate(-36 0)" fill="#12346a"/>
      <path id="Path_432" data-name="Path 432" d="M235.249,182.774c-.589,0-1.008.249-1.008.615v4.989c0,.314.419.629,1.008.629.563,0,1.021-.314,1.021-.629v-4.989C236.271,183.023,235.812,182.774,235.249,182.774Z" transform="translate(-225.056 -174.305)" fill="#fff"/>
      <path id="Path_433" data-name="Path 433" d="M233.9,116.361a1.071,1.071,0,0,0-1.074,1.058,1.067,1.067,0,1,0,2.134,0A1.069,1.069,0,0,0,233.9,116.361Z" transform="translate(-223.708 -110.968)" fill="#fff"/>
    </g>
  </g>
</svg>
