<svg id="newspaper" xmlns="http://www.w3.org/2000/svg" width="23.08" height="21.981" viewBox="0 0 23.08 21.981">
  <path id="Path_435" data-name="Path 435" d="M6.873,22.971a1.089,1.089,0,0,1,.779-1.336L24.662,17.11a1.1,1.1,0,0,1,1.347.771l3.134,11.611a1.089,1.089,0,0,1-.779,1.336L11.355,35.352a1.1,1.1,0,0,1-1.347-.771Z" transform="translate(-6.468 -16.706)" fill="#ddd"/>
  <path id="Path_436" data-name="Path 436" d="M4.6,29.3a1.467,1.467,0,0,1-1.416-1.079L.051,16.606a1.44,1.44,0,0,1,.144-1.1,1.456,1.456,0,0,1,.894-.683L18.1,10.3a1.469,1.469,0,0,1,1.8,1.029l3.134,11.611a1.439,1.439,0,0,1-.144,1.1,1.456,1.456,0,0,1-.894.683L4.981,29.246A1.468,1.468,0,0,1,4.6,29.3ZM18.479,10.979a.74.74,0,0,0-.191.025L1.277,15.528a.728.728,0,0,0-.448.341.713.713,0,0,0-.071.546h0L3.893,28.025a.735.735,0,0,0,.9.513L21.8,24.014a.728.728,0,0,0,.448-.341.713.713,0,0,0,.071-.546L19.188,11.516A.733.733,0,0,0,18.479,10.979Z" transform="translate(0 -10.246)" fill="#676767"/>
  <path id="Path_437" data-name="Path 437" d="M54.621,120.573a1.1,1.1,0,0,1,1.1-1.1H73.3a1.1,1.1,0,0,1,1.1,1.1v13.55a1.1,1.1,0,0,1-1.1,1.1H55.72a1.1,1.1,0,0,1-1.1-1.1Z" transform="translate(-51.69 -113.611)" fill="#fff"/>
  <path id="Path_438" data-name="Path 438" d="M66.845,129.131H49.26a1.468,1.468,0,0,1-1.465-1.468v-13.55a1.468,1.468,0,0,1,1.465-1.468H66.845a1.468,1.468,0,0,1,1.465,1.468v13.55A1.468,1.468,0,0,1,66.845,129.131ZM49.26,113.378a.734.734,0,0,0-.733.735v13.55a.735.735,0,0,0,.733.735H66.845a.735.735,0,0,0,.733-.735v-13.55a.735.735,0,0,0-.733-.735H49.26Z" transform="translate(-45.23 -107.15)" fill="#676767"/>
  <rect id="Rectangle_623" data-name="Rectangle 623" width="6.228" height="3.663" transform="translate(4.763 13.188)" fill="#3b86fe"/>
  <path id="Path_439" data-name="Path 439" d="M88.521,253.574H82.293a.367.367,0,0,1-.366-.366v-3.663a.366.366,0,0,1,.366-.366h6.228a.366.366,0,0,1,.366.366v3.663A.367.367,0,0,1,88.521,253.574Zm-5.862-.733h5.5v-2.931h-5.5Z" transform="translate(-77.53 -236.356)" fill="#676767"/>
  <rect id="Rectangle_624" data-name="Rectangle 624" width="9.159" height="0.733" transform="translate(12.09 13.188)" fill="#676767"/>
  <rect id="Rectangle_625" data-name="Rectangle 625" width="9.159" height="0.733" transform="translate(12.09 16.119)" fill="#676767"/>
  <rect id="Rectangle_626" data-name="Rectangle 626" width="9.159" height="0.733" transform="translate(12.09 14.654)" fill="#676767"/>
  <rect id="Rectangle_627" data-name="Rectangle 627" width="16.486" height="0.733" transform="translate(4.763 17.585)" fill="#676767"/>
  <rect id="Rectangle_628" data-name="Rectangle 628" width="16.486" height="0.733" transform="translate(4.763 19.05)" fill="#676767"/>
  <path id="Path_440" data-name="Path 440" d="M90.522,160.367h.054v-1.876a.988.988,0,0,1,.009-.137.274.274,0,0,1,.04-.112.21.21,0,0,1,.09-.076.39.39,0,0,1,.164-.028.479.479,0,0,1,.182.028.232.232,0,0,1,.1.076.249.249,0,0,1,.043.112.979.979,0,0,1,.009.137v2.292c0,.066,0,.13-.006.192a.51.51,0,0,1-.036.166.252.252,0,0,1-.1.117.357.357,0,0,1-.193.044h-.3a.346.346,0,0,1-.178-.042.418.418,0,0,1-.118-.1.549.549,0,0,1-.076-.125c-.019-.044-.034-.081-.044-.111l-.683-1.849h-.054v1.876a1.01,1.01,0,0,1-.009.137.276.276,0,0,1-.04.112.211.211,0,0,1-.09.076.394.394,0,0,1-.164.028.5.5,0,0,1-.185-.028.228.228,0,0,1-.1-.076.249.249,0,0,1-.043-.112,1.009,1.009,0,0,1-.009-.137v-2.292q0-.1.006-.191a.493.493,0,0,1,.037-.167.259.259,0,0,1,.1-.118.361.361,0,0,1,.2-.044h.3a.345.345,0,0,1,.184.044.429.429,0,0,1,.2.236Z" transform="translate(-84.021 -150.202)" fill="#676767"/>
  <path id="Path_441" data-name="Path 441" d="M145.613,175.877c0,.024,0,.052,0,.085a.191.191,0,0,1-.035.093.239.239,0,0,1-.1.076.436.436,0,0,1-.185.032h-.9v.217a.505.505,0,0,0,.014.113.334.334,0,0,0,.046.108.252.252,0,0,0,.087.081.26.26,0,0,0,.133.032.357.357,0,0,0,.139-.021.222.222,0,0,0,.077-.053.467.467,0,0,0,.051-.068.293.293,0,0,1,.06-.068.3.3,0,0,1,.1-.053.626.626,0,0,1,.184-.021.674.674,0,0,1,.11.009.268.268,0,0,1,.094.034.189.189,0,0,1,.065.069.231.231,0,0,1,.025.114.344.344,0,0,1-.093.245.665.665,0,0,1-.233.157,1.266,1.266,0,0,1-.3.084,2.033,2.033,0,0,1-.306.025,1.46,1.46,0,0,1-.357-.047.844.844,0,0,1-.3-.145.7.7,0,0,1-.207-.26.907.907,0,0,1-.077-.393v-.529a1.136,1.136,0,0,1,.051-.364.792.792,0,0,1,.132-.249.617.617,0,0,1,.183-.155.916.916,0,0,1,.206-.083,1.112,1.112,0,0,1,.2-.034c.063,0,.117-.007.162-.007a1.619,1.619,0,0,1,.39.041.993.993,0,0,1,.27.106.584.584,0,0,1,.172.151.674.674,0,0,1,.1.177.817.817,0,0,1,.041.185c.006.063.009.121.009.175v.14h0Zm-1.22-.054h.565c0-.071,0-.134-.006-.189a.364.364,0,0,0-.034-.139.191.191,0,0,0-.088-.086.393.393,0,0,0-.171-.029.3.3,0,0,0-.146.029.212.212,0,0,0-.08.073.239.239,0,0,0-.034.094.653.653,0,0,0-.007.088v.158h0Z" transform="translate(-135.994 -166.065)" fill="#676767"/>
  <path id="Path_442" data-name="Path 442" d="M185.322,175.248a.3.3,0,0,1,.193.069.57.57,0,0,1,.15.247l.24.637h.036l.253-.886a.783.783,0,0,1,.046-.122.469.469,0,0,1,.069-.1.311.311,0,0,1,.1-.075.339.339,0,0,1,.273,0,.276.276,0,0,1,.093.077.3.3,0,0,1,.052.108.492.492,0,0,1,.016.125.416.416,0,0,1-.017.118q-.017.057-.037.116l-.5,1.333a1.486,1.486,0,0,1-.094.2.379.379,0,0,1-.082.1.168.168,0,0,1-.081.039.642.642,0,0,1-.086.005.807.807,0,0,1-.094-.005.189.189,0,0,1-.088-.039.386.386,0,0,1-.089-.1,1.154,1.154,0,0,1-.1-.2l-.235-.813H185.3l-.244.813a1.391,1.391,0,0,1-.092.2.4.4,0,0,1-.081.1.163.163,0,0,1-.08.039.647.647,0,0,1-.086.005.806.806,0,0,1-.094-.005.19.19,0,0,1-.088-.039.39.39,0,0,1-.089-.1,1.15,1.15,0,0,1-.095-.2l-.506-1.333c-.013-.036-.026-.075-.037-.116a.463.463,0,0,1-.017-.123.47.47,0,0,1,.017-.127.3.3,0,0,1,.054-.107.257.257,0,0,1,.1-.073.371.371,0,0,1,.151-.027.232.232,0,0,1,.114.028.344.344,0,0,1,.092.075.5.5,0,0,1,.07.1.91.91,0,0,1,.05.122l.285.886h.036l.208-.637a.476.476,0,0,1,.15-.247A.334.334,0,0,1,185.322,175.248Z" transform="translate(-173.931 -166.145)" fill="#676767"/>
  <path id="Path_443" data-name="Path 443" d="M245.88,175.27a.136.136,0,0,0,.029.084.341.341,0,0,0,.08.073.964.964,0,0,0,.118.069q.066.034.139.068c.074.036.149.075.226.117a1.119,1.119,0,0,1,.21.146.712.712,0,0,1,.155.193.532.532,0,0,1,.06.259.668.668,0,0,1-.04.24.594.594,0,0,1-.1.18.582.582,0,0,1-.153.125.881.881,0,0,1-.183.079,1.153,1.153,0,0,1-.2.042,1.49,1.49,0,0,1-.188.012,1.382,1.382,0,0,1-.3-.029.914.914,0,0,1-.221-.078.593.593,0,0,1-.153-.111.523.523,0,0,1-.094-.13.54.54,0,0,1-.048-.134.627.627,0,0,1-.013-.123.245.245,0,0,1,.076-.2.355.355,0,0,1,.232-.063.277.277,0,0,1,.185.061.256.256,0,0,1,.077.2.114.114,0,0,0,.026.073.176.176,0,0,0,.061.044.285.285,0,0,0,.082.023.7.7,0,0,0,.088.006.216.216,0,0,0,.143-.047.15.15,0,0,0,.055-.121.208.208,0,0,0-.037-.118.453.453,0,0,0-.1-.1,1.173,1.173,0,0,0-.139-.092l-.159-.089q-.1-.054-.2-.115a1.2,1.2,0,0,1-.186-.136.634.634,0,0,1-.136-.168.434.434,0,0,1-.052-.214.67.67,0,0,1,.058-.295.474.474,0,0,1,.168-.192.748.748,0,0,1,.27-.1,2.091,2.091,0,0,1,.363-.036h.036a1.314,1.314,0,0,1,.311.032.775.775,0,0,1,.212.083.468.468,0,0,1,.133.114.488.488,0,0,1,.1.251q.005.059.005.1a.2.2,0,0,1-.028.112.207.207,0,0,1-.074.07.323.323,0,0,1-.1.036.874.874,0,0,1-.122.012.255.255,0,0,1-.1-.018.272.272,0,0,1-.076-.045.2.2,0,0,1-.049-.061.146.146,0,0,1-.017-.066.162.162,0,0,0-.069-.131.267.267,0,0,0-.157-.045.332.332,0,0,0-.073.008.187.187,0,0,0-.063.027.138.138,0,0,0-.045.051A.173.173,0,0,0,245.88,175.27Z" transform="translate(-232.044 -165.837)" fill="#676767"/>
</svg>
