<svg xmlns="http://www.w3.org/2000/svg" width="24" height="24" viewBox="0 0 24 24">
  <g id="State" transform="translate(-8471 -4311)">
    <path id="Path_12389" data-name="Path 12389" d="M0,0H24V24H0Z" transform="translate(8471 4311)" fill="none"/>
    <g id="Group_31826" data-name="Group 31826" transform="translate(8472.894 4314.904)">
      <g id="Group_31823" data-name="Group 31823" transform="translate(0.106 0.096)">
        <path id="Path_12386" data-name="Path 12386" d="M9.792,100.744H9.146q-.446-.893-.892-1.786c-.031-.062-.043-.154-.14-.152-.292.006-.6-.08-.823.227a.294.294,0,0,1-.495-.057c-.263-.438-.525-.877-.789-1.315-.033-.056-.054-.147-.128-.144-.281.013-.6-.119-.811.193a.206.206,0,0,1-.279.067q-1.615-.6-3.235-1.18a.367.367,0,0,1-.233-.225Q1.1,95.851.871,95.337c-.257-.569-.482-1.152-.765-1.709V90.675c.213-.335.357-.706.547-1.052a.811.811,0,0,0,.1-.424c-.007-.345,0-.691,0-1.068.18.089.329.15.465.233a.211.211,0,0,0,.325-.057.374.374,0,0,1,.416-.155c.363.066.732.093,1.1.138l2.858.356a6.612,6.612,0,0,0,.464,2.019,12.821,12.821,0,0,0,3.3,4.484c.107.1.166.055.25-.02a15.119,15.119,0,0,0,1.452-1.514,10.72,10.72,0,0,0,2.047-3.544,2.141,2.141,0,0,0,.282,0,.516.516,0,0,1,.49.2c.2.221.41.427.627.629a.409.409,0,0,1,.136.337c-.008.418,0,.835-.005,1.253,0,.132.038.182.171.17a.472.472,0,0,0,.248-.062c.254-.176.513-.346.772-.515a.208.208,0,0,0,.105-.2c-.005-.229,0-.458,0-.687-.005-.128.043-.163.163-.158.195.008.391-.009.585.005.17.012.245-.03.227-.218s0-.391-.006-.586c-.006-.13.035-.177.169-.173.322.009.645,0,.968.005a.216.216,0,0,0,.231-.145c.113-.244.238-.483.358-.724.222-.446.222-.443.718-.431a.166.166,0,0,1,.187.134c.067.226.143.449.224.67a.421.421,0,0,1,0,.331,3.21,3.21,0,0,0-.27,1.612c.014.138-.048.185-.173.213-.328.073-.651.163-.978.24a.154.154,0,0,0-.144.175c0,1.1-.209,2.183-.305,3.275a.4.4,0,0,1-.129.262q-.688.682-1.37,1.371c-.051.051-.129.092-.127.175a2.262,2.262,0,0,0,.059.778c.285.741.554,1.488.839,2.229.061.158.031.193-.132.187-.3-.011-.605-.013-.907,0-.152.007-.208-.055-.251-.189-.167-.526-.35-1.046-.516-1.572a.22.22,0,0,0-.253-.187,14.3,14.3,0,0,1-1.492-.006c-.434-.037-.722.069-.833.515-.029.115-.111.145-.229.144-.538-.006-1.076,0-1.614,0a.532.532,0,0,0-.254.044c-.359.184-.719.366-1.082.542a.191.191,0,0,0-.122.2c.006.276,0,.552,0,.829" transform="translate(-0.106 -84.569)" fill="#9fd561"/>
        <path id="Path_12388" data-name="Path 12388" d="M148.029.1a1.052,1.052,0,0,0,.38.094A3.906,3.906,0,0,1,151.4,4.429a10.9,10.9,0,0,1-.219,1.169,10.72,10.72,0,0,1-2.047,3.544,15.126,15.126,0,0,1-1.452,1.514c-.083.075-.142.12-.25.02a12.821,12.821,0,0,1-3.3-4.484,6.612,6.612,0,0,1-.464-2.019c0-.047,0-.094,0-.141a3.883,3.883,0,0,1,2.548-3.7c.274-.1.569-.127.841-.233Z" transform="translate(-137.877 -0.096)" fill="#ea505f"/>
        <circle id="Ellipse_265" data-name="Ellipse 265" cx="1.941" cy="1.941" r="1.941" transform="translate(7.73 1.453)" fill="#95333c"/>
      </g>
    </g>
  </g>
</svg>
