<svg xmlns="http://www.w3.org/2000/svg" width="24" height="24" viewBox="0 0 24 24">
  <g id="UsersID" transform="translate(-1209 602)">
    <rect id="Rectangle_652" data-name="Rectangle 652" width="24" height="24" transform="translate(1209 -602)" fill="none"/>
    <g id="addUsersID" transform="translate(1 1)">
      <g id="Group_31801" data-name="Group 31801" transform="translate(1210 -598)">
        <g id="Group_31797" data-name="Group 31797" transform="translate(0 0)">
          <g id="Group_31795" data-name="Group 31795">
            <path id="Path_12201" data-name="Path 12201" d="M255.486.069h8.254c.016.01.03.027.047.029a1.852,1.852,0,0,1,1.579,1.908c-.019,2.917-.007,5.833-.007,8.75,0,.592.006,1.185,0,1.777a1.8,1.8,0,0,1-1.573,1.726l-.943,0-7.35,0c0-.67-.005-1.34-.005-2.01q0-4.251,0-8.5c.077,0,.154,0,.231,0h5.82c.058,0,.116,0,.173,0a.608.608,0,0,0,.554-.529.6.6,0,0,0-.367-.6.948.948,0,0,0-.359-.052q-1.763,0-3.527,0-1.262,0-2.524-.006l0-2.478m4.033,9.244c.7,0,1.4,0,2.1,0a.583.583,0,1,0,0-1.159h-4.2a.6.6,0,0,0-.655.581.591.591,0,0,0,.655.578c.7,0,1.4,0,2.1,0m0-3.641c-.706,0-1.412,0-2.118,0a.582.582,0,1,0,0,1.159q2.109,0,4.217,0a.583.583,0,1,0,0-1.159c-.7,0-1.4,0-2.1,0m-.639,4.967c-.5,0-1,0-1.5,0a.586.586,0,0,0-.613.584.579.579,0,0,0,.6.572c1.021.006,2.042,0,3.063,0a.575.575,0,0,0,.359-.117.585.585,0,0,0,.2-.638.576.576,0,0,0-.574-.4c-.514,0-1.027,0-1.541,0" transform="translate(-245.888 -0.069)" fill="#fec84f"/>
            <path id="Path_12202" data-name="Path 12202" d="M9.939.068q0,1.239,0,2.478v.017H3.9a1.521,1.521,0,0,0-.231.011.549.549,0,0,0-.477.418.58.58,0,0,0,.63.732q3.063,0,6.125,0v.015q0,4.251,0,8.5c0,.67,0,1.34.005,2.01l-.005.043H1.763a.683.683,0,0,0-.108-.034,1.792,1.792,0,0,1-1.487-1.2c-.044-.112-.068-.232-.1-.348V1.653c.014-.042.03-.083.04-.126A1.82,1.82,0,0,1,1.5.121c.073-.019.156,0,.221-.053ZM5.982,8.151c-.1.017-.2.032-.3.052a3.062,3.062,0,0,0-2.51,2.845.607.607,0,0,0,.676.747q2.372,0,4.744,0c.492,0,.729-.244.686-.737A3.037,3.037,0,0,0,7.383,8.384a3.816,3.816,0,0,0-.931-.234l.2-.06A1.553,1.553,0,1,0,5.567,8c.132.062.276.1.415.149" transform="translate(-0.066 -0.068)" fill="#fec84f"/>
            <path id="Path_12206" data-name="Path 12206" d="M263.784,366.8a.1.1,0,0,0-.006.035h-8.292l.005-.042,7.35,0,.943,0" transform="translate(-245.888 -352.608)" fill="#fed177"/>
            <path id="Path_12207" data-name="Path 12207" d="M255.573,64.138q1.262,0,2.524.006,1.763,0,3.527,0a.947.947,0,0,1,.359.052.6.6,0,0,1,.367.6.607.607,0,0,1-.554.529c-.057.006-.116,0-.173,0H255.8c-.077,0-.154,0-.231,0v-.015q0-.58,0-1.16v-.017" transform="translate(-245.973 -61.66)" fill="#0d0601"/>
            <path id="Path_12208" data-name="Path 12208" d="M291.312,210.24c-.7,0-1.4,0-2.1,0a.591.591,0,0,1-.655-.578.6.6,0,0,1,.655-.581h4.2a.583.583,0,1,1,0,1.158c-.7,0-1.4,0-2.1,0" transform="translate(-277.683 -200.997)" fill="#0c0601"/>
            <path id="Path_12209" data-name="Path 12209" d="M291.314,144.909c.7,0,1.4,0,2.1,0a.583.583,0,1,1,0,1.158q-2.109,0-4.217,0a.582.582,0,1,1,0-1.158c.706,0,1.412,0,2.118,0" transform="translate(-277.685 -139.307)" fill="#0c0501"/>
            <path id="Path_12210" data-name="Path 12210" d="M290.663,273.328c.514,0,1.027,0,1.541,0a.576.576,0,0,1,.574.4.584.584,0,0,1-.2.638.575.575,0,0,1-.359.117c-1.021,0-2.042.005-3.063,0a.579.579,0,0,1-.6-.572.586.586,0,0,1,.613-.583c.5-.005,1,0,1.5,0" transform="translate(-277.674 -262.758)" fill="#0e0701"/>
            <path id="Path_12211" data-name="Path 12211" d="M83.487,209.043a3.818,3.818,0,0,1,.931.234,3.035,3.035,0,0,1,1.892,2.673c.043.492-.194.736-.686.736q-2.372,0-4.744,0a.607.607,0,0,1-.676-.747,3.061,3.061,0,0,1,2.51-2.844c.1-.019.2-.035.3-.052h.471" transform="translate(-77.098 -200.96)" fill="#42b653"/>
            <path id="Path_12212" data-name="Path 12212" d="M87.285,64.577q0,.58,0,1.16-3.2,0-6.393,0c-.474,0-.774-.336-.657-.731a.565.565,0,0,1,.5-.418,1.663,1.663,0,0,1,.241-.011h6.313" transform="translate(-77.393 -62.082)" fill="#0d0601"/>
            <path id="Path_12213" data-name="Path 12213" d="M121.053,132.073h-.471c-.138-.049-.282-.087-.415-.149a1.541,1.541,0,1,1,1.088.088l-.2.06" transform="translate(-114.664 -123.992)" fill="#fe934d"/>
          </g>
        </g>
        <g id="Group_25423" data-name="Group 25423" transform="translate(14.6 8.677)">
          <circle id="Ellipse_71" data-name="Ellipse 71" cx="2.7" cy="2.7" r="2.7" fill="#3b86fe"/>
          <g id="Group_25422" data-name="Group 25422" transform="translate(0.995 0.995)">
            <path id="Path_420" data-name="Path 420" d="M-6.255-17.879h1.477v.373H-6.255V-15.9h-.4v-1.607H-8.1v-.373h1.447v-1.554h.4Z" transform="translate(8.105 19.433)" fill="#f4f4f4" stroke="#f4f4f4" stroke-width="1"/>
          </g>
        </g>
      </g>
    </g>
  </g>
</svg>
