<svg id="UserImg" xmlns="http://www.w3.org/2000/svg" width="99" height="99" viewBox="0 0 99 99">
  <g id="Ellipse_73" data-name="Ellipse 73" fill="#fff" stroke="#2dbecd" stroke-width="5">
    <circle cx="49.5" cy="49.5" r="49.5" stroke="none"/>
    <circle cx="49.5" cy="49.5" r="47" fill="none"/>
  </g>
  <path id="Vector" d="M15.605,0a15.591,15.591,0,0,0-.394,31.177,2.65,2.65,0,0,1,.723,0h.23A15.593,15.593,0,0,0,15.605,0Z" transform="translate(33.893 33.294)" fill="#2dbecd"/>
  <path id="Vector-2" data-name="Vector" d="M39.817,4.583c-9.166-6.111-24.114-6.111-33.345,0C2.3,7.375,0,11.153,0,15.194S2.3,22.98,6.439,25.74a30.354,30.354,0,0,0,16.689,4.632A30.354,30.354,0,0,0,39.817,25.74c4.139-2.792,6.439-6.538,6.439-10.611C46.224,11.088,43.957,7.343,39.817,4.583Z" transform="translate(26.371 68.628)" fill="#2dbecd"/>
</svg>
