<svg xmlns="http://www.w3.org/2000/svg" width="24" height="24" viewBox="0 0 24 24">
  <g id="UserNotVerified" transform="translate(24799 23586)">
    <rect id="Rectangle_1505" data-name="Rectangle 1505" width="24" height="24" transform="translate(-24799 -23586)" fill="none"/>
    <g id="Group_31916" data-name="Group 31916" transform="translate(-24797.234 -23584.129)">
      <g id="Group_31910" data-name="Group 31910" transform="translate(0.234 0.129)">
        <path id="Path_12285" data-name="Path 12285" d="M17.21,12.585a4.394,4.394,0,0,0-3.475,1.8.645.645,0,0,1-.073.071l-.073.054,0,0a.1.1,0,0,0-.054.106h0c-.28.09-.382.356-.535.561A6.093,6.093,0,0,0,11.776,18.7a10.292,10.292,0,0,0,.105,1.588c-.094,0-.188.014-.282.014q-4.712,0-9.423,0c-.372,0-.32.042-.324-.336a9.234,9.234,0,0,1,3.1-7.18,9,9,0,0,1,4.188-2.167c.041-.009.08-.025.172-.054A4.987,4.987,0,0,1,6.659,7.933a4.828,4.828,0,0,1-.079-3.72,4.962,4.962,0,1,1,6.544,6.357c.277.076.534.14.787.216a9.307,9.307,0,0,1,3.152,1.657c.053.042.1.094.147.141" transform="translate(-1.852 -1.017)" fill="#2dbecd"/>
        <path id="Path_12286" data-name="Path 12286" d="M193.491,269.056a10.293,10.293,0,0,1-.105-1.588,6.093,6.093,0,0,1,1.229-3.536c.153-.205.255-.472.535-.561a5.952,5.952,0,0,0-.585,1.525,4.363,4.363,0,0,0,1.156,3.932c.074.08.179.137.209.254q-1.118,0-2.237,0a1.471,1.471,0,0,1-.2-.027" transform="translate(-183.462 -249.78)" fill="#2dbecd"/>
        <path id="Path_12288" data-name="Path 12288" d="M227.435,261.451a.1.1,0,0,1,.053-.106.08.08,0,0,1-.053.106" transform="translate(-215.749 -247.859)" fill="#323251"/>
        <path id="Path_12289" data-name="Path 12289" d="M228.414,260.41l.073-.054-.073.054" transform="translate(-216.678 -246.922)" fill="#323251"/>
        <circle id="Ellipse_77" data-name="Ellipse 77" cx="4.911" cy="4.911" r="4.911" transform="translate(10.135 10.178)" fill="#fd3051"/>
        <path id="Path_12290" data-name="Path 12290" d="M4.585,0H4.7a.3.3,0,0,1,.2.175.285.285,0,0,1-.086.319L2.9,2.407a.379.379,0,0,1-.064.042v.031a.384.384,0,0,1,.064.043l1.891,1.9a.765.765,0,0,1,.065.07.272.272,0,0,1-.108.419L4.7,4.931H4.585a1.723,1.723,0,0,1-.2-.151q-.937-.934-1.869-1.872L2.45,2.847a.684.684,0,0,1-.051.066Q1.468,3.847.534,4.78a1.718,1.718,0,0,1-.2.151H.218A.323.323,0,0,1,0,4.712V4.6a1.645,1.645,0,0,1,.146-.2q.933-.941,1.871-1.879l.059-.062c-.024-.02-.045-.035-.063-.053Q1.079,1.469.146.531A1.643,1.643,0,0,1,0,.334V.218A.322.322,0,0,1,.218,0H.333a1.723,1.723,0,0,1,.2.151Q1.47,1.083,2.4,2.02a.592.592,0,0,1,.054.081.978.978,0,0,1,.062-.081Q3.451,1.082,4.388.146A1.641,1.641,0,0,1,4.585,0" transform="translate(12.59 12.634)" fill="#fff"/>
      </g>
    </g>
  </g>
</svg>
