<svg xmlns="http://www.w3.org/2000/svg" xmlns:xlink="http://www.w3.org/1999/xlink" width="24" height="24" viewBox="0 0 24 24">
  <defs>
    <clipPath id="clip-path">
      <rect id="Rectangle_1504" data-name="Rectangle 1504" width="6.674" height="4.911" fill="#fff"/>
    </clipPath>
  </defs>
  <g id="UserVerified" transform="translate(24752 23600)">
    <rect id="Rectangle_1503" data-name="Rectangle 1503" width="24" height="24" transform="translate(-24752 -23600)" fill="none"/>
    <g id="Group_31917" data-name="Group 31917" transform="translate(-24750.234 -23598.129)">
      <g id="Group_31910" data-name="Group 31910" transform="translate(0.234 0.129)">
        <path id="Path_12285" data-name="Path 12285" d="M17.21,12.585a4.394,4.394,0,0,0-3.475,1.8.645.645,0,0,1-.073.071l-.073.054,0,0a.1.1,0,0,0-.054.106h0c-.28.09-.382.356-.535.561A6.093,6.093,0,0,0,11.776,18.7a10.292,10.292,0,0,0,.105,1.588c-.094,0-.188.014-.282.014q-4.712,0-9.423,0c-.372,0-.32.042-.324-.336a9.234,9.234,0,0,1,3.1-7.18,9,9,0,0,1,4.188-2.167c.041-.009.08-.025.172-.054A4.987,4.987,0,0,1,6.659,7.933a4.828,4.828,0,0,1-.079-3.72,4.962,4.962,0,1,1,6.544,6.357c.277.076.534.14.787.216a9.307,9.307,0,0,1,3.152,1.657c.053.042.1.094.147.141" transform="translate(-1.852 -1.017)" fill="#2dbecd"/>
        <path id="Path_12286" data-name="Path 12286" d="M193.491,269.056a10.293,10.293,0,0,1-.105-1.588,6.093,6.093,0,0,1,1.229-3.536c.153-.205.255-.472.535-.561a5.952,5.952,0,0,0-.585,1.525,4.363,4.363,0,0,0,1.156,3.932c.074.08.179.137.209.254q-1.118,0-2.237,0a1.471,1.471,0,0,1-.2-.027" transform="translate(-183.462 -249.78)" fill="#2dbecd"/>
        <path id="Path_12288" data-name="Path 12288" d="M227.435,261.451a.1.1,0,0,1,.053-.106.08.08,0,0,1-.053.106" transform="translate(-215.749 -247.859)" fill="#323251"/>
        <path id="Path_12289" data-name="Path 12289" d="M228.414,260.41l.073-.054-.073.054" transform="translate(-216.678 -246.922)" fill="#323251"/>
        <circle id="Ellipse_77" data-name="Ellipse 77" cx="4.911" cy="4.911" r="4.911" transform="translate(10.135 10.178)" fill="#5eac24"/>
        <g id="Group_31917-2" data-name="Group 31917" transform="translate(11.772 12.634)">
          <g id="Group_31914" data-name="Group 31914" clip-path="url(#clip-path)">
            <path id="Path_12297" data-name="Path 12297" d="M6.4,0a.355.355,0,0,1,.264.26.318.318,0,0,1-.057.271.783.783,0,0,1-.079.087L2.449,4.708a.756.756,0,0,1-.272.2h-.13a.593.593,0,0,1-.253-.174Q.985,3.924.174,3.114A.594.594,0,0,1,0,2.861V2.73a1,1,0,0,1,.13-.188.315.315,0,0,1,.4-.008.789.789,0,0,1,.077.07L2.051,4.049c.017.017.031.037.062.075a.484.484,0,0,1,.049-.075L5.994.208A.767.767,0,0,1,6.271,0Z" fill="#fff"/>
          </g>
        </g>
      </g>
    </g>
  </g>
</svg>
