<svg xmlns="http://www.w3.org/2000/svg" width="31.984" height="32" viewBox="0 0 31.984 32">
  <g id="vuesax_bold_add" data-name="vuesax/bold/add" transform="translate(-494 -254)">
    <path id="Vector" d="M22.7,0H9.3C3.472,0,0,3.472,0,9.3V22.688C0,28.528,3.472,32,9.3,32H22.688c5.824,0,9.3-3.472,9.3-9.3V9.3C32,3.472,28.528,0,22.7,0Zm2.9,17.2H17.2v8.4a1.2,1.2,0,1,1-2.4,0V17.2H6.4a1.2,1.2,0,0,1,0-2.4h8.4V6.4a1.2,1.2,0,0,1,2.4,0v8.4h8.4a1.2,1.2,0,1,1,0,2.4Z" transform="translate(494 254)" fill="#2dbecd"/>
  </g>
</svg>
