<svg xmlns="http://www.w3.org/2000/svg" width="55" height="75" viewBox="0 0 55 75">
  <g id="MenuExpand" transform="translate(-20 -20)">
    <path id="Rectangle_806" data-name="Rectangle 806" d="M0,0H45A10,10,0,0,1,55,10V65A10,10,0,0,1,45,75H0a0,0,0,0,1,0,0V0A0,0,0,0,1,0,0Z" transform="translate(20 20)" fill="#e8e8e8"/>
    <g id="Group_31788" data-name="Group 31788" transform="translate(6.75 29)">
      <g id="DXhMdY.tif" transform="translate(0 5.25)">
        <g id="Group_31785" data-name="Group 31785" transform="translate(0 0)">
          <path id="Path_12191" data-name="Path 12191" d="M365.691,258c.011,1.835.01,3.67.036,5.505a5.661,5.661,0,0,0,4.572,5.712,5.325,5.325,0,0,0,1.052.1c1.871.009,3.742,0,5.733,0V258Z" transform="translate(-345.953 -258)" fill="#374c5a"/>
          <path id="Path_12192" data-name="Path 12192" d="M377.23,568.466q-.016-5.174-.033-10.348c0-.285,0-.569,0-.914H365.871c0,.554,0,1.1,0,1.646.012,1.481-.062,2.97.061,4.442a5.516,5.516,0,0,0,4.5,5.057,2.121,2.121,0,0,1,.3.116Z" transform="translate(-346.1 -517.466)" fill="#374c5a"/>
          <path id="Path_12195" data-name="Path 12195" d="M526.2,568.432V557.165h-11.2c-.013.015-.066.048-.066.08,0,2.1-.151,4.218.056,6.3a5.283,5.283,0,0,0,3.908,4.633c.267.09.538.17.807.254Z" transform="translate(-475.334 -517.432)" fill="#374c5a"/>
          <path id="Path_12197" data-name="Path 12197" d="M377.156,407.549H365.941a4.475,4.475,0,0,0-.052.472c0,1.681-.024,3.363,0,5.044a5.546,5.546,0,0,0,5.2,5.734c1.993.148,4.006.028,6.067.028Z" transform="translate(-346.115 -387.687)" fill="#374c5a"/>
          <path id="Path_12198" data-name="Path 12198" d="M515.125,407.644c0,2.2-.152,4.377.04,6.522a5.273,5.273,0,0,0,4.85,4.681c2.078.15,4.176.031,6.3.031V407.644Z" transform="translate(-475.491 -387.769)" fill="#374c5a"/>
        </g>
      </g>
      <path id="Path_12199" data-name="Path 12199" d="M484.393,238.823l-3.82-3.943,4.248-4.234-.071-.154H473.185V224.8H484.8l-4.272-4.317,3.961-4.007,11.09,11.14Z" transform="translate(-433.513 -216.473)" fill="#20c0fd"/>
    </g>
  </g>
</svg>
